font.ufo
<glyph name="exclam" format="1">
  <advance width="295"/>
  <unicode hex="0021"/>
  <outline>
    <contour>
      <point x="84" y="622" type="line"/>
      <point x="104" y="200" type="line"/>
      <point x="192" y="200" type="line"/>
      <point x="211" y="622" type="line"/>
    </contour>
    <contour>
      <point x="87" y="0" type="line"/>
      <point x="207" y="0" type="line"/>
      <point x="207" y="120" type="line"/>
      <point x="87" y="120" type="line"/>
    </contour>
  </outline>
</glyph>
<glyph name="quotedbl" format="1">
  <advance width="372"/>
  <unicode hex="0022"/>
  <outline>
    <contour>
      <point x="59" y="622" type="line"/>
      <point x="59" y="397" type="line"/>
      <point x="156" y="397" type="line"/>
      <point x="156" y="622" type="line"/>
    </contour>
    <contour>
      <point x="216" y="622" type="line"/>
      <point x="216" y="397" type="line"/>
      <point x="313" y="397" type="line"/>
      <point x="313" y="622" type="line"/>
    </contour>
  </outline>
</glyph>
<glyph name="numbersign" format="1">
  <advance width="949"/>
  <unicode hex="0023"/>
  <outline>
    <contour>
      <point x="364" y="622" type="line"/>
      <point x="159" y="0" type="line"/>
      <point x="253" y="0" type="line"/>
      <point x="458" y="622" type="line"/>
    </contour>
    <contour>
      <point x="891" y="462" type="line"/>
      <point x="104" y="462" type="line"/>
      <point x="104" y="393" type="line"/>
      <point x="891" y="393" type="line"/>
    </contour>
    <contour>
      <point x="601" y="0" type="line"/>
      <point x="806" y="622" type="line"/>
      <point x="711" y="622" type="line"/>
      <point x="506" y="0" type="line"/>
    </contour>
    <contour>
      <point x="57" y="160" type="line"/>
      <point x="844" y="160" type="line"/>
      <point x="844" y="228" type="line"/>
      <point x="57" y="228" type="line"/>
    </contour>
  </outline>
</glyph>
<glyph name="dollar" format="1">
  <advance width="653"/>
  <unicode hex="0024"/>
  <outline>
    <contour>
      <point x="376" y="610" type="line"/>
      <point x="376" y="714" type="line"/>
      <point x="270" y="714" type="line"/>
      <point x="270" y="610" type="line"/>
    </contour>
    <contour>
      <point x="376" y="-91" type="line"/>
      <point x="376" y="13" type="line"/>
      <point x="270" y="13" type="line"/>
      <point x="270" y="-91" type="line"/>
    </contour>
    <contour>
      <point x="469" y="90" type="line"/>
      <point x="469" y="64"/>
      <point x="464" y="59"/>
      <point x="438" y="59" type="curve" smooth="yes"/>
      <point x="216" y="59" type="line" smooth="yes"/>
      <point x="190" y="59"/>
      <point x="185" y="64"/>
      <point x="185" y="90" type="curve" smooth="yes"/>
      <point x="185" y="180" type="line"/>
      <point x="75" y="180" type="line"/>
      <point x="75" y="79" type="line" smooth="yes"/>
      <point x="75" y="26"/>
      <point x="101" y="0"/>
      <point x="154" y="0" type="curve" smooth="yes"/>
      <point x="498" y="0" type="line" smooth="yes"/>
      <point x="551" y="0"/>
      <point x="577" y="26"/>
      <point x="577" y="79" type="curve" smooth="yes"/>
      <point x="577" y="264" type="line" smooth="yes"/>
      <point x="577" y="317"/>
      <point x="551" y="343"/>
      <point x="498" y="343" type="curve" smooth="yes"/>
      <point x="214" y="343" type="line" smooth="yes"/>
      <point x="188" y="343"/>
      <point x="183" y="348"/>
      <point x="183" y="374" type="curve" smooth="yes"/>
      <point x="183" y="532" type="line" smooth="yes"/>
      <point x="183" y="558"/>
      <point x="188" y="563"/>
      <point x="214" y="563" type="curve" smooth="yes"/>
      <point x="434" y="563" type="line" smooth="yes"/>
      <point x="460" y="563"/>
      <point x="465" y="558"/>
      <point x="465" y="532" type="curve" smooth="yes"/>
      <point x="465" y="442" type="line"/>
      <point x="574" y="442" type="line"/>
      <point x="574" y="543" type="line" smooth="yes"/>
      <point x="574" y="596"/>
      <point x="548" y="622"/>
      <point x="495" y="622" type="curve" smooth="yes"/>
      <point x="152" y="622" type="line" smooth="yes"/>
      <point x="99" y="622"/>
      <point x="73" y="596"/>
      <point x="73" y="543" type="curve" smooth="yes"/>
      <point x="73" y="363" type="line" smooth="yes"/>
      <point x="73" y="310"/>
      <point x="99" y="284"/>
      <point x="152" y="284" type="curve" smooth="yes"/>
      <point x="438" y="284" type="line" smooth="yes"/>
      <point x="464" y="284"/>
      <point x="469" y="279"/>
      <point x="469" y="253" type="curve" smooth="yes"/>
    </contour>
  </outline>
</glyph>
<glyph name="percent" format="1">
  <advance width="1101"/>
  <unicode hex="0025"/>
  <outline>
    <contour>
      <point x="1045" y="271" type="line"/>
      <point x="1045" y="315"/>
      <point x="1025" y="337"/>
      <point x="982" y="337" type="curve" smooth="yes"/>
      <point x="742" y="337" type="line" smooth="yes"/>
      <point x="699" y="337"/>
      <point x="679" y="315"/>
      <point x="679" y="271" type="curve" smooth="yes"/>
      <point x="679" y="66" type="line" smooth="yes"/>
      <point x="679" y="21"/>
      <point x="699" y="0"/>
      <point x="742" y="0" type="curve" smooth="yes"/>
      <point x="982" y="0" type="line" smooth="yes"/>
      <point x="1025" y="0"/>
      <point x="1045" y="21"/>
      <point x="1045" y="66" type="curve" smooth="yes"/>
    </contour>
    <contour>
      <point x="959" y="79" type="line"/>
      <point x="959" y="56"/>
      <point x="956" y="51"/>
      <point x="933" y="51" type="curve" smooth="yes"/>
      <point x="791" y="51" type="line" smooth="yes"/>
      <point x="768" y="51"/>
      <point x="765" y="56"/>
      <point x="765" y="79" type="curve" smooth="yes"/>
      <point x="765" y="258" type="line" smooth="yes"/>
      <point x="765" y="281"/>
      <point x="768" y="285"/>
      <point x="791" y="285" type="curve" smooth="yes"/>
      <point x="933" y="285" type="line" smooth="yes"/>
      <point x="956" y="285"/>
      <point x="959" y="281"/>
      <point x="959" y="258" type="curve" smooth="yes"/>
    </contour>
    <contour>
      <point x="735" y="622" type="line"/>
      <point x="268" y="0" type="line"/>
      <point x="362" y="0" type="line"/>
      <point x="830" y="622" type="line"/>
    </contour>
    <contour>
      <point x="421" y="555" type="line"/>
      <point x="421" y="600"/>
      <point x="402" y="621"/>
      <point x="359" y="621" type="curve" smooth="yes"/>
      <point x="119" y="621" type="line" smooth="yes"/>
      <point x="76" y="621"/>
      <point x="56" y="600"/>
      <point x="56" y="555" type="curve" smooth="yes"/>
      <point x="56" y="351" type="line" smooth="yes"/>
      <point x="56" y="306"/>
      <point x="76" y="285"/>
      <point x="119" y="285" type="curve" smooth="yes"/>
      <point x="359" y="285" type="line" smooth="yes"/>
      <point x="402" y="285"/>
      <point x="421" y="306"/>
      <point x="421" y="351" type="curve" smooth="yes"/>
    </contour>
    <contour>
      <point x="336" y="363" type="line"/>
      <point x="336" y="341"/>
      <point x="333" y="336"/>
      <point x="310" y="336" type="curve" smooth="yes"/>
      <point x="168" y="336" type="line" smooth="yes"/>
      <point x="145" y="336"/>
      <point x="142" y="341"/>
      <point x="142" y="363" type="curve" smooth="yes"/>
      <point x="142" y="542" type="line" smooth="yes"/>
      <point x="142" y="565"/>
      <point x="145" y="570"/>
      <point x="168" y="570" type="curve" smooth="yes"/>
      <point x="310" y="570" type="line" smooth="yes"/>
      <point x="333" y="570"/>
      <point x="336" y="565"/>
      <point x="336" y="542" type="curve" smooth="yes"/>
    </contour>
  </outline>
</glyph>
<glyph name="ampersand" format="1">
  <advance width="844"/>
  <unicode hex="0026"/>
  <outline>
    <contour>
      <point x="810" y="-45" type="line"/>
      <point x="354" y="336" type="line" smooth="yes"/>
      <point x="292" y="387"/>
      <point x="262" y="406"/>
      <point x="262" y="453" type="curve" smooth="yes"/>
      <point x="262" y="532" type="line" smooth="yes"/>
      <point x="262" y="558"/>
      <point x="267" y="563"/>
      <point x="293" y="563" type="curve" smooth="yes"/>
      <point x="489" y="563" type="line" smooth="yes"/>
      <point x="515" y="563"/>
      <point x="520" y="558"/>
      <point x="520" y="532" type="curve" smooth="yes"/>
      <point x="520" y="446" type="line" smooth="yes"/>
      <point x="520" y="406"/>
      <point x="504" y="388"/>
      <point x="460" y="372" type="curve" smooth="yes"/>
      <point x="151" y="259" type="line" smooth="yes"/>
      <point x="95" y="239"/>
      <point x="75" y="216"/>
      <point x="75" y="163" type="curve" smooth="yes"/>
      <point x="75" y="79" type="line" smooth="yes"/>
      <point x="75" y="26"/>
      <point x="101" y="0"/>
      <point x="154" y="0" type="curve" smooth="yes"/>
      <point x="703" y="0" type="line" smooth="yes"/>
      <point x="758" y="0"/>
      <point x="786" y="28"/>
      <point x="786" y="83" type="curve" smooth="yes"/>
      <point x="786" y="228" type="line"/>
      <point x="699" y="228" type="line"/>
      <point x="699" y="90" type="line" smooth="yes"/>
      <point x="699" y="64"/>
      <point x="694" y="59"/>
      <point x="668" y="59" type="curve" smooth="yes"/>
      <point x="212" y="59" type="line" smooth="yes"/>
      <point x="186" y="59"/>
      <point x="181" y="64"/>
      <point x="181" y="90" type="curve" smooth="yes"/>
      <point x="181" y="151" type="line" smooth="yes"/>
      <point x="181" y="182"/>
      <point x="190" y="198"/>
      <point x="224" y="210" type="curve" smooth="yes"/>
      <point x="538" y="326" type="line" smooth="yes"/>
      <point x="598" y="348"/>
      <point x="626" y="380"/>
      <point x="626" y="452" type="curve" smooth="yes"/>
      <point x="626" y="543" type="line" smooth="yes"/>
      <point x="626" y="596"/>
      <point x="600" y="622"/>
      <point x="547" y="622" type="curve" smooth="yes"/>
      <point x="235" y="622" type="line" smooth="yes"/>
      <point x="182" y="622"/>
      <point x="156" y="596"/>
      <point x="156" y="543" type="curve" smooth="yes"/>
      <point x="156" y="442" type="line" smooth="yes"/>
      <point x="156" y="383"/>
      <point x="196" y="357"/>
      <point x="254" y="309" type="curve" smooth="yes"/>
      <point x="682" y="-45" type="line"/>
    </contour>
  </outline>
</glyph>
<glyph name="quotesingle" format="1">
  <advance width="219"/>
  <unicode hex="0027"/>
  <outline>
    <contour>
      <point x="59" y="622" type="line"/>
      <point x="59" y="397" type="line"/>
      <point x="160" y="397" type="line"/>
      <point x="160" y="622" type="line"/>
    </contour>
  </outline>
</glyph>
<glyph name="parenleft" format="1">
  <advance width="344"/>
  <unicode hex="0028"/>
  <outline>
    <contour>
      <point x="93" y="351" type="line"/>
      <point x="93" y="616"/>
      <point x="198" y="717"/>
      <point x="360" y="717" type="curve" smooth="yes"/>
      <point x="395" y="717" type="line"/>
      <point x="395" y="658" type="line"/>
      <point x="368" y="658" type="line" smooth="yes"/>
      <point x="258" y="652"/>
      <point x="202" y="558"/>
      <point x="202" y="363" type="curve" smooth="yes"/>
      <point x="202" y="135" type="line" smooth="yes"/>
      <point x="202" y="-60"/>
      <point x="258" y="-154"/>
      <point x="368" y="-160" type="curve" smooth="yes"/>
      <point x="395" y="-160" type="line"/>
      <point x="395" y="-219" type="line"/>
      <point x="360" y="-219" type="line" smooth="yes"/>
      <point x="198" y="-219"/>
      <point x="93" y="-118"/>
      <point x="93" y="147" type="curve" smooth="yes"/>
    </contour>
  </outline>
</glyph>
<glyph name="parenright" format="1">
  <advance width="344"/>
  <unicode hex="0029"/>
  <outline>
    <contour>
      <point x="251" y="147" type="line"/>
      <point x="251" y="-118"/>
      <point x="146" y="-219"/>
      <point x="-16" y="-219" type="curve" smooth="yes"/>
      <point x="-51" y="-219" type="line"/>
      <point x="-51" y="-160" type="line"/>
      <point x="-24" y="-160" type="line"/>
      <point x="85" y="-154"/>
      <point x="142" y="-60"/>
      <point x="142" y="135" type="curve" smooth="yes"/>
      <point x="142" y="363" type="line" smooth="yes"/>
      <point x="142" y="558"/>
      <point x="85" y="652"/>
      <point x="-24" y="658" type="curve"/>
      <point x="-51" y="658" type="line"/>
      <point x="-51" y="717" type="line"/>
      <point x="-16" y="717" type="line" smooth="yes"/>
      <point x="146" y="717"/>
      <point x="251" y="616"/>
      <point x="251" y="351" type="curve" smooth="yes"/>
    </contour>
  </outline>
</glyph>
<glyph name="asterisk" format="1">
  <advance width="477"/>
  <unicode hex="002A"/>
  <outline>
    <contour>
      <point x="196" y="652" type="line"/>
      <point x="196" y="588" type="line" smooth="yes"/>
      <point x="196" y="562"/>
      <point x="200" y="539"/>
      <point x="205" y="522" type="curve"/>
      <point x="188" y="532"/>
      <point x="168" y="543"/>
      <point x="143" y="551" type="curve" smooth="yes"/>
      <point x="83" y="571" type="line"/>
      <point x="56" y="488" type="line"/>
      <point x="117" y="468" type="line" smooth="yes"/>
      <point x="139" y="462"/>
      <point x="161" y="457"/>
      <point x="182" y="456" type="curve"/>
      <point x="167" y="444"/>
      <point x="150" y="428"/>
      <point x="135" y="407" type="curve" smooth="yes"/>
      <point x="98" y="356" type="line"/>
      <point x="168" y="305" type="line"/>
      <point x="205" y="356" type="line" smooth="yes"/>
      <point x="220" y="377"/>
      <point x="231" y="398"/>
      <point x="237" y="415" type="curve"/>
      <point x="244" y="398"/>
      <point x="254" y="377"/>
      <point x="269" y="355" type="curve" smooth="yes"/>
      <point x="307" y="303" type="line"/>
      <point x="377" y="354" type="line"/>
      <point x="339" y="406" type="line" smooth="yes"/>
      <point x="325" y="427"/>
      <point x="308" y="443"/>
      <point x="294" y="455" type="curve"/>
      <point x="312" y="455"/>
      <point x="336" y="458"/>
      <point x="360" y="466" type="curve" smooth="yes"/>
      <point x="421" y="486" type="line"/>
      <point x="395" y="569" type="line"/>
      <point x="334" y="548" type="line" smooth="yes"/>
      <point x="310" y="540"/>
      <point x="289" y="530"/>
      <point x="274" y="519" type="curve"/>
      <point x="279" y="538"/>
      <point x="283" y="561"/>
      <point x="283" y="588" type="curve" smooth="yes"/>
      <point x="283" y="652" type="line"/>
    </contour>
  </outline>
</glyph>
<glyph name="plus" format="1">
  <advance width="656"/>
  <unicode hex="002B"/>
  <outline>
    <contour>
      <point x="59" y="272" type="line"/>
      <point x="598" y="272" type="line"/>
      <point x="598" y="350" type="line"/>
      <point x="59" y="350" type="line"/>
    </contour>
    <contour>
      <point x="276" y="506" type="line"/>
      <point x="276" y="115" type="line"/>
      <point x="381" y="115" type="line"/>
      <point x="381" y="506" type="line"/>
    </contour>
  </outline>
</glyph>
<glyph name="period" format="1">
  <advance width="239"/>
  <unicode hex="002E"/>
  <outline>
    <contour>
      <point x="59" y="0" type="line"/>
      <point x="179" y="0" type="line"/>
      <point x="179" y="120" type="line"/>
      <point x="59" y="120" type="line"/>
    </contour>
  </outline>
</glyph>
<glyph name="slash" format="1">
  <advance width="407"/>
  <unicode hex="002F"/>
  <outline>
    <contour>
      <point x="391" y="699" type="line"/>
      <point x="-22" y="-136" type="line"/>
      <point x="80" y="-136" type="line"/>
      <point x="494" y="699" type="line"/>
    </contour>
  </outline>
</glyph>
<glyph name="zero" format="1">
  <advance width="684"/>
  <unicode hex="0030"/>
  <outline>
    <contour>
      <point x="598" y="543" type="line"/>
      <point x="598" y="596"/>
      <point x="572" y="622"/>
      <point x="519" y="622" type="curve" smooth="yes"/>
      <point x="164" y="622" type="line" smooth="yes"/>
      <point x="111" y="622"/>
      <point x="85" y="596"/>
      <point x="85" y="543" type="curve" smooth="yes"/>
      <point x="85" y="79" type="line" smooth="yes"/>
      <point x="85" y="26"/>
      <point x="111" y="0"/>
      <point x="164" y="0" type="curve" smooth="yes"/>
      <point x="519" y="0" type="line" smooth="yes"/>
      <point x="572" y="0"/>
      <point x="598" y="26"/>
      <point x="598" y="79" type="curve" smooth="yes"/>
    </contour>
    <contour>
      <point x="489" y="90" type="line"/>
      <point x="489" y="64"/>
      <point x="484" y="59"/>
      <point x="458" y="59" type="curve" smooth="yes"/>
      <point x="227" y="59" type="line" smooth="yes"/>
      <point x="201" y="59"/>
      <point x="196" y="64"/>
      <point x="196" y="90" type="curve" smooth="yes"/>
      <point x="196" y="532" type="line" smooth="yes"/>
      <point x="196" y="558"/>
      <point x="201" y="563"/>
      <point x="227" y="563" type="curve" smooth="yes"/>
      <point x="458" y="563" type="line" smooth="yes"/>
      <point x="484" y="563"/>
      <point x="489" y="558"/>
      <point x="489" y="532" type="curve" smooth="yes"/>
    </contour>
  </outline>
</glyph>
<glyph name="one" format="1">
  <advance width="350"/>
  <unicode hex="0031"/>
  <outline>
    <contour>
      <point x="211" y="622" type="line"/>
      <point x="27" y="622" type="line"/>
      <point x="27" y="563" type="line"/>
      <point x="211" y="563" type="line"/>
    </contour>
    <contour>
      <point x="153" y="622" type="line"/>
      <point x="153" y="0" type="line"/>
      <point x="265" y="0" type="line"/>
      <point x="265" y="622" type="line"/>
    </contour>
  </outline>
</glyph>
<glyph name="two" format="1">
  <advance width="627"/>
  <unicode hex="0032"/>
  <outline>
    <contour>
      <point x="168" y="532" type="line"/>
      <point x="168" y="558"/>
      <point x="173" y="563"/>
      <point x="199" y="563" type="curve" smooth="yes"/>
      <point x="426" y="563" type="line" smooth="yes"/>
      <point x="452" y="563"/>
      <point x="457" y="558"/>
      <point x="457" y="532" type="curve" smooth="yes"/>
      <point x="457" y="492" type="line" smooth="yes"/>
      <point x="457" y="435"/>
      <point x="437" y="405"/>
      <point x="396" y="366" type="curve" smooth="yes"/>
      <point x="58" y="58" type="line"/>
      <point x="58" y="0" type="line"/>
      <point x="571" y="0" type="line"/>
      <point x="571" y="59" type="line"/>
      <point x="206" y="59" type="line"/>
      <point x="506" y="333" type="line" smooth="yes"/>
      <point x="558" y="381"/>
      <point x="567" y="414"/>
      <point x="567" y="489" type="curve" smooth="yes"/>
      <point x="567" y="543" type="line" smooth="yes"/>
      <point x="567" y="596"/>
      <point x="541" y="622"/>
      <point x="488" y="622" type="curve" smooth="yes"/>
      <point x="137" y="622" type="line" smooth="yes"/>
      <point x="84" y="622"/>
      <point x="58" y="596"/>
      <point x="58" y="543" type="curve" smooth="yes"/>
      <point x="58" y="410" type="line"/>
      <point x="168" y="410" type="line"/>
    </contour>
  </outline>
</glyph>
<glyph name="three" format="1">
  <advance width="663"/>
  <unicode hex="0033"/>
  <outline>
    <contour>
      <point x="184" y="532" type="line"/>
      <point x="184" y="558"/>
      <point x="189" y="563"/>
      <point x="215" y="563" type="curve" smooth="yes"/>
      <point x="446" y="563" type="line" smooth="yes"/>
      <point x="472" y="563"/>
      <point x="477" y="558"/>
      <point x="477" y="532" type="curve" smooth="yes"/>
      <point x="477" y="376" type="line" smooth="yes"/>
      <point x="477" y="350"/>
      <point x="472" y="345"/>
      <point x="446" y="345" type="curve" smooth="yes"/>
      <point x="273" y="345" type="line"/>
      <point x="273" y="285" type="line"/>
      <point x="446" y="285" type="line" smooth="yes"/>
      <point x="472" y="285"/>
      <point x="477" y="280"/>
      <point x="477" y="254" type="curve" smooth="yes"/>
      <point x="477" y="90" type="line" smooth="yes"/>
      <point x="477" y="64"/>
      <point x="472" y="59"/>
      <point x="446" y="59" type="curve" smooth="yes"/>
      <point x="215" y="59" type="line" smooth="yes"/>
      <point x="189" y="59"/>
      <point x="184" y="64"/>
      <point x="184" y="90" type="curve" smooth="yes"/>
      <point x="184" y="193" type="line"/>
      <point x="75" y="193" type="line"/>
      <point x="75" y="79" type="line" smooth="yes"/>
      <point x="75" y="26"/>
      <point x="101" y="0"/>
      <point x="154" y="0" type="curve" smooth="yes"/>
      <point x="508" y="0" type="line" smooth="yes"/>
      <point x="561" y="0"/>
      <point x="587" y="26"/>
      <point x="587" y="79" type="curve" smooth="yes"/>
      <point x="587" y="262" type="line" smooth="yes"/>
      <point x="587" y="296"/>
      <point x="571" y="313"/>
      <point x="542" y="316" type="curve"/>
      <point x="571" y="318"/>
      <point x="587" y="337"/>
      <point x="587" y="371" type="curve" smooth="yes"/>
      <point x="587" y="543" type="line" smooth="yes"/>
      <point x="587" y="596"/>
      <point x="561" y="622"/>
      <point x="508" y="622" type="curve" smooth="yes"/>
      <point x="154" y="622" type="line" smooth="yes"/>
      <point x="101" y="622"/>
      <point x="75" y="596"/>
      <point x="75" y="543" type="curve" smooth="yes"/>
      <point x="75" y="428" type="line"/>
      <point x="184" y="428" type="line"/>
    </contour>
  </outline>
</glyph>
<glyph name="four" format="1">
  <advance width="662"/>
  <unicode hex="0034"/>
  <outline>
    <contour>
      <point x="78" y="101" type="line"/>
      <point x="643" y="101" type="line"/>
      <point x="643" y="160" type="line"/>
      <point x="78" y="160" type="line"/>
    </contour>
    <contour>
      <point x="37" y="101" type="line"/>
      <point x="117" y="101" type="line"/>
      <point x="443" y="622" type="line"/>
      <point x="328" y="622" type="line"/>
      <point x="37" y="165" type="line"/>
    </contour>
    <contour>
      <point x="426" y="328" type="line"/>
      <point x="426" y="0" type="line"/>
      <point x="530" y="0" type="line"/>
      <point x="530" y="328" type="line"/>
    </contour>
  </outline>
</glyph>
<glyph name="five" format="1">
  <advance width="642"/>
  <unicode hex="0035"/>
  <outline>
    <contour>
      <point x="195" y="198" type="line"/>
      <point x="85" y="198" type="line"/>
      <point x="85" y="79" type="line" smooth="yes"/>
      <point x="85" y="26"/>
      <point x="111" y="0"/>
      <point x="164" y="0" type="curve" smooth="yes"/>
      <point x="506" y="0" type="line" smooth="yes"/>
      <point x="559" y="0"/>
      <point x="585" y="26"/>
      <point x="585" y="79" type="curve" smooth="yes"/>
      <point x="585" y="300" type="line" smooth="yes"/>
      <point x="585" y="353"/>
      <point x="559" y="379"/>
      <point x="506" y="379" type="curve" smooth="yes"/>
      <point x="165" y="379" type="line"/>
      <point x="165" y="320" type="line"/>
      <point x="444" y="320" type="line" smooth="yes"/>
      <point x="470" y="320"/>
      <point x="475" y="315"/>
      <point x="475" y="289" type="curve" smooth="yes"/>
      <point x="475" y="90" type="line" smooth="yes"/>
      <point x="475" y="64"/>
      <point x="470" y="59"/>
      <point x="444" y="59" type="curve" smooth="yes"/>
      <point x="226" y="59" type="line" smooth="yes"/>
      <point x="200" y="59"/>
      <point x="195" y="64"/>
      <point x="195" y="90" type="curve" smooth="yes"/>
    </contour>
    <contour>
      <point x="200" y="320" type="line"/>
      <point x="200" y="563" type="line"/>
      <point x="575" y="563" type="line"/>
      <point x="575" y="622" type="line"/>
      <point x="87" y="622" type="line"/>
      <point x="87" y="320" type="line"/>
    </contour>
  </outline>
</glyph>
<glyph name="six" format="1">
  <advance width="659"/>
  <unicode hex="0036"/>
  <outline>
    <contour>
      <point x="474" y="198" type="line"/>
      <point x="474" y="90" type="line" smooth="yes"/>
      <point x="474" y="64"/>
      <point x="469" y="59"/>
      <point x="443" y="59" type="curve" smooth="yes"/>
      <point x="227" y="59" type="line" smooth="yes"/>
      <point x="201" y="59"/>
      <point x="196" y="64"/>
      <point x="196" y="90" type="curve" smooth="yes"/>
      <point x="196" y="532" type="line" smooth="yes"/>
      <point x="196" y="558"/>
      <point x="201" y="563"/>
      <point x="227" y="563" type="curve" smooth="yes"/>
      <point x="439" y="563" type="line" smooth="yes"/>
      <point x="465" y="563"/>
      <point x="470" y="558"/>
      <point x="470" y="532" type="curve" smooth="yes"/>
      <point x="470" y="428" type="line"/>
      <point x="579" y="428" type="line"/>
      <point x="579" y="543" type="line" smooth="yes"/>
      <point x="579" y="596"/>
      <point x="553" y="622"/>
      <point x="500" y="622" type="curve" smooth="yes"/>
      <point x="164" y="622" type="line" smooth="yes"/>
      <point x="111" y="622"/>
      <point x="85" y="596"/>
      <point x="85" y="543" type="curve" smooth="yes"/>
      <point x="85" y="79" type="line" smooth="yes"/>
      <point x="85" y="26"/>
      <point x="111" y="0"/>
      <point x="164" y="0" type="curve" smooth="yes"/>
      <point x="504" y="0" type="line" smooth="yes"/>
      <point x="557" y="0"/>
      <point x="583" y="26"/>
      <point x="583" y="79" type="curve" smooth="yes"/>
      <point x="583" y="198" type="line"/>
    </contour>
    <contour>
      <point x="583" y="161" type="line"/>
      <point x="583" y="276" type="line" smooth="yes"/>
      <point x="583" y="329"/>
      <point x="557" y="355"/>
      <point x="504" y="355" type="curve" smooth="yes"/>
      <point x="173" y="355" type="line"/>
      <point x="173" y="296" type="line"/>
      <point x="443" y="296" type="line" smooth="yes"/>
      <point x="469" y="296"/>
      <point x="474" y="291"/>
      <point x="474" y="265" type="curve" smooth="yes"/>
      <point x="474" y="161" type="line"/>
    </contour>
  </outline>
</glyph>
<glyph name="seven" format="1">
  <advance width="525"/>
  <unicode hex="0037"/>
  <outline>
    <contour>
      <point x="474" y="622" type="line"/>
      <point x="37" y="622" type="line"/>
      <point x="37" y="563" type="line"/>
      <point x="474" y="563" type="line"/>
    </contour>
    <contour>
      <point x="507" y="622" type="line"/>
      <point x="418" y="622" type="line"/>
      <point x="119" y="0" type="line"/>
      <point x="235" y="0" type="line"/>
      <point x="507" y="565" type="line"/>
    </contour>
  </outline>
</glyph>
<glyph name="eight" format="1">
  <advance width="668"/>
  <unicode hex="0038"/>
  <outline>
    <contour>
      <point x="164" y="622" type="line"/>
      <point x="111" y="622"/>
      <point x="85" y="596"/>
      <point x="85" y="543" type="curve" smooth="yes"/>
      <point x="85" y="367" type="line" smooth="yes"/>
      <point x="85" y="333"/>
      <point x="101" y="314"/>
      <point x="130" y="312" type="curve"/>
      <point x="101" y="309"/>
      <point x="85" y="292"/>
      <point x="85" y="258" type="curve" smooth="yes"/>
      <point x="85" y="79" type="line" smooth="yes"/>
      <point x="85" y="26"/>
      <point x="111" y="0"/>
      <point x="164" y="0" type="curve" smooth="yes"/>
      <point x="505" y="0" type="line" smooth="yes"/>
      <point x="558" y="0"/>
      <point x="584" y="26"/>
      <point x="584" y="79" type="curve" smooth="yes"/>
      <point x="584" y="258" type="line" smooth="yes"/>
      <point x="584" y="292"/>
      <point x="568" y="309"/>
      <point x="539" y="312" type="curve"/>
      <point x="568" y="314"/>
      <point x="584" y="333"/>
      <point x="584" y="367" type="curve" smooth="yes"/>
      <point x="584" y="543" type="line" smooth="yes"/>
      <point x="584" y="596"/>
      <point x="558" y="622"/>
      <point x="505" y="622" type="curve" smooth="yes"/>
    </contour>
    <contour>
      <point x="194" y="252" type="line"/>
      <point x="194" y="278"/>
      <point x="199" y="283"/>
      <point x="225" y="283" type="curve" smooth="yes"/>
      <point x="444" y="283" type="line" smooth="yes"/>
      <point x="470" y="283"/>
      <point x="475" y="278"/>
      <point x="475" y="252" type="curve" smooth="yes"/>
      <point x="475" y="90" type="line" smooth="yes"/>
      <point x="475" y="64"/>
      <point x="470" y="59"/>
      <point x="444" y="59" type="curve" smooth="yes"/>
      <point x="225" y="59" type="line" smooth="yes"/>
      <point x="199" y="59"/>
      <point x="194" y="64"/>
      <point x="194" y="90" type="curve" smooth="yes"/>
    </contour>
    <contour>
      <point x="475" y="374" type="line"/>
      <point x="475" y="348"/>
      <point x="470" y="343"/>
      <point x="444" y="343" type="curve" smooth="yes"/>
      <point x="225" y="343" type="line" smooth="yes"/>
      <point x="199" y="343"/>
      <point x="194" y="348"/>
      <point x="194" y="374" type="curve" smooth="yes"/>
      <point x="194" y="532" type="line" smooth="yes"/>
      <point x="194" y="558"/>
      <point x="199" y="563"/>
      <point x="225" y="563" type="curve" smooth="yes"/>
      <point x="444" y="563" type="line" smooth="yes"/>
      <point x="470" y="563"/>
      <point x="475" y="558"/>
      <point x="475" y="532" type="curve" smooth="yes"/>
    </contour>
  </outline>
</glyph>
<glyph name="nine" format="1">
  <advance width="664"/>
  <unicode hex="0039"/>
  <outline>
    <contour>
      <point x="196" y="186" type="line"/>
      <point x="86" y="186" type="line"/>
      <point x="86" y="79" type="line" smooth="yes"/>
      <point x="86" y="26"/>
      <point x="112" y="0"/>
      <point x="165" y="0" type="curve" smooth="yes"/>
      <point x="499" y="0" type="line" smooth="yes"/>
      <point x="552" y="0"/>
      <point x="578" y="26"/>
      <point x="578" y="79" type="curve" smooth="yes"/>
      <point x="578" y="543" type="line" smooth="yes"/>
      <point x="578" y="596"/>
      <point x="552" y="622"/>
      <point x="499" y="622" type="curve" smooth="yes"/>
      <point x="242" y="622" type="line"/>
      <point x="242" y="563" type="line"/>
      <point x="437" y="563" type="line" smooth="yes"/>
      <point x="463" y="563"/>
      <point x="468" y="558"/>
      <point x="468" y="532" type="curve" smooth="yes"/>
      <point x="468" y="90" type="line" smooth="yes"/>
      <point x="468" y="64"/>
      <point x="463" y="59"/>
      <point x="437" y="59" type="curve" smooth="yes"/>
      <point x="227" y="59" type="line" smooth="yes"/>
      <point x="201" y="59"/>
      <point x="196" y="64"/>
      <point x="196" y="90" type="curve" smooth="yes"/>
    </contour>
    <contour>
      <point x="191" y="532" type="line"/>
      <point x="191" y="558"/>
      <point x="196" y="563"/>
      <point x="222" y="563" type="curve" smooth="yes"/>
      <point x="251" y="563" type="line"/>
      <point x="251" y="622" type="line"/>
      <point x="159" y="622" type="line" smooth="yes"/>
      <point x="106" y="622"/>
      <point x="80" y="596"/>
      <point x="80" y="543" type="curve" smooth="yes"/>
      <point x="80" y="338" type="line" smooth="yes"/>
      <point x="80" y="285"/>
      <point x="106" y="259"/>
      <point x="159" y="259" type="curve" smooth="yes"/>
      <point x="491" y="259" type="line"/>
      <point x="491" y="318" type="line"/>
      <point x="222" y="318" type="line" smooth="yes"/>
      <point x="196" y="318"/>
      <point x="191" y="323"/>
      <point x="191" y="349" type="curve" smooth="yes"/>
    </contour>
  </outline>
</glyph>
<glyph name="colon" format="1">
  <advance width="239"/>
  <unicode hex="003A"/>
  <outline>
    <contour>
      <point x="59" y="75" type="line"/>
      <point x="179" y="75" type="line"/>
      <point x="179" y="194" type="line"/>
      <point x="59" y="194" type="line"/>
    </contour>
    <contour>
      <point x="59" y="291" type="line"/>
      <point x="179" y="291" type="line"/>
      <point x="179" y="410" type="line"/>
      <point x="59" y="410" type="line"/>
    </contour>
  </outline>
</glyph>
<glyph name="semicolon" format="1">
  <advance width="229"/>
  <unicode hex="003B"/>
  <outline>
    <contour>
      <point x="59" y="125" type="line"/>
      <point x="179" y="125" type="line"/>
      <point x="179" y="58" type="line"/>
      <point x="99" y="-138" type="line"/>
      <point x="59" y="-138" type="line"/>
    </contour>
    <contour>
      <point x="59" y="365" type="line"/>
      <point x="179" y="365" type="line"/>
      <point x="179" y="485" type="line"/>
      <point x="59" y="485" type="line"/>
    </contour>
  </outline>
</glyph>
<glyph name="less" format="1">
  <advance width="672"/>
  <unicode hex="003C"/>
  <outline>
    <contour>
      <point x="616" y="403" type="line"/>
      <point x="616" y="488" type="line"/>
      <point x="39" y="358" type="line"/>
      <point x="39" y="266" type="line"/>
      <point x="616" y="133" type="line"/>
      <point x="616" y="218" type="line"/>
      <point x="131" y="311" type="line"/>
    </contour>
  </outline>
</glyph>
<glyph name="equal" format="1">
  <advance width="691"/>
  <unicode hex="003D"/>
  <outline>
    <contour>
      <point x="76" y="362" type="line"/>
      <point x="615" y="362" type="line"/>
      <point x="615" y="442" type="line"/>
      <point x="76" y="442" type="line"/>
    </contour>
    <contour>
      <point x="76" y="179" type="line"/>
      <point x="615" y="179" type="line"/>
      <point x="615" y="259" type="line"/>
      <point x="76" y="259" type="line"/>
    </contour>
  </outline>
</glyph>
<glyph name="greater" format="1">
  <advance width="672"/>
  <unicode hex="003E"/>
  <outline>
    <contour>
      <point x="541" y="311" type="line"/>
      <point x="56" y="218" type="line"/>
      <point x="56" y="133" type="line"/>
      <point x="633" y="266" type="line"/>
      <point x="633" y="358" type="line"/>
      <point x="56" y="488" type="line"/>
      <point x="56" y="403" type="line"/>
    </contour>
  </outline>
</glyph>
<glyph name="question" format="1">
  <advance width="584"/>
  <unicode hex="003F"/>
  <outline>
    <contour>
      <point x="422" y="361" type="line"/>
      <point x="422" y="337"/>
      <point x="418" y="329"/>
      <point x="393" y="329" type="curve" smooth="yes"/>
      <point x="263" y="329" type="line"/>
      <point x="263" y="268" type="line"/>
      <point x="451" y="268" type="line" smooth="yes"/>
      <point x="506" y="268"/>
      <point x="530" y="298"/>
      <point x="530" y="346" type="curve" smooth="yes"/>
      <point x="530" y="545" type="line" smooth="yes"/>
      <point x="530" y="593"/>
      <point x="506" y="622"/>
      <point x="451" y="622" type="curve" smooth="yes"/>
      <point x="176" y="622" type="line"/>
      <point x="176" y="564" type="line"/>
      <point x="393" y="564" type="line" smooth="yes"/>
      <point x="418" y="564"/>
      <point x="422" y="555"/>
      <point x="422" y="531" type="curve" smooth="yes"/>
    </contour>
    <contour>
      <point x="220" y="329" type="line"/>
      <point x="228" y="200" type="line"/>
      <point x="318" y="200" type="line"/>
      <point x="328" y="329" type="line"/>
    </contour>
    <contour>
      <point x="212" y="0" type="line"/>
      <point x="332" y="0" type="line"/>
      <point x="332" y="120" type="line"/>
      <point x="212" y="120" type="line"/>
    </contour>
    <contour>
      <point x="137" y="531" type="line"/>
      <point x="137" y="555"/>
      <point x="140" y="564"/>
      <point x="166" y="564" type="curve" smooth="yes"/>
      <point x="378" y="564" type="line"/>
      <point x="378" y="622" type="line"/>
      <point x="108" y="622" type="line" smooth="yes"/>
      <point x="52" y="622"/>
      <point x="29" y="593"/>
      <point x="29" y="545" type="curve" smooth="yes"/>
      <point x="29" y="433" type="line"/>
      <point x="137" y="433" type="line"/>
    </contour>
  </outline>
</glyph>
<glyph name="at" format="1">
  <advance width="1113"/>
  <unicode hex="0040"/>
  <outline>
    <contour>
      <point x="408" y="426" type="line"/>
      <point x="358" y="426"/>
      <point x="334" y="402"/>
      <point x="334" y="351" type="curve" smooth="yes"/>
      <point x="334" y="153" type="line" smooth="yes"/>
      <point x="334" y="102"/>
      <point x="358" y="78"/>
      <point x="408" y="78" type="curve" smooth="yes"/>
      <point x="598" y="78" type="line" smooth="yes"/>
      <point x="628" y="78"/>
      <point x="652" y="89"/>
      <point x="657" y="121" type="curve"/>
      <point x="657" y="59" type="line"/>
      <point x="962" y="59" type="line" smooth="yes"/>
      <point x="1013" y="59"/>
      <point x="1037" y="83"/>
      <point x="1037" y="134" type="curve" smooth="yes"/>
      <point x="1037" y="488" type="line" smooth="yes"/>
      <point x="1037" y="539"/>
      <point x="1013" y="563"/>
      <point x="962" y="563" type="curve" smooth="yes"/>
      <point x="161" y="563" type="line" smooth="yes"/>
      <point x="110" y="563"/>
      <point x="86" y="539"/>
      <point x="86" y="488" type="curve" smooth="yes"/>
      <point x="86" y="3" type="line" smooth="yes"/>
      <point x="86" y="-47"/>
      <point x="110" y="-72"/>
      <point x="161" y="-72" type="curve" smooth="yes"/>
      <point x="878" y="-72" type="line"/>
      <point x="878" y="-11" type="line"/>
      <point x="212" y="-11" type="line" smooth="yes"/>
      <point x="187" y="-11"/>
      <point x="182" y="-6"/>
      <point x="182" y="18" type="curve" smooth="yes"/>
      <point x="182" y="472" type="line" smooth="yes"/>
      <point x="182" y="497"/>
      <point x="187" y="502"/>
      <point x="212" y="502" type="curve" smooth="yes"/>
      <point x="913" y="502" type="line" smooth="yes"/>
      <point x="937" y="502"/>
      <point x="942" y="497"/>
      <point x="942" y="472" type="curve" smooth="yes"/>
      <point x="942" y="147" type="line" smooth="yes"/>
      <point x="942" y="123"/>
      <point x="937" y="118"/>
      <point x="913" y="118" type="curve" smooth="yes"/>
      <point x="746" y="118" type="line"/>
      <point x="746" y="426" type="line"/>
      <point x="650" y="426" type="line"/>
      <point x="650" y="395" type="line"/>
      <point x="643" y="416"/>
      <point x="623" y="426"/>
      <point x="598" y="426" type="curve" smooth="yes"/>
    </contour>
    <contour>
      <point x="430" y="338" type="line"/>
      <point x="430" y="362"/>
      <point x="434" y="367"/>
      <point x="459" y="367" type="curve" smooth="yes"/>
      <point x="618" y="367" type="line" smooth="yes"/>
      <point x="640" y="367"/>
      <point x="650" y="359"/>
      <point x="650" y="335" type="curve" smooth="yes"/>
      <point x="650" y="169" type="line" smooth="yes"/>
      <point x="650" y="145"/>
      <point x="640" y="137"/>
      <point x="618" y="137" type="curve" smooth="yes"/>
      <point x="459" y="137" type="line" smooth="yes"/>
      <point x="434" y="137"/>
      <point x="430" y="142"/>
      <point x="430" y="166" type="curve" smooth="yes"/>
    </contour>
  </outline>
</glyph>
<glyph name="A" format="1">
  <advance width="694"/>
  <unicode hex="0041"/>
  <outline>
    <contour>
      <point x="554" y="182" type="line"/>
      <point x="140" y="182" type="line"/>
      <point x="140" y="123" type="line"/>
      <point x="554" y="123" type="line"/>
    </contour>
    <contour>
      <point x="663" y="0" type="line"/>
      <point x="422" y="622" type="line"/>
      <point x="271" y="622" type="line"/>
      <point x="31" y="0" type="line"/>
      <point x="139" y="0" type="line"/>
      <point x="346" y="551" type="line"/>
      <point x="554" y="0" type="line"/>
    </contour>
  </outline>
</glyph>
<glyph name="B" format="1">
  <advance width="699"/>
  <unicode hex="0042"/>
  <outline>
    <contour>
      <point x="95" y="622" type="line"/>
      <point x="95" y="0" type="line"/>
      <point x="535" y="0" type="line" smooth="yes"/>
      <point x="588" y="0"/>
      <point x="614" y="26"/>
      <point x="614" y="79" type="curve" smooth="yes"/>
      <point x="614" y="257" type="line" smooth="yes"/>
      <point x="614" y="291"/>
      <point x="597" y="307"/>
      <point x="568" y="310" type="curve"/>
      <point x="597" y="312"/>
      <point x="614" y="332"/>
      <point x="614" y="366" type="curve" smooth="yes"/>
      <point x="614" y="543" type="line" smooth="yes"/>
      <point x="614" y="596"/>
      <point x="588" y="622"/>
      <point x="535" y="622" type="curve" smooth="yes"/>
    </contour>
    <contour>
      <point x="507" y="88" type="line"/>
      <point x="507" y="64"/>
      <point x="500" y="59"/>
      <point x="474" y="59" type="curve" smooth="yes"/>
      <point x="205" y="59" type="line"/>
      <point x="205" y="282" type="line"/>
      <point x="476" y="282" type="line" smooth="yes"/>
      <point x="502" y="282"/>
      <point x="507" y="277"/>
      <point x="507" y="251" type="curve" smooth="yes"/>
    </contour>
    <contour>
      <point x="507" y="372" type="line"/>
      <point x="507" y="346"/>
      <point x="502" y="341"/>
      <point x="476" y="341" type="curve" smooth="yes"/>
      <point x="205" y="341" type="line"/>
      <point x="205" y="563" type="line"/>
      <point x="476" y="563" type="line" smooth="yes"/>
      <point x="502" y="563"/>
      <point x="507" y="558"/>
      <point x="507" y="532" type="curve" smooth="yes"/>
    </contour>
  </outline>
</glyph>
<glyph name="C" format="1">
  <advance width="653"/>
  <unicode hex="0043"/>
  <outline>
    <contour>
      <point x="196" y="532" type="line"/>
      <point x="196" y="558"/>
      <point x="201" y="563"/>
      <point x="227" y="563" type="curve" smooth="yes"/>
      <point x="262" y="563" type="line"/>
      <point x="262" y="622" type="line"/>
      <point x="164" y="622" type="line" smooth="yes"/>
      <point x="111" y="622"/>
      <point x="85" y="596"/>
      <point x="85" y="543" type="curve" smooth="yes"/>
      <point x="85" y="79" type="line" smooth="yes"/>
      <point x="85" y="26"/>
      <point x="111" y="0"/>
      <point x="164" y="0" type="curve" smooth="yes"/>
      <point x="256" y="0" type="line"/>
      <point x="256" y="59" type="line"/>
      <point x="227" y="59" type="line" smooth="yes"/>
      <point x="201" y="59"/>
      <point x="196" y="64"/>
      <point x="196" y="90" type="curve" smooth="yes"/>
    </contour>
    <contour>
      <point x="485" y="410" type="line"/>
      <point x="595" y="410" type="line"/>
      <point x="595" y="543" type="line" smooth="yes"/>
      <point x="595" y="596"/>
      <point x="569" y="622"/>
      <point x="516" y="622" type="curve" smooth="yes"/>
      <point x="245" y="622" type="line"/>
      <point x="245" y="563" type="line"/>
      <point x="454" y="563" type="line" smooth="yes"/>
      <point x="480" y="563"/>
      <point x="485" y="558"/>
      <point x="485" y="532" type="curve" smooth="yes"/>
    </contour>
    <contour>
      <point x="485" y="90" type="line"/>
      <point x="485" y="64"/>
      <point x="480" y="59"/>
      <point x="454" y="59" type="curve" smooth="yes"/>
      <point x="245" y="59" type="line"/>
      <point x="245" y="0" type="line"/>
      <point x="516" y="0" type="line" smooth="yes"/>
      <point x="569" y="0"/>
      <point x="595" y="26"/>
      <point x="595" y="79" type="curve" smooth="yes"/>
      <point x="595" y="212" type="line"/>
      <point x="485" y="212" type="line"/>
    </contour>
  </outline>
</glyph>
<glyph name="D" format="1">
  <advance width="701"/>
  <unicode hex="0044"/>
  <outline>
    <contour>
      <point x="505" y="390" type="line"/>
      <point x="616" y="390" type="line"/>
      <point x="616" y="543" type="line" smooth="yes"/>
      <point x="616" y="596"/>
      <point x="590" y="622"/>
      <point x="537" y="622" type="curve" smooth="yes"/>
      <point x="144" y="622" type="line"/>
      <point x="144" y="563" type="line"/>
      <point x="474" y="563" type="line" smooth="yes"/>
      <point x="500" y="563"/>
      <point x="505" y="558"/>
      <point x="505" y="532" type="curve" smooth="yes"/>
    </contour>
    <contour>
      <point x="505" y="90" type="line"/>
      <point x="505" y="64"/>
      <point x="500" y="59"/>
      <point x="474" y="59" type="curve" smooth="yes"/>
      <point x="144" y="59" type="line"/>
      <point x="144" y="0" type="line"/>
      <point x="537" y="0" type="line" smooth="yes"/>
      <point x="590" y="0"/>
      <point x="616" y="26"/>
      <point x="616" y="79" type="curve" smooth="yes"/>
      <point x="616" y="411" type="line"/>
      <point x="505" y="411" type="line"/>
    </contour>
    <contour>
      <point x="95" y="622" type="line"/>
      <point x="95" y="0" type="line"/>
      <point x="205" y="0" type="line"/>
      <point x="205" y="622" type="line"/>
    </contour>
  </outline>
</glyph>
<glyph name="E" format="1">
  <advance width="594"/>
  <unicode hex="0045"/>
  <outline>
    <contour>
      <point x="95" y="622" type="line"/>
      <point x="95" y="0" type="line"/>
      <point x="207" y="0" type="line"/>
      <point x="207" y="622" type="line"/>
    </contour>
    <contour>
      <point x="493" y="348" type="line"/>
      <point x="153" y="348" type="line"/>
      <point x="153" y="289" type="line"/>
      <point x="493" y="289" type="line"/>
    </contour>
    <contour>
      <point x="534" y="622" type="line"/>
      <point x="149" y="622" type="line"/>
      <point x="149" y="563" type="line"/>
      <point x="534" y="563" type="line"/>
    </contour>
    <contour>
      <point x="548" y="59" type="line"/>
      <point x="149" y="59" type="line"/>
      <point x="149" y="0" type="line"/>
      <point x="548" y="0" type="line"/>
    </contour>
  </outline>
</glyph>
<glyph name="F" format="1">
  <advance width="564"/>
  <unicode hex="0046"/>
  <outline>
    <contour>
      <point x="95" y="622" type="line"/>
      <point x="95" y="0" type="line"/>
      <point x="207" y="0" type="line"/>
      <point x="207" y="622" type="line"/>
    </contour>
    <contour>
      <point x="496" y="324" type="line"/>
      <point x="153" y="324" type="line"/>
      <point x="153" y="265" type="line"/>
      <point x="496" y="265" type="line"/>
    </contour>
    <contour>
      <point x="535" y="622" type="line"/>
      <point x="149" y="622" type="line"/>
      <point x="149" y="563" type="line"/>
      <point x="535" y="563" type="line"/>
    </contour>
  </outline>
</glyph>
<glyph name="G" format="1">
  <advance width="672"/>
  <unicode hex="0047"/>
  <outline>
    <contour>
      <point x="196" y="532" type="line"/>
      <point x="196" y="558"/>
      <point x="201" y="563"/>
      <point x="227" y="563" type="curve" smooth="yes"/>
      <point x="262" y="563" type="line"/>
      <point x="262" y="622" type="line"/>
      <point x="164" y="622" type="line" smooth="yes"/>
      <point x="111" y="622"/>
      <point x="85" y="596"/>
      <point x="85" y="543" type="curve" smooth="yes"/>
      <point x="85" y="79" type="line" smooth="yes"/>
      <point x="85" y="26"/>
      <point x="111" y="0"/>
      <point x="164" y="0" type="curve" smooth="yes"/>
      <point x="256" y="0" type="line"/>
      <point x="256" y="59" type="line"/>
      <point x="227" y="59" type="line" smooth="yes"/>
      <point x="201" y="59"/>
      <point x="196" y="64"/>
      <point x="196" y="90" type="curve" smooth="yes"/>
    </contour>
    <contour>
      <point x="596" y="320" type="line"/>
      <point x="332" y="320" type="line"/>
      <point x="332" y="261" type="line"/>
      <point x="596" y="261" type="line"/>
    </contour>
    <contour>
      <point x="486" y="431" type="line"/>
      <point x="596" y="431" type="line"/>
      <point x="596" y="543" type="line" smooth="yes"/>
      <point x="596" y="596"/>
      <point x="570" y="622"/>
      <point x="517" y="622" type="curve" smooth="yes"/>
      <point x="245" y="622" type="line"/>
      <point x="245" y="563" type="line"/>
      <point x="455" y="563" type="line" smooth="yes"/>
      <point x="481" y="563"/>
      <point x="486" y="558"/>
      <point x="486" y="532" type="curve" smooth="yes"/>
    </contour>
    <contour>
      <point x="487" y="90" type="line"/>
      <point x="487" y="64"/>
      <point x="482" y="59"/>
      <point x="456" y="59" type="curve" smooth="yes"/>
      <point x="246" y="59" type="line"/>
      <point x="246" y="0" type="line"/>
      <point x="517" y="0" type="line" smooth="yes"/>
      <point x="570" y="0"/>
      <point x="596" y="26"/>
      <point x="596" y="79" type="curve" smooth="yes"/>
      <point x="596" y="278" type="line"/>
      <point x="487" y="278" type="line"/>
    </contour>
  </outline>
</glyph>
<glyph name="H" format="1">
  <advance width="749"/>
  <unicode hex="0048"/>
  <outline>
    <contour>
      <point x="578" y="341" type="line"/>
      <point x="173" y="341" type="line"/>
      <point x="173" y="282" type="line"/>
      <point x="578" y="282" type="line"/>
    </contour>
    <contour>
      <point x="95" y="622" type="line"/>
      <point x="95" y="0" type="line"/>
      <point x="205" y="0" type="line"/>
      <point x="205" y="622" type="line"/>
    </contour>
    <contour>
      <point x="544" y="622" type="line"/>
      <point x="544" y="0" type="line"/>
      <point x="655" y="0" type="line"/>
      <point x="655" y="622" type="line"/>
    </contour>
  </outline>
</glyph>
<glyph name="I" format="1">
  <advance width="320"/>
  <unicode hex="0049"/>
  <outline>
    <contour>
      <point x="104" y="622" type="line"/>
      <point x="104" y="0" type="line"/>
      <point x="216" y="0" type="line"/>
      <point x="216" y="622" type="line"/>
    </contour>
  </outline>
</glyph>
<glyph name="J" format="1">
  <advance width="600"/>
  <unicode hex="004A"/>
  <outline>
    <contour>
      <point x="37" y="222" type="line"/>
      <point x="37" y="79" type="line" smooth="yes"/>
      <point x="37" y="26"/>
      <point x="63" y="0"/>
      <point x="116" y="0" type="curve" smooth="yes"/>
      <point x="436" y="0" type="line" smooth="yes"/>
      <point x="489" y="0"/>
      <point x="515" y="26"/>
      <point x="515" y="79" type="curve" smooth="yes"/>
      <point x="515" y="622" type="line"/>
      <point x="404" y="622" type="line"/>
      <point x="404" y="90" type="line" smooth="yes"/>
      <point x="404" y="64"/>
      <point x="399" y="59"/>
      <point x="373" y="59" type="curve" smooth="yes"/>
      <point x="179" y="59" type="line" smooth="yes"/>
      <point x="153" y="59"/>
      <point x="148" y="64"/>
      <point x="148" y="90" type="curve" smooth="yes"/>
      <point x="148" y="222" type="line"/>
    </contour>
  </outline>
</glyph>
<glyph name="K" format="1">
  <advance width="679"/>
  <unicode hex="004B"/>
  <outline>
    <contour>
      <point x="517" y="622" type="line"/>
      <point x="226" y="318" type="line"/>
      <point x="526" y="0" type="line"/>
      <point x="658" y="0" type="line"/>
      <point x="353" y="318" type="line"/>
      <point x="646" y="622" type="line"/>
    </contour>
    <contour>
      <point x="95" y="622" type="line"/>
      <point x="95" y="0" type="line"/>
      <point x="202" y="0" type="line"/>
      <point x="202" y="622" type="line"/>
    </contour>
  </outline>
</glyph>
<glyph name="L" format="1">
  <advance width="547"/>
  <unicode hex="004C"/>
  <outline>
    <contour>
      <point x="95" y="622" type="line"/>
      <point x="95" y="0" type="line"/>
      <point x="204" y="0" type="line"/>
      <point x="204" y="622" type="line"/>
    </contour>
    <contour>
      <point x="145" y="0" type="line"/>
      <point x="520" y="0" type="line"/>
      <point x="520" y="59" type="line"/>
      <point x="145" y="59" type="line"/>
    </contour>
  </outline>
</glyph>
<glyph name="M" format="1">
  <advance width="874"/>
  <unicode hex="004D"/>
  <outline>
    <contour>
      <point x="478" y="135" type="line"/>
      <point x="683" y="497" type="line"/>
      <point x="683" y="0" type="line"/>
      <point x="780" y="0" type="line"/>
      <point x="780" y="622" type="line"/>
      <point x="661" y="622" type="line"/>
      <point x="433" y="218" type="line"/>
      <point x="213" y="622" type="line"/>
      <point x="95" y="622" type="line"/>
      <point x="95" y="0" type="line"/>
      <point x="191" y="0" type="line"/>
      <point x="191" y="497" type="line"/>
      <point x="389" y="135" type="line"/>
    </contour>
  </outline>
</glyph>
<glyph name="N" format="1">
  <advance width="724"/>
  <unicode hex="004E"/>
  <outline>
    <contour>
      <point x="529" y="622" type="line"/>
      <point x="529" y="123" type="line"/>
      <point x="204" y="622" type="line"/>
      <point x="95" y="622" type="line"/>
      <point x="95" y="0" type="line"/>
      <point x="196" y="0" type="line"/>
      <point x="196" y="503" type="line"/>
      <point x="525" y="0" type="line"/>
      <point x="630" y="0" type="line"/>
      <point x="630" y="622" type="line"/>
    </contour>
  </outline>
</glyph>
<glyph name="O" format="1">
  <advance width="674"/>
  <unicode hex="004F"/>
  <outline>
    <contour>
      <point x="589" y="543" type="line"/>
      <point x="589" y="596"/>
      <point x="563" y="622"/>
      <point x="510" y="622" type="curve" smooth="yes"/>
      <point x="164" y="622" type="line" smooth="yes"/>
      <point x="111" y="622"/>
      <point x="85" y="596"/>
      <point x="85" y="543" type="curve" smooth="yes"/>
      <point x="85" y="79" type="line" smooth="yes"/>
      <point x="85" y="26"/>
      <point x="111" y="0"/>
      <point x="164" y="0" type="curve" smooth="yes"/>
      <point x="510" y="0" type="line" smooth="yes"/>
      <point x="563" y="0"/>
      <point x="589" y="26"/>
      <point x="589" y="79" type="curve" smooth="yes"/>
    </contour>
    <contour>
      <point x="480" y="90" type="line"/>
      <point x="480" y="64"/>
      <point x="475" y="59"/>
      <point x="449" y="59" type="curve" smooth="yes"/>
      <point x="226" y="59" type="line" smooth="yes"/>
      <point x="200" y="59"/>
      <point x="195" y="64"/>
      <point x="195" y="90" type="curve" smooth="yes"/>
      <point x="195" y="532" type="line" smooth="yes"/>
      <point x="195" y="558"/>
      <point x="200" y="563"/>
      <point x="226" y="563" type="curve" smooth="yes"/>
      <point x="449" y="563" type="line" smooth="yes"/>
      <point x="475" y="563"/>
      <point x="480" y="558"/>
      <point x="480" y="532" type="curve" smooth="yes"/>
    </contour>
  </outline>
</glyph>
<glyph name="P" format="1">
  <advance width="673"/>
  <unicode hex="0050"/>
  <outline>
    <contour>
      <point x="508" y="293" type="line"/>
      <point x="508" y="267"/>
      <point x="503" y="262"/>
      <point x="477" y="262" type="curve" smooth="yes"/>
      <point x="145" y="262" type="line"/>
      <point x="145" y="203" type="line"/>
      <point x="538" y="203" type="line" smooth="yes"/>
      <point x="591" y="203"/>
      <point x="617" y="229"/>
      <point x="617" y="282" type="curve" smooth="yes"/>
      <point x="617" y="543" type="line" smooth="yes"/>
      <point x="617" y="596"/>
      <point x="591" y="622"/>
      <point x="538" y="622" type="curve" smooth="yes"/>
      <point x="113" y="622" type="line"/>
      <point x="113" y="563" type="line"/>
      <point x="477" y="563" type="line" smooth="yes"/>
      <point x="503" y="563"/>
      <point x="508" y="558"/>
      <point x="508" y="532" type="curve" smooth="yes"/>
    </contour>
    <contour>
      <point x="95" y="622" type="line"/>
      <point x="95" y="0" type="line"/>
      <point x="204" y="0" type="line"/>
      <point x="204" y="622" type="line"/>
    </contour>
  </outline>
</glyph>
<glyph name="Q" format="1">
  <advance width="640"/>
  <unicode hex="0051"/>
  <outline>
    <contour>
      <point x="281" y="41" type="line"/>
      <point x="441" y="-97" type="line"/>
      <point x="573" y="-97" type="line"/>
      <point x="407" y="41" type="line"/>
    </contour>
    <contour>
      <point x="572" y="543" type="line"/>
      <point x="572" y="596"/>
      <point x="546" y="622"/>
      <point x="493" y="622" type="curve" smooth="yes"/>
      <point x="147" y="622" type="line" smooth="yes"/>
      <point x="94" y="622"/>
      <point x="68" y="596"/>
      <point x="68" y="543" type="curve" smooth="yes"/>
      <point x="68" y="79" type="line" smooth="yes"/>
      <point x="68" y="26"/>
      <point x="94" y="0"/>
      <point x="147" y="0" type="curve" smooth="yes"/>
      <point x="493" y="0" type="line" smooth="yes"/>
      <point x="546" y="0"/>
      <point x="572" y="26"/>
      <point x="572" y="79" type="curve" smooth="yes"/>
    </contour>
    <contour>
      <point x="464" y="90" type="line"/>
      <point x="464" y="64"/>
      <point x="459" y="59"/>
      <point x="433" y="59" type="curve" smooth="yes"/>
      <point x="208" y="59" type="line" smooth="yes"/>
      <point x="182" y="59"/>
      <point x="177" y="64"/>
      <point x="177" y="90" type="curve" smooth="yes"/>
      <point x="177" y="532" type="line" smooth="yes"/>
      <point x="177" y="558"/>
      <point x="182" y="563"/>
      <point x="208" y="563" type="curve" smooth="yes"/>
      <point x="433" y="563" type="line" smooth="yes"/>
      <point x="459" y="563"/>
      <point x="464" y="558"/>
      <point x="464" y="532" type="curve" smooth="yes"/>
    </contour>
  </outline>
</glyph>
<glyph name="R" format="1">
  <advance width="693"/>
  <unicode hex="0052"/>
  <outline>
    <contour>
      <point x="509" y="313" type="line"/>
      <point x="509" y="287"/>
      <point x="504" y="282"/>
      <point x="478" y="282" type="curve" smooth="yes"/>
      <point x="145" y="282" type="line"/>
      <point x="145" y="223" type="line"/>
      <point x="539" y="223" type="line" smooth="yes"/>
      <point x="592" y="223"/>
      <point x="618" y="249"/>
      <point x="618" y="302" type="curve" smooth="yes"/>
      <point x="618" y="543" type="line" smooth="yes"/>
      <point x="618" y="596"/>
      <point x="592" y="622"/>
      <point x="539" y="622" type="curve" smooth="yes"/>
      <point x="113" y="622" type="line"/>
      <point x="113" y="563" type="line"/>
      <point x="478" y="563" type="line" smooth="yes"/>
      <point x="504" y="563"/>
      <point x="509" y="558"/>
      <point x="509" y="532" type="curve" smooth="yes"/>
    </contour>
    <contour>
      <point x="95" y="622" type="line"/>
      <point x="95" y="0" type="line"/>
      <point x="204" y="0" type="line"/>
      <point x="204" y="622" type="line"/>
    </contour>
    <contour>
      <point x="357" y="247" type="line"/>
      <point x="509" y="0" type="line"/>
      <point x="623" y="0" type="line"/>
      <point x="467" y="247" type="line"/>
    </contour>
  </outline>
</glyph>
<glyph name="S" format="1">
  <advance width="654"/>
  <unicode hex="0053"/>
  <outline>
    <contour>
      <point x="470" y="90" type="line"/>
      <point x="470" y="64"/>
      <point x="465" y="59"/>
      <point x="439" y="59" type="curve" smooth="yes"/>
      <point x="218" y="59" type="line" smooth="yes"/>
      <point x="192" y="59"/>
      <point x="187" y="64"/>
      <point x="187" y="90" type="curve" smooth="yes"/>
      <point x="187" y="182" type="line"/>
      <point x="77" y="182" type="line"/>
      <point x="77" y="79" type="line" smooth="yes"/>
      <point x="77" y="26"/>
      <point x="103" y="0"/>
      <point x="156" y="0" type="curve" smooth="yes"/>
      <point x="500" y="0" type="line" smooth="yes"/>
      <point x="553" y="0"/>
      <point x="579" y="26"/>
      <point x="579" y="79" type="curve" smooth="yes"/>
      <point x="579" y="264" type="line" smooth="yes"/>
      <point x="579" y="317"/>
      <point x="553" y="343"/>
      <point x="500" y="343" type="curve" smooth="yes"/>
      <point x="216" y="343" type="line" smooth="yes"/>
      <point x="190" y="343"/>
      <point x="185" y="348"/>
      <point x="185" y="374" type="curve" smooth="yes"/>
      <point x="185" y="532" type="line" smooth="yes"/>
      <point x="185" y="558"/>
      <point x="190" y="563"/>
      <point x="216" y="563" type="curve" smooth="yes"/>
      <point x="435" y="563" type="line" smooth="yes"/>
      <point x="461" y="563"/>
      <point x="466" y="558"/>
      <point x="466" y="532" type="curve" smooth="yes"/>
      <point x="466" y="440" type="line"/>
      <point x="576" y="440" type="line"/>
      <point x="576" y="543" type="line" smooth="yes"/>
      <point x="576" y="596"/>
      <point x="550" y="622"/>
      <point x="497" y="622" type="curve" smooth="yes"/>
      <point x="154" y="622" type="line" smooth="yes"/>
      <point x="101" y="622"/>
      <point x="75" y="596"/>
      <point x="75" y="543" type="curve" smooth="yes"/>
      <point x="75" y="363" type="line" smooth="yes"/>
      <point x="75" y="310"/>
      <point x="101" y="284"/>
      <point x="154" y="284" type="curve" smooth="yes"/>
      <point x="439" y="284" type="line" smooth="yes"/>
      <point x="465" y="284"/>
      <point x="470" y="279"/>
      <point x="470" y="253" type="curve" smooth="yes"/>
    </contour>
  </outline>
</glyph>
<glyph name="T" format="1">
  <advance width="570"/>
  <unicode hex="0054"/>
  <outline>
    <contour>
      <point x="230" y="611" type="line"/>
      <point x="230" y="0" type="line"/>
      <point x="340" y="0" type="line"/>
      <point x="340" y="611" type="line"/>
    </contour>
    <contour>
      <point x="561" y="622" type="line"/>
      <point x="9" y="622" type="line"/>
      <point x="9" y="563" type="line"/>
      <point x="561" y="563" type="line"/>
    </contour>
  </outline>
</glyph>
<glyph name="U" format="1">
  <advance width="690"/>
  <unicode hex="0055"/>
  <outline>
    <contour>
      <point x="195" y="622" type="line"/>
      <point x="85" y="622" type="line"/>
      <point x="85" y="79" type="line" smooth="yes"/>
      <point x="85" y="26"/>
      <point x="111" y="0"/>
      <point x="164" y="0" type="curve" smooth="yes"/>
      <point x="525" y="0" type="line" smooth="yes"/>
      <point x="578" y="0"/>
      <point x="604" y="26"/>
      <point x="604" y="79" type="curve" smooth="yes"/>
      <point x="604" y="622" type="line"/>
      <point x="496" y="622" type="line"/>
      <point x="496" y="90" type="line" smooth="yes"/>
      <point x="496" y="64"/>
      <point x="491" y="59"/>
      <point x="465" y="59" type="curve" smooth="yes"/>
      <point x="226" y="59" type="line" smooth="yes"/>
      <point x="200" y="59"/>
      <point x="195" y="64"/>
      <point x="195" y="90" type="curve" smooth="yes"/>
    </contour>
  </outline>
</glyph>
<glyph name="V" format="1">
  <advance width="695"/>
  <unicode hex="0056"/>
  <outline>
    <contour>
      <point x="552" y="622" type="line"/>
      <point x="347" y="74" type="line"/>
      <point x="144" y="622" type="line"/>
      <point x="33" y="622" type="line"/>
      <point x="273" y="0" type="line"/>
      <point x="421" y="0" type="line"/>
      <point x="662" y="622" type="line"/>
    </contour>
  </outline>
</glyph>
<glyph name="W" format="1">
  <advance width="1064"/>
  <unicode hex="0057"/>
  <outline>
    <contour>
      <point x="922" y="622" type="line"/>
      <point x="746" y="77" type="line"/>
      <point x="590" y="622" type="line"/>
      <point x="473" y="622" type="line"/>
      <point x="315" y="77" type="line"/>
      <point x="145" y="622" type="line"/>
      <point x="34" y="622" type="line"/>
      <point x="243" y="0" type="line"/>
      <point x="386" y="0" type="line"/>
      <point x="531" y="501" type="line"/>
      <point x="676" y="0" type="line"/>
      <point x="820" y="0" type="line"/>
      <point x="1030" y="622" type="line"/>
    </contour>
  </outline>
</glyph>
<glyph name="X" format="1">
  <advance width="676"/>
  <unicode hex="0058"/>
  <outline>
    <contour>
      <point x="401" y="320" type="line"/>
      <point x="631" y="622" type="line"/>
      <point x="513" y="622" type="line"/>
      <point x="338" y="387" type="line"/>
      <point x="161" y="622" type="line"/>
      <point x="40" y="622" type="line"/>
      <point x="275" y="316" type="line"/>
      <point x="30" y="0" type="line"/>
      <point x="148" y="0" type="line"/>
      <point x="338" y="249" type="line"/>
      <point x="525" y="0" type="line"/>
      <point x="646" y="0" type="line"/>
    </contour>
  </outline>
</glyph>
<glyph name="Y" format="1">
  <advance width="645"/>
  <unicode hex="0059"/>
  <outline>
    <contour>
      <point x="378" y="195" type="line"/>
      <point x="636" y="622" type="line"/>
      <point x="526" y="622" type="line"/>
      <point x="327" y="281" type="line"/>
      <point x="119" y="622" type="line"/>
      <point x="8" y="622" type="line"/>
      <point x="278" y="195" type="line"/>
    </contour>
    <contour>
      <point x="273" y="246" type="line"/>
      <point x="273" y="0" type="line"/>
      <point x="383" y="0" type="line"/>
      <point x="383" y="246" type="line"/>
    </contour>
  </outline>
</glyph>
<glyph name="Z" format="1">
  <advance width="632"/>
  <unicode hex="005A"/>
  <outline>
    <contour>
      <point x="576" y="622" type="line"/>
      <point x="67" y="622" type="line"/>
      <point x="67" y="563" type="line"/>
      <point x="576" y="563" type="line"/>
    </contour>
    <contour>
      <point x="451" y="563" type="line"/>
      <point x="56" y="59" type="line"/>
      <point x="181" y="59" type="line"/>
      <point x="576" y="563" type="line"/>
    </contour>
    <contour>
      <point x="566" y="59" type="line"/>
      <point x="56" y="59" type="line"/>
      <point x="56" y="0" type="line"/>
      <point x="566" y="0" type="line"/>
    </contour>
  </outline>
</glyph>
<glyph name="bracketleft" format="1">
  <advance width="328"/>
  <unicode hex="005B"/>
  <outline>
    <contour>
      <point x="143" y="661" type="line"/>
      <point x="367" y="661" type="line"/>
      <point x="367" y="720" type="line"/>
      <point x="143" y="720" type="line"/>
    </contour>
    <contour>
      <point x="94" y="720" type="line"/>
      <point x="94" y="-220" type="line"/>
      <point x="204" y="-220" type="line"/>
      <point x="204" y="720" type="line"/>
    </contour>
    <contour>
      <point x="135" y="-220" type="line"/>
      <point x="367" y="-220" type="line"/>
      <point x="367" y="-161" type="line"/>
      <point x="135" y="-161" type="line"/>
    </contour>
  </outline>
</glyph>
<glyph name="backslash" format="1">
  <advance width="399"/>
  <unicode hex="005C"/>
  <outline>
    <contour>
      <point x="-87" y="699" type="line"/>
      <point x="327" y="-136" type="line"/>
      <point x="430" y="-136" type="line"/>
      <point x="16" y="699" type="line"/>
    </contour>
  </outline>
</glyph>
<glyph name="bracketright" format="1">
  <advance width="328"/>
  <unicode hex="005D"/>
  <outline>
    <contour>
      <point x="185" y="720" type="line"/>
      <point x="-39" y="720" type="line"/>
      <point x="-39" y="661" type="line"/>
      <point x="185" y="661" type="line"/>
    </contour>
    <contour>
      <point x="124" y="720" type="line"/>
      <point x="124" y="-220" type="line"/>
      <point x="234" y="-220" type="line"/>
      <point x="234" y="720" type="line"/>
    </contour>
    <contour>
      <point x="193" y="-161" type="line"/>
      <point x="-39" y="-161" type="line"/>
      <point x="-39" y="-220" type="line"/>
      <point x="193" y="-220" type="line"/>
    </contour>
  </outline>
</glyph>
<glyph name="asciicircum" format="1">
  <advance width="648"/>
  <unicode hex="005E"/>
  <outline>
    <contour>
      <point x="260" y="668" type="line"/>
      <point x="51" y="328" type="line"/>
      <point x="158" y="328" type="line"/>
      <point x="325" y="602" type="line"/>
      <point x="490" y="328" type="line"/>
      <point x="598" y="328" type="line"/>
      <point x="388" y="668" type="line"/>
    </contour>
  </outline>
</glyph>
<glyph name="underscore" format="1">
  <advance width="589"/>
  <unicode hex="005F"/>
  <outline>
    <contour>
      <point x="1" y="-59" type="line"/>
      <point x="587" y="-59" type="line"/>
      <point x="587" y="0" type="line"/>
      <point x="1" y="0" type="line"/>
    </contour>
  </outline>
</glyph>
<glyph name="grave" format="1">
  <advance width="468"/>
  <unicode hex="0060"/>
  <outline>
    <contour>
      <point x="294" y="651" type="line"/>
      <point x="168" y="651" type="line"/>
      <point x="332" y="506" type="line"/>
      <point x="434" y="506" type="line"/>
    </contour>
  </outline>
</glyph>
<glyph name="c" format="1">
  <advance width="595"/>
  <unicode hex="0063"/>
  <outline>
    <contour>
      <point x="183" y="395" type="line"/>
      <point x="183" y="421"/>
      <point x="188" y="426"/>
      <point x="214" y="426" type="curve" smooth="yes"/>
      <point x="384" y="426" type="line"/>
      <point x="384" y="485" type="line"/>
      <point x="155" y="485" type="line" smooth="yes"/>
      <point x="102" y="485"/>
      <point x="76" y="459"/>
      <point x="76" y="406" type="curve" smooth="yes"/>
      <point x="76" y="79" type="line" smooth="yes"/>
      <point x="76" y="26"/>
      <point x="102" y="0"/>
      <point x="155" y="0" type="curve" smooth="yes"/>
      <point x="378" y="0" type="line"/>
      <point x="378" y="59" type="line"/>
      <point x="214" y="59" type="line" smooth="yes"/>
      <point x="188" y="59"/>
      <point x="183" y="64"/>
      <point x="183" y="90" type="curve" smooth="yes"/>
    </contour>
    <contour>
      <point x="432" y="324" type="line"/>
      <point x="538" y="324" type="line"/>
      <point x="538" y="406" type="line" smooth="yes"/>
      <point x="538" y="459"/>
      <point x="512" y="485"/>
      <point x="459" y="485" type="curve" smooth="yes"/>
      <point x="229" y="485" type="line"/>
      <point x="229" y="426" type="line"/>
      <point x="401" y="426" type="line" smooth="yes"/>
      <point x="427" y="426"/>
      <point x="432" y="421"/>
      <point x="432" y="395" type="curve" smooth="yes"/>
    </contour>
    <contour>
      <point x="432" y="90" type="line"/>
      <point x="432" y="64"/>
      <point x="427" y="59"/>
      <point x="401" y="59" type="curve" smooth="yes"/>
      <point x="229" y="59" type="line"/>
      <point x="229" y="0" type="line"/>
      <point x="459" y="0" type="line" smooth="yes"/>
      <point x="512" y="0"/>
      <point x="538" y="26"/>
      <point x="538" y="79" type="curve" smooth="yes"/>
      <point x="538" y="161" type="line"/>
      <point x="432" y="161" type="line"/>
    </contour>
  </outline>
</glyph>
<glyph name="d" format="1">
  <advance width="634"/>
  <unicode hex="0064"/>
  <outline>
    <contour>
      <point x="183" y="227" type="line"/>
      <point x="183" y="395" type="line" smooth="yes"/>
      <point x="183" y="421"/>
      <point x="188" y="426"/>
      <point x="214" y="426" type="curve" smooth="yes"/>
      <point x="408" y="426" type="line" smooth="yes"/>
      <point x="432" y="426"/>
      <point x="442" y="417"/>
      <point x="442" y="392" type="curve" smooth="yes"/>
      <point x="442" y="359" type="line"/>
      <point x="448" y="359" type="line"/>
      <point x="448" y="417" type="line" smooth="yes"/>
      <point x="448" y="465"/>
      <point x="428" y="485"/>
      <point x="387" y="485" type="curve" smooth="yes"/>
      <point x="155" y="485" type="line" smooth="yes"/>
      <point x="102" y="485"/>
      <point x="76" y="459"/>
      <point x="76" y="406" type="curve" smooth="yes"/>
      <point x="76" y="227" type="line"/>
    </contour>
    <contour>
      <point x="442" y="669" type="line"/>
      <point x="442" y="0" type="line"/>
      <point x="549" y="0" type="line"/>
      <point x="549" y="669" type="line"/>
    </contour>
    <contour>
      <point x="76" y="260" type="line"/>
      <point x="76" y="79" type="line" smooth="yes"/>
      <point x="76" y="26"/>
      <point x="102" y="0"/>
      <point x="155" y="0" type="curve" smooth="yes"/>
      <point x="387" y="0" type="line" smooth="yes"/>
      <point x="428" y="0"/>
      <point x="448" y="20"/>
      <point x="448" y="68" type="curve" smooth="yes"/>
      <point x="448" y="117" type="line"/>
      <point x="442" y="117" type="line"/>
      <point x="442" y="93" type="line" smooth="yes"/>
      <point x="442" y="68"/>
      <point x="432" y="59"/>
      <point x="408" y="59" type="curve" smooth="yes"/>
      <point x="214" y="59" type="line" smooth="yes"/>
      <point x="188" y="59"/>
      <point x="183" y="64"/>
      <point x="183" y="90" type="curve" smooth="yes"/>
      <point x="183" y="260" type="line"/>
    </contour>
  </outline>
</glyph>
<glyph name="e" format="1">
  <advance width="626"/>
  <unicode hex="0065"/>
  <outline>
    <contour>
      <point x="183" y="395" type="line"/>
      <point x="183" y="421"/>
      <point x="188" y="426"/>
      <point x="214" y="426" type="curve" smooth="yes"/>
      <point x="405" y="426" type="line"/>
      <point x="405" y="485" type="line"/>
      <point x="155" y="485" type="line" smooth="yes"/>
      <point x="102" y="485"/>
      <point x="76" y="459"/>
      <point x="76" y="406" type="curve" smooth="yes"/>
      <point x="76" y="79" type="line" smooth="yes"/>
      <point x="76" y="26"/>
      <point x="102" y="0"/>
      <point x="155" y="0" type="curve" smooth="yes"/>
      <point x="398" y="0" type="line"/>
      <point x="398" y="59" type="line"/>
      <point x="214" y="59" type="line" smooth="yes"/>
      <point x="188" y="59"/>
      <point x="183" y="64"/>
      <point x="183" y="90" type="curve" smooth="yes"/>
    </contour>
    <contour>
      <point x="454" y="235" type="line"/>
      <point x="559" y="235" type="line"/>
      <point x="559" y="406" type="line" smooth="yes"/>
      <point x="559" y="459"/>
      <point x="533" y="485"/>
      <point x="480" y="485" type="curve" smooth="yes"/>
      <point x="232" y="485" type="line"/>
      <point x="232" y="426" type="line"/>
      <point x="423" y="426" type="line" smooth="yes"/>
      <point x="449" y="426"/>
      <point x="454" y="421"/>
      <point x="454" y="395" type="curve" smooth="yes"/>
    </contour>
    <contour>
      <point x="452" y="90" type="line"/>
      <point x="452" y="64"/>
      <point x="447" y="59"/>
      <point x="421" y="59" type="curve" smooth="yes"/>
      <point x="232" y="59" type="line"/>
      <point x="232" y="0" type="line"/>
      <point x="478" y="0" type="line" smooth="yes"/>
      <point x="531" y="0"/>
      <point x="557" y="26"/>
      <point x="557" y="79" type="curve" smooth="yes"/>
      <point x="557" y="141" type="line"/>
      <point x="452" y="141" type="line"/>
    </contour>
    <contour>
      <point x="559" y="278" type="line"/>
      <point x="126" y="278" type="line"/>
      <point x="126" y="219" type="line"/>
      <point x="559" y="219" type="line"/>
    </contour>
  </outline>
</glyph>
<glyph name="f" format="1">
  <advance width="381"/>
  <unicode hex="0066"/>
  <outline>
    <contour>
      <point x="232" y="576" type="line"/>
      <point x="232" y="602"/>
      <point x="237" y="607"/>
      <point x="263" y="607" type="curve" smooth="yes"/>
      <point x="371" y="607" type="line"/>
      <point x="371" y="669" type="line"/>
      <point x="204" y="669" type="line" smooth="yes"/>
      <point x="151" y="669"/>
      <point x="125" y="643"/>
      <point x="125" y="590" type="curve" smooth="yes"/>
      <point x="125" y="0" type="line"/>
      <point x="232" y="0" type="line"/>
    </contour>
    <contour>
      <point x="371" y="485" type="line"/>
      <point x="53" y="485" type="line"/>
      <point x="53" y="426" type="line"/>
      <point x="371" y="426" type="line"/>
    </contour>
  </outline>
</glyph>
<glyph name="h" format="1">
  <advance width="635"/>
  <unicode hex="0068"/>
  <outline>
    <contour>
      <point x="559" y="0" type="line"/>
      <point x="559" y="406" type="line" smooth="yes"/>
      <point x="559" y="459"/>
      <point x="533" y="485"/>
      <point x="480" y="485" type="curve" smooth="yes"/>
      <point x="248" y="485" type="line" smooth="yes"/>
      <point x="207" y="485"/>
      <point x="187" y="465"/>
      <point x="187" y="417" type="curve" smooth="yes"/>
      <point x="187" y="361" type="line"/>
      <point x="193" y="361" type="line"/>
      <point x="193" y="392" type="line" smooth="yes"/>
      <point x="193" y="417"/>
      <point x="203" y="426"/>
      <point x="227" y="426" type="curve" smooth="yes"/>
      <point x="422" y="426" type="line" smooth="yes"/>
      <point x="448" y="426"/>
      <point x="453" y="421"/>
      <point x="453" y="395" type="curve" smooth="yes"/>
      <point x="453" y="0" type="line"/>
    </contour>
    <contour>
      <point x="192" y="0" type="line"/>
      <point x="192" y="669" type="line"/>
      <point x="85" y="669" type="line"/>
      <point x="85" y="0" type="line"/>
    </contour>
  </outline>
</glyph>
<glyph name="i" format="1">
  <advance width="295"/>
  <unicode hex="0069"/>
  <outline>
    <contour>
      <point x="201" y="0" type="line"/>
      <point x="201" y="485" type="line"/>
      <point x="94" y="485" type="line"/>
      <point x="94" y="0" type="line"/>
    </contour>
    <contour>
      <point x="92" y="578" type="line"/>
      <point x="204" y="578" type="line"/>
      <point x="204" y="670" type="line"/>
      <point x="92" y="670" type="line"/>
    </contour>
  </outline>
</glyph>
<glyph name="j" format="1">
  <advance width="287"/>
  <unicode hex="006A"/>
  <outline>
    <contour>
      <point x="94" y="-51" type="line"/>
      <point x="94" y="-77"/>
      <point x="89" y="-82"/>
      <point x="63" y="-82" type="curve" smooth="yes"/>
      <point x="-38" y="-82" type="line"/>
      <point x="-38" y="-141" type="line"/>
      <point x="123" y="-141" type="line" smooth="yes"/>
      <point x="176" y="-141"/>
      <point x="202" y="-115"/>
      <point x="202" y="-62" type="curve" smooth="yes"/>
      <point x="202" y="485" type="line"/>
      <point x="94" y="485" type="line"/>
    </contour>
    <contour>
      <point x="92" y="578" type="line"/>
      <point x="204" y="578" type="line"/>
      <point x="204" y="670" type="line"/>
      <point x="92" y="670" type="line"/>
    </contour>
  </outline>
</glyph>
<glyph name="k" format="1">
  <advance width="614"/>
  <unicode hex="006B"/>
  <outline>
    <contour>
      <point x="192" y="0" type="line"/>
      <point x="192" y="669" type="line"/>
      <point x="85" y="669" type="line"/>
      <point x="85" y="0" type="line"/>
    </contour>
    <contour>
      <point x="218" y="245" type="line"/>
      <point x="462" y="0" type="line"/>
      <point x="593" y="0" type="line"/>
      <point x="344" y="245" type="line"/>
    </contour>
    <contour>
      <point x="344" y="245" type="line"/>
      <point x="593" y="485" type="line"/>
      <point x="463" y="485" type="line"/>
      <point x="218" y="245" type="line"/>
    </contour>
  </outline>
</glyph>
<glyph name="o" format="1">
  <advance width="628"/>
  <unicode hex="006F"/>
  <outline>
    <contour>
      <point x="446" y="90" type="line"/>
      <point x="446" y="64"/>
      <point x="441" y="59"/>
      <point x="415" y="59" type="curve" smooth="yes"/>
      <point x="232" y="59" type="line"/>
      <point x="232" y="0" type="line"/>
      <point x="473" y="0" type="line" smooth="yes"/>
      <point x="526" y="0"/>
      <point x="552" y="26"/>
      <point x="552" y="79" type="curve" smooth="yes"/>
      <point x="552" y="406" type="line" smooth="yes"/>
      <point x="552" y="459"/>
      <point x="526" y="485"/>
      <point x="473" y="485" type="curve" smooth="yes"/>
      <point x="383" y="485" type="line"/>
      <point x="383" y="426" type="line"/>
      <point x="415" y="426" type="line" smooth="yes"/>
      <point x="441" y="426"/>
      <point x="446" y="421"/>
      <point x="446" y="395" type="curve" smooth="yes"/>
    </contour>
    <contour>
      <point x="182" y="395" type="line"/>
      <point x="182" y="421"/>
      <point x="187" y="426"/>
      <point x="213" y="426" type="curve" smooth="yes"/>
      <point x="389" y="426" type="line"/>
      <point x="389" y="485" type="line"/>
      <point x="155" y="485" type="line" smooth="yes"/>
      <point x="102" y="485"/>
      <point x="76" y="459"/>
      <point x="76" y="406" type="curve" smooth="yes"/>
      <point x="76" y="79" type="line" smooth="yes"/>
      <point x="76" y="26"/>
      <point x="102" y="0"/>
      <point x="155" y="0" type="curve" smooth="yes"/>
      <point x="386" y="0" type="line"/>
      <point x="386" y="59" type="line"/>
      <point x="213" y="59" type="line" smooth="yes"/>
      <point x="187" y="59"/>
      <point x="182" y="64"/>
      <point x="182" y="90" type="curve" smooth="yes"/>
    </contour>
  </outline>
</glyph>
<glyph name="p" format="1">
  <advance width="643"/>
  <unicode hex="0070"/>
  <outline>
    <contour>
      <point x="567" y="226" type="line"/>
      <point x="567" y="406" type="line" smooth="yes"/>
      <point x="567" y="459"/>
      <point x="541" y="485"/>
      <point x="488" y="485" type="curve" smooth="yes"/>
      <point x="247" y="485" type="line" smooth="yes"/>
      <point x="206" y="485"/>
      <point x="187" y="465"/>
      <point x="187" y="417" type="curve" smooth="yes"/>
      <point x="187" y="359" type="line"/>
      <point x="192" y="359" type="line"/>
      <point x="192" y="392" type="line" smooth="yes"/>
      <point x="192" y="417"/>
      <point x="202" y="426"/>
      <point x="227" y="426" type="curve" smooth="yes"/>
      <point x="429" y="426" type="line" smooth="yes"/>
      <point x="455" y="426"/>
      <point x="460" y="421"/>
      <point x="460" y="395" type="curve" smooth="yes"/>
      <point x="460" y="226" type="line"/>
    </contour>
    <contour>
      <point x="192" y="-141" type="line"/>
      <point x="192" y="417" type="line"/>
      <point x="191" y="426" type="line"/>
      <point x="191" y="485" type="line"/>
      <point x="85" y="485" type="line"/>
      <point x="85" y="-141" type="line"/>
    </contour>
    <contour>
      <point x="460" y="260" type="line"/>
      <point x="460" y="90" type="line" smooth="yes"/>
      <point x="460" y="64"/>
      <point x="455" y="59"/>
      <point x="429" y="59" type="curve" smooth="yes"/>
      <point x="227" y="59" type="line" smooth="yes"/>
      <point x="202" y="59"/>
      <point x="192" y="68"/>
      <point x="192" y="93" type="curve" smooth="yes"/>
      <point x="192" y="117" type="line"/>
      <point x="187" y="117" type="line"/>
      <point x="187" y="68" type="line" smooth="yes"/>
      <point x="187" y="20"/>
      <point x="206" y="0"/>
      <point x="247" y="0" type="curve" smooth="yes"/>
      <point x="488" y="0" type="line" smooth="yes"/>
      <point x="541" y="0"/>
      <point x="567" y="26"/>
      <point x="567" y="79" type="curve" smooth="yes"/>
      <point x="567" y="260" type="line"/>
    </contour>
  </outline>
</glyph>
<glyph name="q" format="1">
  <advance width="637"/>
  <unicode hex="0071"/>
  <outline>
    <contour>
      <point x="213" y="226" type="line"/>
      <point x="213" y="395" type="line" smooth="yes"/>
      <point x="213" y="421"/>
      <point x="218" y="426"/>
      <point x="244" y="426" type="curve" smooth="yes"/>
      <point x="447" y="426" type="line" smooth="yes"/>
      <point x="471" y="426"/>
      <point x="481" y="417"/>
      <point x="481" y="392" type="curve" smooth="yes"/>
      <point x="481" y="359" type="line"/>
      <point x="487" y="359" type="line"/>
      <point x="487" y="417" type="line" smooth="yes"/>
      <point x="487" y="465"/>
      <point x="467" y="485"/>
      <point x="426" y="485" type="curve" smooth="yes"/>
      <point x="185" y="485" type="line" smooth="yes"/>
      <point x="132" y="485"/>
      <point x="106" y="459"/>
      <point x="106" y="406" type="curve" smooth="yes"/>
      <point x="106" y="226" type="line"/>
    </contour>
    <contour>
      <point x="588" y="-141" type="line"/>
      <point x="588" y="485" type="line"/>
      <point x="482" y="485" type="line"/>
      <point x="482" y="426" type="line"/>
      <point x="481" y="417" type="line"/>
      <point x="481" y="-141" type="line"/>
    </contour>
    <contour>
      <point x="106" y="260" type="line"/>
      <point x="106" y="79" type="line" smooth="yes"/>
      <point x="106" y="26"/>
      <point x="132" y="0"/>
      <point x="185" y="0" type="curve" smooth="yes"/>
      <point x="426" y="0" type="line" smooth="yes"/>
      <point x="467" y="0"/>
      <point x="487" y="20"/>
      <point x="487" y="68" type="curve" smooth="yes"/>
      <point x="487" y="117" type="line"/>
      <point x="481" y="117" type="line"/>
      <point x="481" y="93" type="line" smooth="yes"/>
      <point x="481" y="68"/>
      <point x="471" y="59"/>
      <point x="447" y="59" type="curve" smooth="yes"/>
      <point x="244" y="59" type="line" smooth="yes"/>
      <point x="218" y="59"/>
      <point x="213" y="64"/>
      <point x="213" y="90" type="curve" smooth="yes"/>
      <point x="213" y="260" type="line"/>
    </contour>
  </outline>
</glyph>
<glyph name="r" format="1">
  <advance width="382"/>
  <unicode hex="0072"/>
  <outline>
    <contour>
      <point x="372" y="485" type="line"/>
      <point x="277" y="485" type="line" smooth="yes"/>
      <point x="215" y="485"/>
      <point x="188" y="442"/>
      <point x="188" y="391" type="curve" smooth="yes"/>
      <point x="188" y="314" type="line"/>
      <point x="192" y="314" type="line"/>
      <point x="192" y="348" type="line" smooth="yes"/>
      <point x="192" y="397"/>
      <point x="213" y="423"/>
      <point x="259" y="423" type="curve" smooth="yes"/>
      <point x="372" y="423" type="line"/>
    </contour>
    <contour>
      <point x="192" y="0" type="line"/>
      <point x="192" y="485" type="line"/>
      <point x="85" y="485" type="line"/>
      <point x="85" y="0" type="line"/>
    </contour>
  </outline>
</glyph>
<glyph name="s" format="1">
  <advance width="584"/>
  <unicode hex="0073"/>
  <outline>
    <contour>
      <point x="412" y="89" type="line"/>
      <point x="412" y="63"/>
      <point x="407" y="58"/>
      <point x="381" y="58" type="curve" smooth="yes"/>
      <point x="212" y="58" type="line" smooth="yes"/>
      <point x="186" y="58"/>
      <point x="181" y="63"/>
      <point x="181" y="89" type="curve" smooth="yes"/>
      <point x="181" y="135" type="line"/>
      <point x="76" y="135" type="line"/>
      <point x="76" y="79" type="line" smooth="yes"/>
      <point x="76" y="26"/>
      <point x="102" y="0"/>
      <point x="155" y="0" type="curve" smooth="yes"/>
      <point x="439" y="0" type="line" smooth="yes"/>
      <point x="492" y="0"/>
      <point x="518" y="26"/>
      <point x="518" y="79" type="curve" smooth="yes"/>
      <point x="518" y="192" type="line" smooth="yes"/>
      <point x="518" y="245"/>
      <point x="492" y="271"/>
      <point x="439" y="271" type="curve" smooth="yes"/>
      <point x="211" y="271" type="line" smooth="yes"/>
      <point x="185" y="271"/>
      <point x="180" y="276"/>
      <point x="180" y="302" type="curve" smooth="yes"/>
      <point x="180" y="396" type="line" smooth="yes"/>
      <point x="180" y="422"/>
      <point x="185" y="427"/>
      <point x="211" y="427" type="curve" smooth="yes"/>
      <point x="380" y="427" type="line" smooth="yes"/>
      <point x="406" y="427"/>
      <point x="411" y="422"/>
      <point x="411" y="396" type="curve" smooth="yes"/>
      <point x="411" y="350" type="line"/>
      <point x="515" y="350" type="line"/>
      <point x="515" y="406" type="line" smooth="yes"/>
      <point x="515" y="459"/>
      <point x="489" y="485"/>
      <point x="436" y="485" type="curve" smooth="yes"/>
      <point x="153" y="485" type="line" smooth="yes"/>
      <point x="100" y="485"/>
      <point x="74" y="459"/>
      <point x="74" y="406" type="curve" smooth="yes"/>
      <point x="74" y="291" type="line" smooth="yes"/>
      <point x="74" y="238"/>
      <point x="100" y="212"/>
      <point x="153" y="212" type="curve" smooth="yes"/>
      <point x="381" y="212" type="line" smooth="yes"/>
      <point x="407" y="212"/>
      <point x="412" y="207"/>
      <point x="412" y="181" type="curve" smooth="yes"/>
    </contour>
  </outline>
</glyph>
<glyph name="t" format="1">
  <advance width="375"/>
  <unicode hex="0074"/>
  <outline>
    <contour>
      <point x="220" y="575" type="line"/>
      <point x="113" y="575" type="line"/>
      <point x="113" y="79" type="line" smooth="yes"/>
      <point x="113" y="26"/>
      <point x="139" y="0"/>
      <point x="192" y="0" type="curve" smooth="yes"/>
      <point x="336" y="0" type="line"/>
      <point x="336" y="63" type="line"/>
      <point x="251" y="63" type="line" smooth="yes"/>
      <point x="225" y="63"/>
      <point x="220" y="68"/>
      <point x="220" y="94" type="curve" smooth="yes"/>
    </contour>
    <contour>
      <point x="337" y="485" type="line"/>
      <point x="35" y="485" type="line"/>
      <point x="35" y="426" type="line"/>
      <point x="337" y="426" type="line"/>
    </contour>
  </outline>
</glyph>
<glyph name="u" format="1">
  <advance width="634"/>
  <unicode hex="0075"/>
  <outline>
    <contour>
      <point x="76" y="485" type="line"/>
      <point x="76" y="79" type="line" smooth="yes"/>
      <point x="76" y="26"/>
      <point x="102" y="0"/>
      <point x="155" y="0" type="curve" smooth="yes"/>
      <point x="387" y="0" type="line" smooth="yes"/>
      <point x="428" y="0"/>
      <point x="448" y="20"/>
      <point x="448" y="68" type="curve" smooth="yes"/>
      <point x="448" y="126" type="line"/>
      <point x="442" y="126" type="line"/>
      <point x="442" y="93" type="line" smooth="yes"/>
      <point x="442" y="68"/>
      <point x="432" y="59"/>
      <point x="408" y="59" type="curve" smooth="yes"/>
      <point x="214" y="59" type="line" smooth="yes"/>
      <point x="188" y="59"/>
      <point x="183" y="64"/>
      <point x="183" y="90" type="curve" smooth="yes"/>
      <point x="183" y="485" type="line"/>
    </contour>
    <contour>
      <point x="442" y="485" type="line"/>
      <point x="442" y="0" type="line"/>
      <point x="549" y="0" type="line"/>
      <point x="549" y="485" type="line"/>
    </contour>
  </outline>
</glyph>
<glyph name="v" format="1">
  <advance width="601"/>
  <unicode hex="0076"/>
  <outline>
    <contour>
      <point x="132" y="485" type="line"/>
      <point x="299" y="70" type="line"/>
      <point x="469" y="485" type="line"/>
      <point x="574" y="485" type="line"/>
      <point x="374" y="0" type="line"/>
      <point x="226" y="0" type="line"/>
      <point x="26" y="485" type="line"/>
    </contour>
  </outline>
</glyph>
<glyph name="w" format="1">
  <advance width="893"/>
  <unicode hex="0077"/>
  <outline>
    <contour>
      <point x="765" y="485" type="line"/>
      <point x="626" y="70" type="line"/>
      <point x="507" y="485" type="line"/>
      <point x="388" y="485" type="line"/>
      <point x="266" y="70" type="line"/>
      <point x="128" y="485" type="line"/>
      <point x="26" y="485" type="line"/>
      <point x="194" y="0" type="line"/>
      <point x="334" y="0" type="line"/>
      <point x="446" y="402" type="line"/>
      <point x="561" y="0" type="line"/>
      <point x="701" y="0" type="line"/>
      <point x="867" y="485" type="line"/>
    </contour>
  </outline>
</glyph>
<glyph name="x" format="1">
  <advance width="607"/>
  <unicode hex="0078"/>
  <outline>
    <contour>
      <point x="366" y="249" type="line"/>
      <point x="577" y="485" type="line"/>
      <point x="472" y="485" type="line"/>
      <point x="315" y="303" type="line"/>
      <point x="163" y="485" type="line"/>
      <point x="38" y="485" type="line"/>
      <point x="247" y="239" type="line"/>
      <point x="30" y="0" type="line"/>
      <point x="134" y="0" type="line"/>
      <point x="299" y="183" type="line"/>
      <point x="456" y="0" type="line"/>
      <point x="579" y="0" type="line"/>
    </contour>
  </outline>
</glyph>
<glyph name="y" format="1">
  <advance width="588"/>
  <unicode hex="0079"/>
  <outline>
    <contour>
      <point x="31" y="485" type="line"/>
      <point x="240" y="0" type="line"/>
      <point x="278" y="0" type="line"/>
      <point x="258" y="-43" type="line" smooth="yes"/>
      <point x="244" y="-72"/>
      <point x="222" y="-82"/>
      <point x="183" y="-82" type="curve" smooth="yes"/>
      <point x="117" y="-82" type="line"/>
      <point x="117" y="-141" type="line"/>
      <point x="219" y="-141" type="line" smooth="yes"/>
      <point x="300" y="-141"/>
      <point x="326" y="-105"/>
      <point x="351" y="-47" type="curve" smooth="yes"/>
      <point x="582" y="485" type="line"/>
      <point x="474" y="485" type="line"/>
      <point x="309" y="72" type="line"/>
      <point x="141" y="485" type="line"/>
    </contour>
  </outline>
</glyph>
<glyph name="z" format="1">
  <advance width="516"/>
  <unicode hex="007A"/>
  <outline>
    <contour>
      <point x="460" y="485" type="line"/>
      <point x="68" y="485" type="line"/>
      <point x="68" y="426" type="line"/>
      <point x="460" y="426" type="line"/>
    </contour>
    <contour>
      <point x="346" y="426" type="line"/>
      <point x="55" y="59" type="line"/>
      <point x="168" y="59" type="line"/>
      <point x="460" y="426" type="line"/>
    </contour>
    <contour>
      <point x="462" y="59" type="line"/>
      <point x="55" y="59" type="line"/>
      <point x="55" y="0" type="line"/>
      <point x="462" y="0" type="line"/>
    </contour>
  </outline>
</glyph>
<glyph name="braceleft" format="1">
  <advance width="409"/>
  <unicode hex="007B"/>
  <outline>
    <contour>
      <point x="287" y="608" type="line"/>
      <point x="287" y="643"/>
      <point x="295" y="661"/>
      <point x="329" y="661" type="curve" smooth="yes"/>
      <point x="445" y="661" type="line"/>
      <point x="445" y="720" type="line"/>
      <point x="296" y="720" type="line" smooth="yes"/>
      <point x="211" y="720"/>
      <point x="178" y="686"/>
      <point x="178" y="606" type="curve" smooth="yes"/>
      <point x="178" y="386" type="line" smooth="yes"/>
      <point x="178" y="310"/>
      <point x="152" y="278"/>
      <point x="89" y="278" type="curve" smooth="yes"/>
      <point x="72" y="278" type="line"/>
      <point x="72" y="219" type="line"/>
      <point x="89" y="219" type="line" smooth="yes"/>
      <point x="152" y="219"/>
      <point x="178" y="186"/>
      <point x="178" y="111" type="curve" smooth="yes"/>
      <point x="178" y="-108" type="line" smooth="yes"/>
      <point x="178" y="-187"/>
      <point x="211" y="-221"/>
      <point x="296" y="-221" type="curve" smooth="yes"/>
      <point x="445" y="-221" type="line"/>
      <point x="445" y="-162" type="line"/>
      <point x="329" y="-162" type="line" smooth="yes"/>
      <point x="295" y="-162"/>
      <point x="287" y="-144"/>
      <point x="287" y="-109" type="curve" smooth="yes"/>
      <point x="287" y="126" type="line" smooth="yes"/>
      <point x="287" y="194"/>
      <point x="261" y="242"/>
      <point x="207" y="247" type="curve"/>
      <point x="261" y="253"/>
      <point x="287" y="299"/>
      <point x="287" y="369" type="curve" smooth="yes"/>
    </contour>
  </outline>
</glyph>
<glyph name="bar" format="1">
  <advance width="293"/>
  <unicode hex="007C"/>
  <outline>
    <contour>
      <point x="95" y="739" type="line"/>
      <point x="95" y="-118" type="line"/>
      <point x="198" y="-118" type="line"/>
      <point x="198" y="739" type="line"/>
    </contour>
  </outline>
</glyph>
<glyph name="braceright" format="1">
  <advance width="411"/>
  <unicode hex="007D"/>
  <outline>
    <contour>
      <point x="124" y="369" type="line"/>
      <point x="124" y="299"/>
      <point x="150" y="253"/>
      <point x="205" y="247" type="curve"/>
      <point x="150" y="242"/>
      <point x="124" y="194"/>
      <point x="124" y="126" type="curve" smooth="yes"/>
      <point x="124" y="-109" type="line" smooth="yes"/>
      <point x="124" y="-144"/>
      <point x="116" y="-162"/>
      <point x="82" y="-162" type="curve" smooth="yes"/>
      <point x="-34" y="-162" type="line"/>
      <point x="-34" y="-221" type="line"/>
      <point x="115" y="-221" type="line" smooth="yes"/>
      <point x="200" y="-221"/>
      <point x="233" y="-187"/>
      <point x="233" y="-108" type="curve" smooth="yes"/>
      <point x="233" y="111" type="line" smooth="yes"/>
      <point x="233" y="186"/>
      <point x="260" y="219"/>
      <point x="323" y="219" type="curve" smooth="yes"/>
      <point x="339" y="219" type="line"/>
      <point x="339" y="278" type="line"/>
      <point x="323" y="278" type="line" smooth="yes"/>
      <point x="260" y="278"/>
      <point x="233" y="310"/>
      <point x="233" y="386" type="curve" smooth="yes"/>
      <point x="233" y="606" type="line" smooth="yes"/>
      <point x="233" y="686"/>
      <point x="200" y="720"/>
      <point x="115" y="720" type="curve" smooth="yes"/>
      <point x="-34" y="720" type="line"/>
      <point x="-34" y="661" type="line"/>
      <point x="82" y="661" type="line" smooth="yes"/>
      <point x="116" y="661"/>
      <point x="124" y="643"/>
      <point x="124" y="608" type="curve" smooth="yes"/>
    </contour>
  </outline>
</glyph>
<glyph name="asciitilde" format="1">
  <advance width="783"/>
  <unicode hex="007E"/>
  <outline>
    <contour>
      <point x="231" y="270" type="curve" smooth="yes"/>
      <point x="351" y="270"/>
      <point x="416" y="168"/>
      <point x="522" y="168" type="curve" smooth="yes"/>
      <point x="630" y="168" type="line" smooth="yes"/>
      <point x="685" y="168"/>
      <point x="708" y="198"/>
      <point x="708" y="246" type="curve" smooth="yes"/>
      <point x="708" y="332" type="line"/>
      <point x="605" y="332" type="line"/>
      <point x="605" y="273" type="line" smooth="yes"/>
      <point x="605" y="242"/>
      <point x="590" y="230"/>
      <point x="552" y="230" type="curve" smooth="yes"/>
      <point x="427" y="230"/>
      <point x="383" y="332"/>
      <point x="263" y="332" type="curve" smooth="yes"/>
      <point x="152" y="332" type="line" smooth="yes"/>
      <point x="97" y="332"/>
      <point x="75" y="304"/>
      <point x="75" y="255" type="curve" smooth="yes"/>
      <point x="75" y="169" type="line"/>
      <point x="178" y="169" type="line"/>
      <point x="178" y="229" type="line" smooth="yes"/>
      <point x="178" y="260"/>
      <point x="192" y="270"/>
    </contour>
  </outline>
</glyph>
<glyph name="exclamdown" format="1">
  <advance width="281"/>
  <unicode hex="00A1"/>
  <outline>
    <contour>
      <point x="97" y="284" type="line"/>
      <point x="77" y="-137" type="line"/>
      <point x="204" y="-137" type="line"/>
      <point x="185" y="284" type="line"/>
    </contour>
    <contour>
      <point x="80" y="485" type="line"/>
      <point x="80" y="364" type="line"/>
      <point x="200" y="364" type="line"/>
      <point x="200" y="485" type="line"/>
    </contour>
  </outline>
</glyph>
<glyph name="cent" format="1">
  <advance width="593"/>
  <unicode hex="00A2"/>
  <outline>
    <contour>
      <point x="356" y="470" type="line"/>
      <point x="356" y="561" type="line"/>
      <point x="251" y="561" type="line"/>
      <point x="251" y="470" type="line"/>
    </contour>
    <contour>
      <point x="356" y="-77" type="line"/>
      <point x="356" y="15" type="line"/>
      <point x="251" y="15" type="line"/>
      <point x="251" y="-77" type="line"/>
    </contour>
    <contour>
      <point x="182" y="395" type="line"/>
      <point x="182" y="421"/>
      <point x="187" y="426"/>
      <point x="213" y="426" type="curve" smooth="yes"/>
      <point x="383" y="426" type="line"/>
      <point x="383" y="485" type="line"/>
      <point x="154" y="485" type="line" smooth="yes"/>
      <point x="101" y="485"/>
      <point x="75" y="459"/>
      <point x="75" y="406" type="curve" smooth="yes"/>
      <point x="75" y="79" type="line" smooth="yes"/>
      <point x="75" y="26"/>
      <point x="101" y="0"/>
      <point x="154" y="0" type="curve" smooth="yes"/>
      <point x="377" y="0" type="line"/>
      <point x="377" y="59" type="line"/>
      <point x="213" y="59" type="line" smooth="yes"/>
      <point x="187" y="59"/>
      <point x="182" y="64"/>
      <point x="182" y="90" type="curve" smooth="yes"/>
    </contour>
    <contour>
      <point x="431" y="324" type="line"/>
      <point x="537" y="324" type="line"/>
      <point x="537" y="406" type="line" smooth="yes"/>
      <point x="537" y="459"/>
      <point x="511" y="485"/>
      <point x="458" y="485" type="curve" smooth="yes"/>
      <point x="228" y="485" type="line"/>
      <point x="228" y="426" type="line"/>
      <point x="400" y="426" type="line" smooth="yes"/>
      <point x="426" y="426"/>
      <point x="431" y="421"/>
      <point x="431" y="395" type="curve" smooth="yes"/>
    </contour>
    <contour>
      <point x="431" y="90" type="line"/>
      <point x="431" y="64"/>
      <point x="426" y="59"/>
      <point x="400" y="59" type="curve" smooth="yes"/>
      <point x="228" y="59" type="line"/>
      <point x="228" y="0" type="line"/>
      <point x="458" y="0" type="line" smooth="yes"/>
      <point x="511" y="0"/>
      <point x="537" y="26"/>
      <point x="537" y="79" type="curve" smooth="yes"/>
      <point x="537" y="161" type="line"/>
      <point x="431" y="161" type="line"/>
    </contour>
  </outline>
</glyph>
<glyph name="sterling" format="1">
  <advance width="696"/>
  <unicode hex="00A3"/>
  <outline>
    <contour>
      <point x="261" y="532" type="line"/>
      <point x="261" y="558"/>
      <point x="266" y="563"/>
      <point x="292" y="563" type="curve" smooth="yes"/>
      <point x="488" y="563" type="line" smooth="yes"/>
      <point x="514" y="563"/>
      <point x="519" y="558"/>
      <point x="519" y="532" type="curve" smooth="yes"/>
      <point x="519" y="434" type="line"/>
      <point x="628" y="434" type="line"/>
      <point x="628" y="543" type="line" smooth="yes"/>
      <point x="628" y="596"/>
      <point x="602" y="622"/>
      <point x="549" y="622" type="curve" smooth="yes"/>
      <point x="230" y="622" type="line" smooth="yes"/>
      <point x="177" y="622"/>
      <point x="151" y="596"/>
      <point x="151" y="543" type="curve" smooth="yes"/>
      <point x="151" y="174" type="line" smooth="yes"/>
      <point x="151" y="107"/>
      <point x="128" y="68"/>
      <point x="73" y="66" type="curve"/>
      <point x="73" y="0" type="line"/>
      <point x="641" y="0" type="line"/>
      <point x="641" y="73" type="line"/>
      <point x="230" y="73" type="line"/>
      <point x="257" y="88"/>
      <point x="261" y="122"/>
      <point x="261" y="181" type="curve" smooth="yes"/>
    </contour>
    <contour>
      <point x="64" y="272" type="line"/>
      <point x="543" y="272" type="line"/>
      <point x="543" y="331" type="line"/>
      <point x="64" y="331" type="line"/>
    </contour>
  </outline>
</glyph>
<glyph name="currency" format="1">
  <advance width="728"/>
  <unicode hex="00A4"/>
  <outline>
    <contour>
      <point x="624" y="387" type="line"/>
      <point x="624" y="451"/>
      <point x="593" y="486"/>
      <point x="512" y="486" type="curve" smooth="yes"/>
      <point x="221" y="486" type="line" smooth="yes"/>
      <point x="140" y="486"/>
      <point x="110" y="451"/>
      <point x="110" y="387" type="curve" smooth="yes"/>
      <point x="110" y="210" type="line" smooth="yes"/>
      <point x="110" y="145"/>
      <point x="140" y="110"/>
      <point x="221" y="110" type="curve" smooth="yes"/>
      <point x="512" y="110" type="line" smooth="yes"/>
      <point x="593" y="110"/>
      <point x="624" y="145"/>
      <point x="624" y="210" type="curve" smooth="yes"/>
    </contour>
    <contour>
      <point x="255" y="169" type="line"/>
      <point x="213" y="169"/>
      <point x="202" y="175"/>
      <point x="202" y="217" type="curve" smooth="yes"/>
      <point x="202" y="375" type="line" smooth="yes"/>
      <point x="202" y="417"/>
      <point x="213" y="427"/>
      <point x="255" y="427" type="curve" smooth="yes"/>
      <point x="480" y="427" type="line" smooth="yes"/>
      <point x="520" y="427"/>
      <point x="533" y="417"/>
      <point x="533" y="375" type="curve" smooth="yes"/>
      <point x="533" y="217" type="line" smooth="yes"/>
      <point x="533" y="175"/>
      <point x="520" y="169"/>
      <point x="480" y="169" type="curve" smooth="yes"/>
    </contour>
    <contour>
      <point x="222" y="450" type="line"/>
      <point x="128" y="543" type="line"/>
      <point x="65" y="479" type="line"/>
      <point x="159" y="386" type="line"/>
    </contour>
    <contour>
      <point x="569" y="386" type="line"/>
      <point x="663" y="479" type="line"/>
      <point x="600" y="543" type="line"/>
      <point x="506" y="450" type="line"/>
    </contour>
    <contour>
      <point x="159" y="211" type="line"/>
      <point x="65" y="118" type="line"/>
      <point x="128" y="55" type="line"/>
      <point x="222" y="147" type="line"/>
    </contour>
    <contour>
      <point x="506" y="147" type="line"/>
      <point x="600" y="55" type="line"/>
      <point x="663" y="118" type="line"/>
      <point x="569" y="211" type="line"/>
    </contour>
  </outline>
</glyph>
<glyph name="yen" format="1">
  <advance width="715"/>
  <unicode hex="00A5"/>
  <outline>
    <contour>
      <point x="308" y="328" type="line"/>
      <point x="102" y="328" type="line"/>
      <point x="102" y="269" type="line"/>
      <point x="308" y="269" type="line"/>
    </contour>
    <contour>
      <point x="622" y="200" type="line"/>
      <point x="102" y="200" type="line"/>
      <point x="102" y="141" type="line"/>
      <point x="622" y="141" type="line"/>
    </contour>
    <contour>
      <point x="413" y="195" type="line"/>
      <point x="672" y="622" type="line"/>
      <point x="561" y="622" type="line"/>
      <point x="362" y="281" type="line"/>
      <point x="155" y="622" type="line"/>
      <point x="43" y="622" type="line"/>
      <point x="313" y="195" type="line"/>
    </contour>
    <contour>
      <point x="308" y="246" type="line"/>
      <point x="308" y="0" type="line"/>
      <point x="418" y="0" type="line"/>
      <point x="418" y="246" type="line"/>
    </contour>
    <contour>
      <point x="416" y="269" type="line"/>
      <point x="622" y="269" type="line"/>
      <point x="622" y="328" type="line"/>
      <point x="416" y="328" type="line"/>
    </contour>
  </outline>
</glyph>
<glyph name="brokenbar" format="1">
  <advance width="275"/>
  <unicode hex="00A6"/>
  <outline>
    <contour>
      <point x="87" y="249" type="line"/>
      <point x="87" y="-118" type="line"/>
      <point x="189" y="-118" type="line"/>
      <point x="189" y="249" type="line"/>
    </contour>
    <contour>
      <point x="189" y="372" type="line"/>
      <point x="189" y="739" type="line"/>
      <point x="87" y="739" type="line"/>
      <point x="87" y="372" type="line"/>
    </contour>
  </outline>
</glyph>
<glyph name="section" format="1">
  <advance width="665"/>
  <unicode hex="00A7"/>
  <outline>
    <contour>
      <point x="520" y="200" type="curve"/>
      <point x="553" y="207"/>
      <point x="572" y="236"/>
      <point x="572" y="283" type="curve" smooth="yes"/>
      <point x="572" y="372" type="line" smooth="yes"/>
      <point x="572" y="425"/>
      <point x="546" y="451"/>
      <point x="493" y="451" type="curve" smooth="yes"/>
      <point x="277" y="451" type="line" smooth="yes"/>
      <point x="251" y="451"/>
      <point x="246" y="456"/>
      <point x="246" y="482" type="curve" smooth="yes"/>
      <point x="246" y="574" type="line" smooth="yes"/>
      <point x="246" y="600"/>
      <point x="251" y="605"/>
      <point x="277" y="605" type="curve" smooth="yes"/>
      <point x="434" y="605" type="line" smooth="yes"/>
      <point x="460" y="605"/>
      <point x="465" y="600"/>
      <point x="465" y="574" type="curve" smooth="yes"/>
      <point x="465" y="531" type="line"/>
      <point x="573" y="531" type="line"/>
      <point x="573" y="585" type="line" smooth="yes"/>
      <point x="573" y="638"/>
      <point x="547" y="664"/>
      <point x="494" y="664" type="curve" smooth="yes"/>
      <point x="216" y="664" type="line" smooth="yes"/>
      <point x="163" y="664"/>
      <point x="137" y="638"/>
      <point x="137" y="585" type="curve" smooth="yes"/>
      <point x="137" y="471" type="line" smooth="yes"/>
      <point x="137" y="446"/>
      <point x="148" y="432"/>
      <point x="157" y="423" type="curve"/>
      <point x="124" y="415"/>
      <point x="106" y="384"/>
      <point x="106" y="338" type="curve" smooth="yes"/>
      <point x="106" y="251" type="line" smooth="yes"/>
      <point x="106" y="198"/>
      <point x="132" y="172"/>
      <point x="185" y="172" type="curve" smooth="yes"/>
      <point x="401" y="172" type="line" smooth="yes"/>
      <point x="426" y="172"/>
      <point x="431" y="167"/>
      <point x="431" y="141" type="curve" smooth="yes"/>
      <point x="431" y="50" type="line" smooth="yes"/>
      <point x="431" y="24"/>
      <point x="426" y="19"/>
      <point x="401" y="19" type="curve" smooth="yes"/>
      <point x="244" y="19" type="line" smooth="yes"/>
      <point x="218" y="19"/>
      <point x="213" y="24"/>
      <point x="213" y="50" type="curve" smooth="yes"/>
      <point x="213" y="93" type="line"/>
      <point x="104" y="93" type="line"/>
      <point x="104" y="39" type="line" smooth="yes"/>
      <point x="104" y="-14"/>
      <point x="130" y="-40"/>
      <point x="183" y="-40" type="curve" smooth="yes"/>
      <point x="460" y="-40" type="line" smooth="yes"/>
      <point x="513" y="-40"/>
      <point x="539" y="-14"/>
      <point x="539" y="39" type="curve" smooth="yes"/>
      <point x="539" y="150" type="line" smooth="yes"/>
      <point x="539" y="174"/>
      <point x="529" y="190"/>
    </contour>
    <contour>
      <point x="432" y="392" type="line"/>
      <point x="458" y="392"/>
      <point x="463" y="387"/>
      <point x="463" y="361" type="curve" smooth="yes"/>
      <point x="463" y="262" type="line" smooth="yes"/>
      <point x="463" y="236"/>
      <point x="458" y="231"/>
      <point x="432" y="231" type="curve" smooth="yes"/>
      <point x="245" y="231" type="line" smooth="yes"/>
      <point x="219" y="231"/>
      <point x="214" y="236"/>
      <point x="214" y="262" type="curve" smooth="yes"/>
      <point x="214" y="361" type="line" smooth="yes"/>
      <point x="214" y="387"/>
      <point x="219" y="392"/>
      <point x="245" y="392" type="curve" smooth="yes"/>
    </contour>
  </outline>
</glyph>
<glyph name="dieresis" format="1">
  <advance width="614"/>
  <unicode hex="00A8"/>
  <outline>
    <contour>
      <point x="371" y="629" type="line"/>
      <point x="371" y="539" type="line"/>
      <point x="510" y="539" type="line"/>
      <point x="510" y="629" type="line"/>
    </contour>
    <contour>
      <point x="103" y="629" type="line"/>
      <point x="103" y="539" type="line"/>
      <point x="242" y="539" type="line"/>
      <point x="242" y="629" type="line"/>
    </contour>
  </outline>
</glyph>
<glyph name="copyright" format="1">
  <advance width="1050"/>
  <unicode hex="00A9"/>
  <outline>
    <contour>
      <point x="966" y="341" type="line"/>
      <point x="966" y="524"/>
      <point x="901" y="622"/>
      <point x="725" y="622" type="curve" smooth="yes"/>
      <point x="325" y="622" type="line" smooth="yes"/>
      <point x="149" y="622"/>
      <point x="84" y="524"/>
      <point x="84" y="341" type="curve" smooth="yes"/>
      <point x="84" y="274" type="line" smooth="yes"/>
      <point x="84" y="91"/>
      <point x="149" y="0"/>
      <point x="325" y="0" type="curve" smooth="yes"/>
      <point x="725" y="0" type="line" smooth="yes"/>
      <point x="901" y="0"/>
      <point x="966" y="91"/>
      <point x="966" y="274" type="curve" smooth="yes"/>
    </contour>
    <contour>
      <point x="336" y="60" type="line"/>
      <point x="216" y="60"/>
      <point x="180" y="143"/>
      <point x="180" y="270" type="curve" smooth="yes"/>
      <point x="180" y="345" type="line" smooth="yes"/>
      <point x="180" y="472"/>
      <point x="216" y="564"/>
      <point x="336" y="564" type="curve" smooth="yes"/>
      <point x="714" y="564" type="line" smooth="yes"/>
      <point x="834" y="564"/>
      <point x="870" y="472"/>
      <point x="870" y="345" type="curve" smooth="yes"/>
      <point x="870" y="270" type="line" smooth="yes"/>
      <point x="870" y="143"/>
      <point x="834" y="60"/>
      <point x="714" y="60" type="curve" smooth="yes"/>
    </contour>
    <contour>
      <point x="630" y="240" type="line"/>
      <point x="630" y="214"/>
      <point x="625" y="209"/>
      <point x="599" y="209" type="curve" smooth="yes"/>
      <point x="453" y="209" type="line" smooth="yes"/>
      <point x="427" y="209"/>
      <point x="422" y="214"/>
      <point x="422" y="240" type="curve" smooth="yes"/>
      <point x="422" y="393" type="line" smooth="yes"/>
      <point x="422" y="419"/>
      <point x="427" y="424"/>
      <point x="453" y="424" type="curve" smooth="yes"/>
      <point x="599" y="424" type="line" smooth="yes"/>
      <point x="625" y="424"/>
      <point x="630" y="419"/>
      <point x="630" y="393" type="curve" smooth="yes"/>
      <point x="630" y="364" type="line"/>
      <point x="720" y="364" type="line"/>
      <point x="720" y="404" type="line" smooth="yes"/>
      <point x="720" y="457"/>
      <point x="694" y="483"/>
      <point x="641" y="483" type="curve" smooth="yes"/>
      <point x="410" y="483" type="line" smooth="yes"/>
      <point x="357" y="483"/>
      <point x="331" y="457"/>
      <point x="331" y="404" type="curve" smooth="yes"/>
      <point x="331" y="229" type="line" smooth="yes"/>
      <point x="331" y="176"/>
      <point x="357" y="150"/>
      <point x="410" y="150" type="curve" smooth="yes"/>
      <point x="641" y="150" type="line" smooth="yes"/>
      <point x="694" y="150"/>
      <point x="720" y="176"/>
      <point x="720" y="229" type="curve" smooth="yes"/>
      <point x="720" y="269" type="line"/>
      <point x="630" y="269" type="line"/>
    </contour>
  </outline>
</glyph>
<glyph name="ordfeminine" format="1">
  <advance width="433"/>
  <unicode hex="00AA"/>
  <outline>
    <contour>
      <point x="131" y="440" type="line"/>
      <point x="131" y="558" type="line" smooth="yes"/>
      <point x="131" y="577"/>
      <point x="135" y="580"/>
      <point x="154" y="580" type="curve" smooth="yes"/>
      <point x="267" y="580" type="line" smooth="yes"/>
      <point x="285" y="580"/>
      <point x="293" y="573"/>
      <point x="293" y="556" type="curve" smooth="yes"/>
      <point x="293" y="536" type="line"/>
      <point x="296" y="536" type="line"/>
      <point x="296" y="574" type="line" smooth="yes"/>
      <point x="296" y="607"/>
      <point x="282" y="622"/>
      <point x="253" y="622" type="curve" smooth="yes"/>
      <point x="113" y="622" type="line" smooth="yes"/>
      <point x="75" y="622"/>
      <point x="57" y="604"/>
      <point x="57" y="566" type="curve" smooth="yes"/>
      <point x="57" y="440" type="line"/>
    </contour>
    <contour>
      <point x="368" y="280" type="line"/>
      <point x="368" y="622" type="line"/>
      <point x="293" y="622" type="line"/>
      <point x="293" y="280" type="line"/>
    </contour>
    <contour>
      <point x="57" y="463" type="line"/>
      <point x="57" y="336" type="line" smooth="yes"/>
      <point x="57" y="298"/>
      <point x="75" y="280"/>
      <point x="113" y="280" type="curve" smooth="yes"/>
      <point x="253" y="280" type="line" smooth="yes"/>
      <point x="282" y="280"/>
      <point x="296" y="294"/>
      <point x="296" y="328" type="curve" smooth="yes"/>
      <point x="296" y="364" type="line"/>
      <point x="293" y="364" type="line"/>
      <point x="293" y="346" type="line" smooth="yes"/>
      <point x="293" y="329"/>
      <point x="285" y="323"/>
      <point x="267" y="323" type="curve" smooth="yes"/>
      <point x="154" y="323" type="line" smooth="yes"/>
      <point x="135" y="323"/>
      <point x="131" y="327"/>
      <point x="131" y="345" type="curve" smooth="yes"/>
      <point x="131" y="463" type="line"/>
    </contour>
  </outline>
</glyph>
<glyph name="guillemotleft" format="1">
  <advance width="560"/>
  <unicode hex="00AB"/>
  <outline>
    <contour>
      <point x="228" y="103" type="line"/>
      <point x="342" y="103" type="line"/>
      <point x="214" y="257" type="line"/>
      <point x="342" y="411" type="line"/>
      <point x="228" y="411" type="line"/>
      <point x="101" y="257" type="line"/>
    </contour>
    <contour>
      <point x="360" y="103" type="line"/>
      <point x="475" y="103" type="line"/>
      <point x="347" y="257" type="line"/>
      <point x="475" y="411" type="line"/>
      <point x="360" y="411" type="line"/>
      <point x="233" y="257" type="line"/>
    </contour>
  </outline>
</glyph>
<glyph name="logicalnot" format="1">
  <advance width="752"/>
  <unicode hex="00AC"/>
  <outline>
    <contour>
      <point x="669" y="397" type="line"/>
      <point x="61" y="397" type="line"/>
      <point x="61" y="307" type="line"/>
      <point x="669" y="307" type="line"/>
    </contour>
    <contour>
      <point x="689" y="159" type="line"/>
      <point x="689" y="397" type="line"/>
      <point x="614" y="397" type="line"/>
      <point x="614" y="159" type="line"/>
    </contour>
  </outline>
</glyph>
<glyph name="softhyphen" format="1">
  <advance width="338"/>
  <unicode hex="00AD"/>
  <outline>
    <contour>
      <point x="55" y="258" type="line"/>
      <point x="283" y="258" type="line"/>
      <point x="283" y="317" type="line"/>
      <point x="55" y="317" type="line"/>
    </contour>
  </outline>
</glyph>
<glyph name="registered" format="1">
  <advance width="620"/>
  <unicode hex="00AE"/>
  <outline>
    <contour>
      <point x="562" y="529" type="line"/>
      <point x="562" y="631"/>
      <point x="525" y="686"/>
      <point x="425" y="686" type="curve" smooth="yes"/>
      <point x="195" y="686" type="line" smooth="yes"/>
      <point x="95" y="686"/>
      <point x="58" y="631"/>
      <point x="58" y="529" type="curve" smooth="yes"/>
      <point x="58" y="492" type="line" smooth="yes"/>
      <point x="58" y="390"/>
      <point x="95" y="338"/>
      <point x="195" y="338" type="curve" smooth="yes"/>
      <point x="425" y="338" type="line" smooth="yes"/>
      <point x="525" y="338"/>
      <point x="562" y="390"/>
      <point x="562" y="492" type="curve" smooth="yes"/>
    </contour>
    <contour>
      <point x="202" y="380" type="line"/>
      <point x="140" y="380"/>
      <point x="120" y="424"/>
      <point x="120" y="489" type="curve" smooth="yes"/>
      <point x="120" y="532" type="line" smooth="yes"/>
      <point x="120" y="598"/>
      <point x="140" y="647"/>
      <point x="202" y="647" type="curve" smooth="yes"/>
      <point x="419" y="647" type="line" smooth="yes"/>
      <point x="481" y="647"/>
      <point x="500" y="598"/>
      <point x="500" y="532" type="curve" smooth="yes"/>
      <point x="500" y="489" type="line" smooth="yes"/>
      <point x="500" y="424"/>
      <point x="481" y="380"/>
      <point x="419" y="380" type="curve" smooth="yes"/>
    </contour>
    <contour>
      <point x="215" y="611" type="line"/>
      <point x="215" y="417" type="line"/>
      <point x="268" y="417" type="line"/>
      <point x="268" y="487" type="line"/>
      <point x="304" y="487" type="line"/>
      <point x="350" y="417" type="line"/>
      <point x="407" y="417" type="line"/>
      <point x="359" y="489" type="line"/>
      <point x="368" y="489" type="line" smooth="yes"/>
      <point x="390" y="489"/>
      <point x="398" y="503"/>
      <point x="398" y="521" type="curve" smooth="yes"/>
      <point x="398" y="579" type="line" smooth="yes"/>
      <point x="398" y="600"/>
      <point x="386" y="611"/>
      <point x="364" y="611" type="curve" smooth="yes"/>
    </contour>
    <contour>
      <point x="345" y="534" type="line"/>
      <point x="345" y="527"/>
      <point x="342" y="524"/>
      <point x="334" y="524" type="curve" smooth="yes"/>
      <point x="268" y="524" type="line"/>
      <point x="268" y="577" type="line"/>
      <point x="334" y="577" type="line"/>
      <point x="342" y="577"/>
      <point x="345" y="574"/>
      <point x="345" y="566" type="curve"/>
    </contour>
  </outline>
</glyph>
<glyph name="macron" format="1">
  <advance width="614"/>
  <unicode hex="00AF"/>
  <outline>
    <contour>
      <point x="120" y="550" type="line"/>
      <point x="494" y="550" type="line"/>
      <point x="494" y="608" type="line"/>
      <point x="120" y="608" type="line"/>
    </contour>
  </outline>
</glyph>
<glyph name="degree" format="1">
  <advance width="565"/>
  <unicode hex="00B0"/>
  <outline>
    <contour>
      <point x="506" y="545" type="line"/>
      <point x="506" y="597"/>
      <point x="481" y="622"/>
      <point x="428" y="622" type="curve" smooth="yes"/>
      <point x="137" y="622" type="line" smooth="yes"/>
      <point x="85" y="622"/>
      <point x="60" y="597"/>
      <point x="60" y="545" type="curve" smooth="yes"/>
      <point x="60" y="408" type="line" smooth="yes"/>
      <point x="60" y="356"/>
      <point x="85" y="331"/>
      <point x="137" y="331" type="curve" smooth="yes"/>
      <point x="428" y="331" type="line" smooth="yes"/>
      <point x="481" y="331"/>
      <point x="506" y="356"/>
      <point x="506" y="408" type="curve" smooth="yes"/>
    </contour>
    <contour>
      <point x="406" y="419" type="line"/>
      <point x="406" y="393"/>
      <point x="401" y="388"/>
      <point x="375" y="388" type="curve" smooth="yes"/>
      <point x="192" y="388" type="line" smooth="yes"/>
      <point x="166" y="388"/>
      <point x="161" y="393"/>
      <point x="161" y="419" type="curve" smooth="yes"/>
      <point x="161" y="535" type="line" smooth="yes"/>
      <point x="161" y="561"/>
      <point x="166" y="566"/>
      <point x="192" y="566" type="curve" smooth="yes"/>
      <point x="375" y="566" type="line" smooth="yes"/>
      <point x="401" y="566"/>
      <point x="406" y="561"/>
      <point x="406" y="535" type="curve" smooth="yes"/>
    </contour>
  </outline>
</glyph>
<glyph name="plusminus" format="1">
  <advance width="690"/>
  <unicode hex="00B1"/>
  <outline>
    <contour>
      <point x="74" y="321" type="line"/>
      <point x="613" y="321" type="line"/>
      <point x="613" y="394" type="line"/>
      <point x="74" y="394" type="line"/>
    </contour>
    <contour>
      <point x="293" y="506" type="line"/>
      <point x="293" y="229" type="line"/>
      <point x="394" y="229" type="line"/>
      <point x="394" y="506" type="line"/>
    </contour>
    <contour>
      <point x="74" y="120" type="line"/>
      <point x="613" y="120" type="line"/>
      <point x="613" y="189" type="line"/>
      <point x="74" y="189" type="line"/>
    </contour>
  </outline>
</glyph>
<glyph name="twosuperior" format="1">
  <advance width="382"/>
  <unicode hex="00B2"/>
  <outline>
    <contour>
      <point x="132" y="563" type="line"/>
      <point x="132" y="577"/>
      <point x="135" y="580"/>
      <point x="149" y="580" type="curve" smooth="yes"/>
      <point x="248" y="580" type="line" smooth="yes"/>
      <point x="263" y="580"/>
      <point x="265" y="577"/>
      <point x="265" y="563" type="curve" smooth="yes"/>
      <point x="265" y="541" type="line" smooth="yes"/>
      <point x="265" y="507"/>
      <point x="254" y="485"/>
      <point x="233" y="467" type="curve" smooth="yes"/>
      <point x="65" y="324" type="line"/>
      <point x="65" y="280" type="line"/>
      <point x="333" y="280" type="line"/>
      <point x="333" y="325" type="line"/>
      <point x="153" y="325" type="line"/>
      <point x="294" y="439" type="line" smooth="yes"/>
      <point x="322" y="462"/>
      <point x="336" y="492"/>
      <point x="336" y="539" type="curve" smooth="yes"/>
      <point x="336" y="579" type="line" smooth="yes"/>
      <point x="336" y="608"/>
      <point x="322" y="622"/>
      <point x="293" y="622" type="curve" smooth="yes"/>
      <point x="106" y="622" type="line" smooth="yes"/>
      <point x="77" y="622"/>
      <point x="63" y="608"/>
      <point x="63" y="579" type="curve" smooth="yes"/>
      <point x="63" y="510" type="line"/>
      <point x="132" y="510" type="line"/>
    </contour>
  </outline>
</glyph>
<glyph name="threesuperior" format="1">
  <advance width="408"/>
  <unicode hex="00B3"/>
  <outline>
    <contour>
      <point x="135" y="563" type="line"/>
      <point x="135" y="577"/>
      <point x="138" y="580"/>
      <point x="152" y="580" type="curve" smooth="yes"/>
      <point x="257" y="580" type="line" smooth="yes"/>
      <point x="272" y="580"/>
      <point x="274" y="577"/>
      <point x="274" y="563" type="curve" smooth="yes"/>
      <point x="274" y="492" type="line" smooth="yes"/>
      <point x="274" y="478"/>
      <point x="272" y="475"/>
      <point x="257" y="475" type="curve" smooth="yes"/>
      <point x="160" y="475" type="line"/>
      <point x="160" y="432" type="line"/>
      <point x="257" y="432" type="line" smooth="yes"/>
      <point x="272" y="432"/>
      <point x="274" y="429"/>
      <point x="274" y="415" type="curve" smooth="yes"/>
      <point x="274" y="340" type="line" smooth="yes"/>
      <point x="274" y="325"/>
      <point x="272" y="322"/>
      <point x="257" y="322" type="curve" smooth="yes"/>
      <point x="152" y="322" type="line" smooth="yes"/>
      <point x="138" y="322"/>
      <point x="135" y="325"/>
      <point x="135" y="340" type="curve" smooth="yes"/>
      <point x="135" y="387" type="line"/>
      <point x="65" y="387" type="line"/>
      <point x="65" y="323" type="line" smooth="yes"/>
      <point x="65" y="294"/>
      <point x="79" y="280"/>
      <point x="108" y="280" type="curve" smooth="yes"/>
      <point x="302" y="280" type="line" smooth="yes"/>
      <point x="331" y="280"/>
      <point x="346" y="294"/>
      <point x="346" y="323" type="curve" smooth="yes"/>
      <point x="346" y="424" type="line" smooth="yes"/>
      <point x="346" y="443"/>
      <point x="336" y="452"/>
      <point x="321" y="454" type="curve"/>
      <point x="336" y="455"/>
      <point x="346" y="466"/>
      <point x="346" y="484" type="curve" smooth="yes"/>
      <point x="346" y="579" type="line" smooth="yes"/>
      <point x="346" y="608"/>
      <point x="331" y="622"/>
      <point x="302" y="622" type="curve" smooth="yes"/>
      <point x="108" y="622" type="line" smooth="yes"/>
      <point x="79" y="622"/>
      <point x="65" y="608"/>
      <point x="65" y="579" type="curve" smooth="yes"/>
      <point x="65" y="515" type="line"/>
      <point x="135" y="515" type="line"/>
    </contour>
  </outline>
</glyph>
<glyph name="acute" format="1">
  <advance width="614"/>
  <unicode hex="00B4"/>
  <outline>
    <contour>
      <point x="169" y="506" type="line"/>
      <point x="271" y="506" type="line"/>
      <point x="435" y="651" type="line"/>
      <point x="309" y="651" type="line"/>
    </contour>
  </outline>
</glyph>
<glyph name="mu.math" format="1">
  <advance width="644"/>
  <unicode hex="00B5"/>
  <outline>
    <contour>
      <point x="85" y="485" type="line"/>
      <point x="85" y="79" type="line" smooth="yes"/>
      <point x="85" y="26"/>
      <point x="111" y="0"/>
      <point x="164" y="0" type="curve" smooth="yes"/>
      <point x="396" y="0" type="line" smooth="yes"/>
      <point x="438" y="0"/>
      <point x="457" y="20"/>
      <point x="457" y="68" type="curve" smooth="yes"/>
      <point x="457" y="126" type="line"/>
      <point x="452" y="126" type="line"/>
      <point x="452" y="93" type="line" smooth="yes"/>
      <point x="452" y="68"/>
      <point x="442" y="59"/>
      <point x="417" y="59" type="curve" smooth="yes"/>
      <point x="223" y="59" type="line" smooth="yes"/>
      <point x="197" y="59"/>
      <point x="192" y="64"/>
      <point x="192" y="90" type="curve" smooth="yes"/>
      <point x="192" y="485" type="line"/>
    </contour>
    <contour>
      <point x="452" y="485" type="line"/>
      <point x="452" y="0" type="line"/>
      <point x="559" y="0" type="line"/>
      <point x="559" y="485" type="line"/>
    </contour>
    <contour>
      <point x="85" y="415" type="line"/>
      <point x="85" y="-141" type="line"/>
      <point x="192" y="-141" type="line"/>
      <point x="192" y="415" type="line"/>
    </contour>
  </outline>
</glyph>
<glyph name="paragraph" format="1">
  <advance width="743"/>
  <unicode hex="00B6"/>
  <outline>
    <contour>
      <point x="391" y="622" type="line"/>
      <point x="153" y="622" type="line" smooth="yes"/>
      <point x="100" y="622"/>
      <point x="74" y="596"/>
      <point x="74" y="543" type="curve" smooth="yes"/>
      <point x="74" y="303" type="line" smooth="yes"/>
      <point x="74" y="250"/>
      <point x="100" y="224"/>
      <point x="153" y="224" type="curve" smooth="yes"/>
      <point x="391" y="224" type="line"/>
    </contour>
    <contour>
      <point x="328" y="622" type="line"/>
      <point x="328" y="-141" type="line"/>
      <point x="427" y="-141" type="line"/>
      <point x="427" y="622" type="line"/>
    </contour>
    <contour>
      <point x="551" y="622" type="line"/>
      <point x="551" y="-141" type="line"/>
      <point x="650" y="-141" type="line"/>
      <point x="650" y="622" type="line"/>
    </contour>
  </outline>
</glyph>
<glyph name="periodcentered" format="1">
  <advance width="273"/>
  <unicode hex="00B7"/>
  <outline>
    <contour>
      <point x="78" y="254" type="line"/>
      <point x="197" y="254" type="line"/>
      <point x="197" y="375" type="line"/>
      <point x="78" y="375" type="line"/>
    </contour>
  </outline>
</glyph>
<glyph name="cedilla" format="1">
  <advance width="614"/>
  <unicode hex="00B8"/>
  <outline>
    <contour>
      <point x="329" y="-128" type="line"/>
      <point x="329" y="-154"/>
      <point x="321" y="-164"/>
      <point x="295" y="-164" type="curve" smooth="yes"/>
      <point x="180" y="-164" type="line"/>
      <point x="180" y="-222" type="line"/>
      <point x="343" y="-222" type="line" smooth="yes"/>
      <point x="397" y="-222"/>
      <point x="430" y="-195"/>
      <point x="430" y="-135" type="curve" smooth="yes"/>
      <point x="430" y="-49" type="line"/>
      <point x="329" y="-49" type="line"/>
    </contour>
  </outline>
</glyph>
<glyph name="onesuperior" format="1">
  <advance width="250"/>
  <unicode hex="00B9"/>
  <outline>
    <contour>
      <point x="142" y="622" type="line"/>
      <point x="27" y="622" type="line"/>
      <point x="27" y="580" type="line"/>
      <point x="142" y="580" type="line"/>
    </contour>
    <contour>
      <point x="108" y="622" type="line"/>
      <point x="108" y="280" type="line"/>
      <point x="183" y="280" type="line"/>
      <point x="183" y="622" type="line"/>
    </contour>
  </outline>
</glyph>
<glyph name="ordmasculine" format="1">
  <advance width="435"/>
  <unicode hex="00BA"/>
  <outline>
    <contour>
      <point x="367" y="569" type="line"/>
      <point x="367" y="605"/>
      <point x="349" y="622"/>
      <point x="314" y="622" type="curve" smooth="yes"/>
      <point x="119" y="622" type="line" smooth="yes"/>
      <point x="83" y="622"/>
      <point x="65" y="605"/>
      <point x="65" y="569" type="curve" smooth="yes"/>
      <point x="65" y="333" type="line" smooth="yes"/>
      <point x="65" y="297"/>
      <point x="83" y="280"/>
      <point x="119" y="280" type="curve" smooth="yes"/>
      <point x="314" y="280" type="line" smooth="yes"/>
      <point x="349" y="280"/>
      <point x="367" y="297"/>
      <point x="367" y="333" type="curve" smooth="yes"/>
    </contour>
    <contour>
      <point x="294" y="343" type="line"/>
      <point x="294" y="326"/>
      <point x="290" y="322"/>
      <point x="273" y="322" type="curve" smooth="yes"/>
      <point x="159" y="322" type="line" smooth="yes"/>
      <point x="141" y="322"/>
      <point x="138" y="326"/>
      <point x="138" y="343" type="curve" smooth="yes"/>
      <point x="138" y="560" type="line" smooth="yes"/>
      <point x="138" y="577"/>
      <point x="141" y="580"/>
      <point x="159" y="580" type="curve" smooth="yes"/>
      <point x="273" y="580" type="line" smooth="yes"/>
      <point x="290" y="580"/>
      <point x="294" y="577"/>
      <point x="294" y="560" type="curve" smooth="yes"/>
    </contour>
  </outline>
</glyph>
<glyph name="guillemotright" format="1">
  <advance width="553"/>
  <unicode hex="00BB"/>
  <outline>
    <contour>
      <point x="457" y="257" type="line"/>
      <point x="330" y="411" type="line"/>
      <point x="216" y="411" type="line"/>
      <point x="344" y="257" type="line"/>
      <point x="216" y="103" type="line"/>
      <point x="330" y="103" type="line"/>
    </contour>
    <contour>
      <point x="325" y="257" type="line"/>
      <point x="198" y="411" type="line"/>
      <point x="83" y="411" type="line"/>
      <point x="211" y="257" type="line"/>
      <point x="83" y="103" type="line"/>
      <point x="198" y="103" type="line"/>
    </contour>
  </outline>
</glyph>
<glyph name="onequarter" format="1">
  <advance width="854"/>
  <unicode hex="00BC"/>
  <outline>
    <contour>
      <point x="490" y="56" type="line"/>
      <point x="820" y="56" type="line"/>
      <point x="820" y="97" type="line"/>
      <point x="490" y="97" type="line"/>
    </contour>
    <contour>
      <point x="462" y="56" type="line"/>
      <point x="525" y="56" type="line"/>
      <point x="704" y="343" type="line"/>
      <point x="622" y="343" type="line"/>
      <point x="462" y="91" type="line"/>
    </contour>
    <contour>
      <point x="682" y="181" type="line"/>
      <point x="682" y="0" type="line"/>
      <point x="757" y="0" type="line"/>
      <point x="757" y="181" type="line"/>
    </contour>
    <component base="slash" xOffset="132"/>
    <component base="onesuperior" xOffset="15"/>
  </outline>
</glyph>
<glyph name="threequarters" format="1">
  <advance width="1000"/>
  <unicode hex="00BE"/>
  <outline>
    <contour>
      <point x="635" y="56" type="line"/>
      <point x="965" y="56" type="line"/>
      <point x="965" y="97" type="line"/>
      <point x="635" y="97" type="line"/>
    </contour>
    <contour>
      <point x="608" y="56" type="line"/>
      <point x="670" y="56" type="line"/>
      <point x="850" y="343" type="line"/>
      <point x="768" y="343" type="line"/>
      <point x="608" y="91" type="line"/>
    </contour>
    <contour>
      <point x="828" y="181" type="line"/>
      <point x="828" y="0" type="line"/>
      <point x="903" y="0" type="line"/>
      <point x="903" y="181" type="line"/>
    </contour>
    <component base="threesuperior" xOffset="4"/>
    <component base="slash" xOffset="285"/>
  </outline>
</glyph>
<glyph name="questiondown" format="1">
  <advance width="621"/>
  <unicode hex="00BF"/>
  <outline>
    <contour>
      <point x="192" y="123" type="line"/>
      <point x="192" y="147"/>
      <point x="195" y="155"/>
      <point x="220" y="155" type="curve" smooth="yes"/>
      <point x="350" y="155" type="line"/>
      <point x="350" y="216" type="line"/>
      <point x="163" y="216" type="line" smooth="yes"/>
      <point x="108" y="216"/>
      <point x="84" y="186"/>
      <point x="84" y="138" type="curve" smooth="yes"/>
      <point x="84" y="-61" type="line" smooth="yes"/>
      <point x="84" y="-109"/>
      <point x="108" y="-138"/>
      <point x="163" y="-138" type="curve" smooth="yes"/>
      <point x="437" y="-138" type="line"/>
      <point x="437" y="-80" type="line"/>
      <point x="220" y="-80" type="line" smooth="yes"/>
      <point x="195" y="-80"/>
      <point x="192" y="-71"/>
      <point x="192" y="-47" type="curve"/>
    </contour>
    <contour>
      <point x="394" y="155" type="line"/>
      <point x="385" y="284" type="line"/>
      <point x="296" y="284" type="line"/>
      <point x="286" y="155" type="line"/>
    </contour>
    <contour>
      <point x="401" y="484" type="line"/>
      <point x="281" y="484" type="line"/>
      <point x="281" y="364" type="line"/>
      <point x="401" y="364" type="line"/>
    </contour>
    <contour>
      <point x="477" y="-47" type="line"/>
      <point x="477" y="-71"/>
      <point x="474" y="-80"/>
      <point x="448" y="-80" type="curve" smooth="yes"/>
      <point x="235" y="-80" type="line"/>
      <point x="235" y="-138" type="line"/>
      <point x="506" y="-138" type="line" smooth="yes"/>
      <point x="562" y="-138"/>
      <point x="585" y="-109"/>
      <point x="585" y="-61" type="curve" smooth="yes"/>
      <point x="585" y="51" type="line"/>
      <point x="477" y="51" type="line"/>
    </contour>
  </outline>
</glyph>
<glyph name="Agrave" format="1">
  <advance width="693"/>
  <unicode hex="00C0"/>
  <outline>
    <contour>
      <point x="271" y="622" type="line"/>
      <point x="30" y="0" type="line"/>
      <point x="139" y="0" type="line"/>
      <point x="346" y="551" type="line"/>
      <point x="554" y="0" type="line"/>
      <point x="663" y="0" type="line"/>
      <point x="421" y="622" type="line"/>
    </contour>
    <contour>
      <point x="140" y="182" type="line"/>
      <point x="140" y="123" type="line"/>
      <point x="554" y="123" type="line"/>
      <point x="554" y="182" type="line"/>
    </contour>
    <contour>
      <point x="118" y="814" type="line"/>
      <point x="282" y="670" type="line"/>
      <point x="383" y="670" type="line"/>
      <point x="244" y="814" type="line"/>
    </contour>
  </outline>
</glyph>
<glyph name="Adieresis" format="1">
  <advance width="693"/>
  <unicode hex="00C4"/>
  <outline>
    <contour>
      <point x="271" y="622" type="line"/>
      <point x="30" y="0" type="line"/>
      <point x="139" y="0" type="line"/>
      <point x="346" y="551" type="line"/>
      <point x="554" y="0" type="line"/>
      <point x="663" y="0" type="line"/>
      <point x="421" y="622" type="line"/>
    </contour>
    <contour>
      <point x="145" y="760" type="line"/>
      <point x="145" y="669" type="line"/>
      <point x="283" y="669" type="line"/>
      <point x="283" y="760" type="line"/>
    </contour>
    <contour>
      <point x="140" y="182" type="line"/>
      <point x="140" y="123" type="line"/>
      <point x="554" y="123" type="line"/>
      <point x="554" y="182" type="line"/>
    </contour>
    <contour>
      <point x="413" y="760" type="line"/>
      <point x="413" y="669" type="line"/>
      <point x="551" y="669" type="line"/>
      <point x="551" y="760" type="line"/>
    </contour>
  </outline>
</glyph>
<glyph name="AE" format="1">
  <advance width="1026"/>
  <unicode hex="00C6"/>
  <outline>
    <contour>
      <point x="582" y="622" type="line"/>
      <point x="470" y="622" type="line"/>
      <point x="27" y="0" type="line"/>
      <point x="145" y="0" type="line"/>
    </contour>
    <contour>
      <point x="558" y="201" type="line"/>
      <point x="199" y="201" type="line"/>
      <point x="199" y="142" type="line"/>
      <point x="558" y="142" type="line"/>
    </contour>
    <contour>
      <point x="528" y="622" type="line"/>
      <point x="528" y="0" type="line"/>
      <point x="639" y="0" type="line"/>
      <point x="639" y="622" type="line"/>
    </contour>
    <contour>
      <point x="970" y="59" type="line"/>
      <point x="579" y="59" type="line"/>
      <point x="579" y="0" type="line"/>
      <point x="970" y="0" type="line"/>
    </contour>
    <contour>
      <point x="925" y="348" type="line"/>
      <point x="584" y="348" type="line"/>
      <point x="584" y="289" type="line"/>
      <point x="925" y="289" type="line"/>
    </contour>
    <contour>
      <point x="957" y="622" type="line"/>
      <point x="579" y="622" type="line"/>
      <point x="579" y="563" type="line"/>
      <point x="957" y="563" type="line"/>
    </contour>
  </outline>
</glyph>
<glyph name="Edieresis" format="1">
  <advance width="603"/>
  <unicode hex="00CB"/>
  <outline>
    <contour>
      <point x="379" y="760" type="line"/>
      <point x="379" y="669" type="line"/>
      <point x="517" y="669" type="line"/>
      <point x="517" y="760" type="line"/>
    </contour>
    <contour>
      <point x="111" y="760" type="line"/>
      <point x="111" y="669" type="line"/>
      <point x="249" y="669" type="line"/>
      <point x="249" y="760" type="line"/>
    </contour>
    <contour>
      <point x="94" y="622" type="line"/>
      <point x="94" y="0" type="line"/>
      <point x="207" y="0" type="line"/>
      <point x="207" y="622" type="line"/>
    </contour>
    <contour>
      <point x="492" y="348" type="line"/>
      <point x="152" y="348" type="line"/>
      <point x="152" y="289" type="line"/>
      <point x="492" y="289" type="line"/>
    </contour>
    <contour>
      <point x="533" y="622" type="line"/>
      <point x="148" y="622" type="line"/>
      <point x="148" y="563" type="line"/>
      <point x="533" y="563" type="line"/>
    </contour>
    <contour>
      <point x="547" y="59" type="line"/>
      <point x="148" y="59" type="line"/>
      <point x="148" y="0" type="line"/>
      <point x="547" y="0" type="line"/>
    </contour>
  </outline>
</glyph>
<glyph name="Idieresis" format="1">
  <advance width="315"/>
  <unicode hex="00CF"/>
  <outline>
    <contour>
      <point x="103" y="622" type="line"/>
      <point x="103" y="0" type="line"/>
      <point x="214" y="0" type="line"/>
      <point x="214" y="622" type="line"/>
    </contour>
    <contour>
      <point x="-45" y="760" type="line"/>
      <point x="-45" y="669" type="line"/>
      <point x="94" y="669" type="line"/>
      <point x="94" y="760" type="line"/>
    </contour>
    <contour>
      <point x="223" y="760" type="line"/>
      <point x="223" y="669" type="line"/>
      <point x="362" y="669" type="line"/>
      <point x="362" y="760" type="line"/>
    </contour>
  </outline>
</glyph>
<glyph name="Eth" format="1">
  <advance width="717"/>
  <unicode hex="00D0"/>
  <outline>
    <contour>
      <point x="522" y="390" type="line"/>
      <point x="633" y="390" type="line"/>
      <point x="633" y="543" type="line" smooth="yes"/>
      <point x="633" y="596"/>
      <point x="607" y="622"/>
      <point x="554" y="622" type="curve" smooth="yes"/>
      <point x="162" y="622" type="line"/>
      <point x="162" y="563" type="line"/>
      <point x="491" y="563" type="line" smooth="yes"/>
      <point x="517" y="563"/>
      <point x="522" y="558"/>
      <point x="522" y="532" type="curve" smooth="yes"/>
    </contour>
    <contour>
      <point x="522" y="90" type="line"/>
      <point x="522" y="64"/>
      <point x="517" y="59"/>
      <point x="491" y="59" type="curve" smooth="yes"/>
      <point x="162" y="59" type="line"/>
      <point x="162" y="0" type="line"/>
      <point x="554" y="0" type="line" smooth="yes"/>
      <point x="607" y="0"/>
      <point x="633" y="26"/>
      <point x="633" y="79" type="curve" smooth="yes"/>
      <point x="633" y="411" type="line"/>
      <point x="522" y="411" type="line"/>
    </contour>
    <contour>
      <point x="113" y="622" type="line"/>
      <point x="113" y="0" type="line"/>
      <point x="224" y="0" type="line"/>
      <point x="224" y="622" type="line"/>
    </contour>
    <contour>
      <point x="411" y="344" type="line"/>
      <point x="58" y="344" type="line"/>
      <point x="58" y="283" type="line"/>
      <point x="411" y="283" type="line"/>
    </contour>
  </outline>
</glyph>
<glyph name="Odieresis" format="1">
  <advance width="670"/>
  <unicode hex="00D6"/>
  <outline>
    <contour>
      <point x="589" y="543" type="line"/>
      <point x="589" y="596"/>
      <point x="563" y="622"/>
      <point x="510" y="622" type="curve" smooth="yes"/>
      <point x="164" y="622" type="line" smooth="yes"/>
      <point x="111" y="622"/>
      <point x="85" y="596"/>
      <point x="85" y="543" type="curve" smooth="yes"/>
      <point x="85" y="79" type="line" smooth="yes"/>
      <point x="85" y="26"/>
      <point x="111" y="0"/>
      <point x="164" y="0" type="curve" smooth="yes"/>
      <point x="510" y="0" type="line" smooth="yes"/>
      <point x="563" y="0"/>
      <point x="589" y="26"/>
      <point x="589" y="79" type="curve" smooth="yes"/>
    </contour>
    <contour>
      <point x="480" y="90" type="line"/>
      <point x="480" y="64"/>
      <point x="475" y="59"/>
      <point x="449" y="59" type="curve" smooth="yes"/>
      <point x="225" y="59" type="line" smooth="yes"/>
      <point x="199" y="59"/>
      <point x="194" y="64"/>
      <point x="194" y="90" type="curve" smooth="yes"/>
      <point x="194" y="532" type="line" smooth="yes"/>
      <point x="194" y="558"/>
      <point x="199" y="563"/>
      <point x="225" y="563" type="curve" smooth="yes"/>
      <point x="449" y="563" type="line" smooth="yes"/>
      <point x="475" y="563"/>
      <point x="480" y="558"/>
      <point x="480" y="532" type="curve" smooth="yes"/>
    </contour>
    <contour>
      <point x="403" y="760" type="line"/>
      <point x="403" y="669" type="line"/>
      <point x="542" y="669" type="line"/>
      <point x="542" y="760" type="line"/>
    </contour>
    <contour>
      <point x="135" y="760" type="line"/>
      <point x="135" y="669" type="line"/>
      <point x="274" y="669" type="line"/>
      <point x="274" y="760" type="line"/>
    </contour>
  </outline>
</glyph>
<glyph name="multiply" format="1">
  <advance width="660"/>
  <unicode hex="00D7"/>
  <outline>
    <contour>
      <point x="578" y="195" type="line"/>
      <point x="136" y="504" type="line"/>
      <point x="83" y="439" type="line"/>
      <point x="525" y="131" type="line"/>
    </contour>
    <contour>
      <point x="529" y="504" type="line"/>
      <point x="88" y="196" type="line"/>
      <point x="140" y="131" type="line"/>
      <point x="583" y="439" type="line"/>
    </contour>
  </outline>
</glyph>
<glyph name="Oslash" format="1">
  <advance width="706"/>
  <unicode hex="00D8"/>
  <outline>
    <contour>
      <point x="612" y="543" type="line"/>
      <point x="612" y="596"/>
      <point x="586" y="622"/>
      <point x="533" y="622" type="curve" smooth="yes"/>
      <point x="173" y="622" type="line" smooth="yes"/>
      <point x="120" y="622"/>
      <point x="94" y="596"/>
      <point x="94" y="543" type="curve" smooth="yes"/>
      <point x="94" y="79" type="line" smooth="yes"/>
      <point x="94" y="26"/>
      <point x="120" y="0"/>
      <point x="173" y="0" type="curve" smooth="yes"/>
      <point x="533" y="0" type="line" smooth="yes"/>
      <point x="586" y="0"/>
      <point x="612" y="26"/>
      <point x="612" y="79" type="curve" smooth="yes"/>
    </contour>
    <contour>
      <point x="505" y="87" type="line"/>
      <point x="505" y="61"/>
      <point x="500" y="56"/>
      <point x="474" y="56" type="curve" smooth="yes"/>
      <point x="230" y="56" type="line" smooth="yes"/>
      <point x="204" y="56"/>
      <point x="199" y="61"/>
      <point x="199" y="87" type="curve" smooth="yes"/>
      <point x="199" y="535" type="line" smooth="yes"/>
      <point x="199" y="561"/>
      <point x="204" y="566"/>
      <point x="230" y="566" type="curve" smooth="yes"/>
      <point x="474" y="566" type="line" smooth="yes"/>
      <point x="500" y="566"/>
      <point x="505" y="561"/>
      <point x="505" y="535" type="curve" smooth="yes"/>
    </contour>
    <contour>
      <point x="553" y="646" type="line"/>
      <point x="79" y="-24" type="line"/>
      <point x="155" y="-24" type="line"/>
      <point x="628" y="646" type="line"/>
    </contour>
  </outline>
</glyph>
<glyph name="Udieresis" format="1">
  <advance width="690"/>
  <unicode hex="00DC"/>
  <outline>
    <contour>
      <point x="496" y="622" type="line"/>
      <point x="496" y="90" type="line" smooth="yes"/>
      <point x="496" y="64"/>
      <point x="491" y="59"/>
      <point x="465" y="59" type="curve" smooth="yes"/>
      <point x="226" y="59" type="line" smooth="yes"/>
      <point x="200" y="59"/>
      <point x="195" y="64"/>
      <point x="195" y="90" type="curve" smooth="yes"/>
      <point x="195" y="622" type="line"/>
      <point x="85" y="622" type="line"/>
      <point x="85" y="79" type="line" smooth="yes"/>
      <point x="85" y="26"/>
      <point x="111" y="0"/>
      <point x="164" y="0" type="curve" smooth="yes"/>
      <point x="526" y="0" type="line" smooth="yes"/>
      <point x="579" y="0"/>
      <point x="605" y="26"/>
      <point x="605" y="79" type="curve" smooth="yes"/>
      <point x="605" y="622" type="line"/>
    </contour>
    <contour>
      <point x="137" y="760" type="line"/>
      <point x="137" y="669" type="line"/>
      <point x="276" y="669" type="line"/>
      <point x="276" y="760" type="line"/>
    </contour>
    <contour>
      <point x="405" y="760" type="line"/>
      <point x="405" y="669" type="line"/>
      <point x="544" y="669" type="line"/>
      <point x="544" y="760" type="line"/>
    </contour>
  </outline>
</glyph>
<glyph name="Thorn" format="1">
  <advance width="673"/>
  <unicode hex="00DE"/>
  <outline>
    <contour>
      <point x="499" y="192" type="line"/>
      <point x="499" y="166"/>
      <point x="494" y="161"/>
      <point x="468" y="161" type="curve" smooth="yes"/>
      <point x="145" y="161" type="line"/>
      <point x="145" y="102" type="line"/>
      <point x="528" y="102" type="line" smooth="yes"/>
      <point x="581" y="102"/>
      <point x="607" y="128"/>
      <point x="607" y="181" type="curve" smooth="yes"/>
      <point x="607" y="441" type="line" smooth="yes"/>
      <point x="607" y="494"/>
      <point x="581" y="520"/>
      <point x="528" y="520" type="curve" smooth="yes"/>
      <point x="136" y="520" type="line"/>
      <point x="136" y="461" type="line"/>
      <point x="468" y="461" type="line" smooth="yes"/>
      <point x="494" y="461"/>
      <point x="499" y="456"/>
      <point x="499" y="430" type="curve" smooth="yes"/>
    </contour>
    <contour>
      <point x="95" y="622" type="line"/>
      <point x="95" y="0" type="line"/>
      <point x="205" y="0" type="line"/>
      <point x="205" y="622" type="line"/>
    </contour>
  </outline>
</glyph>
<glyph name="germandbls" format="1">
  <advance width="830"/>
  <unicode hex="00DF"/>
  <outline>
    <contour>
      <point x="323" y="152" type="line"/>
      <point x="323" y="79" type="line" smooth="yes"/>
      <point x="323" y="26"/>
      <point x="349" y="0"/>
      <point x="402" y="0" type="curve" smooth="yes"/>
      <point x="696" y="0" type="line" smooth="yes"/>
      <point x="749" y="0"/>
      <point x="775" y="26"/>
      <point x="775" y="79" type="curve" smooth="yes"/>
      <point x="775" y="211" type="line" smooth="yes"/>
      <point x="775" y="264"/>
      <point x="749" y="290"/>
      <point x="696" y="290" type="curve" smooth="yes"/>
      <point x="456" y="290" type="line" smooth="yes"/>
      <point x="430" y="290"/>
      <point x="425" y="295"/>
      <point x="425" y="321" type="curve" smooth="yes"/>
      <point x="425" y="376" type="line" smooth="yes"/>
      <point x="425" y="402"/>
      <point x="430" y="407"/>
      <point x="456" y="407" type="curve" smooth="yes"/>
      <point x="668" y="407" type="line" smooth="yes"/>
      <point x="713" y="407"/>
      <point x="738" y="431"/>
      <point x="738" y="475" type="curve" smooth="yes"/>
      <point x="738" y="543" type="line" smooth="yes"/>
      <point x="738" y="596"/>
      <point x="712" y="622"/>
      <point x="659" y="622" type="curve" smooth="yes"/>
      <point x="174" y="622" type="line" smooth="yes"/>
      <point x="121" y="622"/>
      <point x="95" y="596"/>
      <point x="95" y="543" type="curve" smooth="yes"/>
      <point x="95" y="0" type="line"/>
      <point x="203" y="0" type="line"/>
      <point x="203" y="529" type="line" smooth="yes"/>
      <point x="203" y="555"/>
      <point x="209" y="561"/>
      <point x="235" y="561" type="curve" smooth="yes"/>
      <point x="599" y="561" type="line" smooth="yes"/>
      <point x="625" y="561"/>
      <point x="630" y="555"/>
      <point x="630" y="529" type="curve" smooth="yes"/>
      <point x="630" y="492" type="line" smooth="yes"/>
      <point x="630" y="469"/>
      <point x="624" y="465"/>
      <point x="594" y="465" type="curve" smooth="yes"/>
      <point x="397" y="465" type="line" smooth="yes"/>
      <point x="349" y="465"/>
      <point x="322" y="441"/>
      <point x="322" y="386" type="curve" smooth="yes"/>
      <point x="322" y="311" type="line" smooth="yes"/>
      <point x="322" y="258"/>
      <point x="348" y="232"/>
      <point x="401" y="232" type="curve" smooth="yes"/>
      <point x="639" y="232" type="line" smooth="yes"/>
      <point x="665" y="232"/>
      <point x="670" y="227"/>
      <point x="670" y="201" type="curve" smooth="yes"/>
      <point x="670" y="89" type="line" smooth="yes"/>
      <point x="670" y="63"/>
      <point x="665" y="58"/>
      <point x="639" y="58" type="curve" smooth="yes"/>
      <point x="459" y="58" type="line" smooth="yes"/>
      <point x="433" y="58"/>
      <point x="428" y="63"/>
      <point x="428" y="89" type="curve" smooth="yes"/>
      <point x="428" y="152" type="line"/>
    </contour>
  </outline>
</glyph>
<glyph name="ae" format="1">
  <advance width="974"/>
  <unicode hex="00E6"/>
  <outline>
    <contour>
      <point x="459" y="287" type="line"/>
      <point x="76" y="200" type="line"/>
      <point x="183" y="162" type="line"/>
      <point x="483" y="229" type="line"/>
    </contour>
    <contour>
      <point x="76" y="200" type="line"/>
      <point x="76" y="79" type="line" smooth="yes"/>
      <point x="76" y="26"/>
      <point x="102" y="0"/>
      <point x="155" y="0" type="curve" smooth="yes"/>
      <point x="402" y="0" type="line" smooth="yes"/>
      <point x="449" y="0"/>
      <point x="470" y="18"/>
      <point x="476" y="38" type="curve"/>
      <point x="482" y="18"/>
      <point x="500" y="0"/>
      <point x="544" y="0" type="curve" smooth="yes"/>
      <point x="814" y="0" type="line" smooth="yes"/>
      <point x="867" y="0"/>
      <point x="893" y="26"/>
      <point x="893" y="79" type="curve" smooth="yes"/>
      <point x="893" y="140" type="line"/>
      <point x="788" y="140" type="line"/>
      <point x="788" y="90" type="line" smooth="yes"/>
      <point x="788" y="64"/>
      <point x="783" y="59"/>
      <point x="757" y="59" type="curve" smooth="yes"/>
      <point x="561" y="59" type="line" smooth="yes"/>
      <point x="535" y="59"/>
      <point x="530" y="64"/>
      <point x="530" y="90" type="curve" smooth="yes"/>
      <point x="530" y="395" type="line" smooth="yes"/>
      <point x="530" y="421"/>
      <point x="535" y="426"/>
      <point x="561" y="426" type="curve" smooth="yes"/>
      <point x="760" y="426" type="line" smooth="yes"/>
      <point x="786" y="426"/>
      <point x="791" y="421"/>
      <point x="791" y="395" type="curve" smooth="yes"/>
      <point x="791" y="220" type="line"/>
      <point x="896" y="220" type="line"/>
      <point x="896" y="406" type="line" smooth="yes"/>
      <point x="896" y="459"/>
      <point x="870" y="485"/>
      <point x="817" y="485" type="curve" smooth="yes"/>
      <point x="544" y="485" type="line" smooth="yes"/>
      <point x="500" y="485"/>
      <point x="482" y="467"/>
      <point x="476" y="447" type="curve"/>
      <point x="470" y="467"/>
      <point x="449" y="485"/>
      <point x="402" y="485" type="curve" smooth="yes"/>
      <point x="155" y="485" type="line" smooth="yes"/>
      <point x="102" y="485"/>
      <point x="76" y="459"/>
      <point x="76" y="406" type="curve" smooth="yes"/>
      <point x="76" y="309" type="line"/>
      <point x="183" y="309" type="line"/>
      <point x="183" y="395" type="line" smooth="yes"/>
      <point x="183" y="421"/>
      <point x="188" y="426"/>
      <point x="214" y="426" type="curve" smooth="yes"/>
      <point x="391" y="426" type="line" smooth="yes"/>
      <point x="414" y="426"/>
      <point x="424" y="420"/>
      <point x="424" y="396" type="curve" smooth="yes"/>
      <point x="424" y="89" type="line" smooth="yes"/>
      <point x="424" y="66"/>
      <point x="414" y="59"/>
      <point x="391" y="59" type="curve" smooth="yes"/>
      <point x="214" y="59" type="line" smooth="yes"/>
      <point x="188" y="59"/>
      <point x="183" y="64"/>
      <point x="183" y="90" type="curve" smooth="yes"/>
      <point x="183" y="162" type="line"/>
    </contour>
    <contour>
      <point x="887" y="278" type="line"/>
      <point x="475" y="278" type="line"/>
      <point x="475" y="219" type="line"/>
      <point x="887" y="219" type="line"/>
    </contour>
  </outline>
</glyph>
<glyph name="edieresis" format="1">
  <advance width="623"/>
  <unicode hex="00EB"/>
  <outline>
    <contour>
      <point x="251" y="623" type="line"/>
      <point x="112" y="623" type="line"/>
      <point x="112" y="532" type="line"/>
      <point x="251" y="532" type="line"/>
    </contour>
    <contour>
      <point x="519" y="623" type="line"/>
      <point x="380" y="623" type="line"/>
      <point x="380" y="532" type="line"/>
      <point x="519" y="532" type="line"/>
    </contour>
    <contour>
      <point x="154" y="485" type="line"/>
      <point x="101" y="485"/>
      <point x="75" y="459"/>
      <point x="75" y="406" type="curve" smooth="yes"/>
      <point x="75" y="79" type="line" smooth="yes"/>
      <point x="75" y="26"/>
      <point x="101" y="0"/>
      <point x="154" y="0" type="curve" smooth="yes"/>
      <point x="476" y="0" type="line" smooth="yes"/>
      <point x="529" y="0"/>
      <point x="555" y="26"/>
      <point x="555" y="79" type="curve" smooth="yes"/>
      <point x="555" y="141" type="line"/>
      <point x="451" y="141" type="line"/>
      <point x="451" y="90" type="line" smooth="yes"/>
      <point x="451" y="64"/>
      <point x="446" y="59"/>
      <point x="420" y="59" type="curve" smooth="yes"/>
      <point x="213" y="59" type="line" smooth="yes"/>
      <point x="187" y="59"/>
      <point x="182" y="64"/>
      <point x="182" y="90" type="curve" smooth="yes"/>
      <point x="182" y="219" type="line"/>
      <point x="558" y="219" type="line"/>
      <point x="558" y="406" type="line" smooth="yes"/>
      <point x="558" y="459"/>
      <point x="532" y="485"/>
      <point x="479" y="485" type="curve" smooth="yes"/>
    </contour>
    <contour>
      <point x="182" y="278" type="line"/>
      <point x="182" y="395" type="line" smooth="yes"/>
      <point x="182" y="421"/>
      <point x="187" y="426"/>
      <point x="213" y="426" type="curve" smooth="yes"/>
      <point x="422" y="426" type="line" smooth="yes"/>
      <point x="448" y="426"/>
      <point x="453" y="421"/>
      <point x="453" y="395" type="curve" smooth="yes"/>
      <point x="453" y="278" type="line"/>
    </contour>
  </outline>
</glyph>
<glyph name="igrave" format="1">
  <advance width="295"/>
  <unicode hex="00EC"/>
  <outline>
    <contour>
      <point x="201" y="0" type="line"/>
      <point x="201" y="485" type="line"/>
      <point x="94" y="485" type="line"/>
      <point x="94" y="0" type="line"/>
    </contour>
    <component base="grave" xOffset="-242" yOffset="26"/>
  </outline>
</glyph>
<glyph name="iacute" format="1">
  <advance width="295"/>
  <unicode hex="00ED"/>
  <outline>
    <contour>
      <point x="201" y="0" type="line"/>
      <point x="201" y="485" type="line"/>
      <point x="94" y="485" type="line"/>
      <point x="94" y="0" type="line"/>
    </contour>
    <component base="acute" xOffset="-67" yOffset="26"/>
  </outline>
</glyph>
<glyph name="icircumflex" format="1">
  <advance width="295"/>
  <unicode hex="00EE"/>
  <outline>
    <contour>
      <point x="201" y="0" type="line"/>
      <point x="201" y="485" type="line"/>
      <point x="94" y="485" type="line"/>
      <point x="94" y="0" type="line"/>
    </contour>
    <component base="circumflex" xOffset="-158" yOffset="26"/>
  </outline>
</glyph>
<glyph name="idieresis" format="1">
  <advance width="295"/>
  <unicode hex="00EF"/>
  <outline>
    <contour>
      <point x="201" y="0" type="line"/>
      <point x="201" y="485" type="line"/>
      <point x="94" y="485" type="line"/>
      <point x="94" y="0" type="line"/>
    </contour>
    <component base="dieresis" xOffset="-155" yOffset="-6"/>
  </outline>
</glyph>
<glyph name="eth" format="1">
  <advance width="688"/>
  <unicode hex="00F0"/>
  <outline>
    <contour>
      <point x="201" y="90" type="line"/>
      <point x="201" y="64"/>
      <point x="206" y="59"/>
      <point x="232" y="59" type="curve" smooth="yes"/>
      <point x="431" y="59" type="line"/>
      <point x="431" y="0" type="line"/>
      <point x="173" y="0" type="line" smooth="yes"/>
      <point x="120" y="0"/>
      <point x="94" y="26"/>
      <point x="94" y="79" type="curve" smooth="yes"/>
      <point x="94" y="299" type="line" smooth="yes"/>
      <point x="94" y="352"/>
      <point x="120" y="378"/>
      <point x="173" y="378" type="curve" smooth="yes"/>
      <point x="507" y="378" type="line"/>
      <point x="507" y="319" type="line"/>
      <point x="232" y="319" type="line" smooth="yes"/>
      <point x="206" y="319"/>
      <point x="201" y="314"/>
      <point x="201" y="288" type="curve" smooth="yes"/>
    </contour>
    <contour>
      <point x="485" y="318" type="line"/>
      <point x="485" y="463"/>
      <point x="330" y="567"/>
      <point x="238" y="622" type="curve"/>
      <point x="382" y="622" type="line"/>
      <point x="455" y="572"/>
      <point x="592" y="461"/>
      <point x="592" y="315" type="curve" smooth="yes"/>
      <point x="592" y="79" type="line" smooth="yes"/>
      <point x="592" y="26"/>
      <point x="566" y="0"/>
      <point x="513" y="0" type="curve" smooth="yes"/>
      <point x="421" y="0" type="line"/>
      <point x="421" y="59" type="line"/>
      <point x="454" y="59" type="line" smooth="yes"/>
      <point x="480" y="59"/>
      <point x="485" y="64"/>
      <point x="485" y="90" type="curve" smooth="yes"/>
    </contour>
    <contour>
      <point x="249" y="434" type="line"/>
      <point x="249" y="490" type="line"/>
      <point x="589" y="581" type="line"/>
      <point x="589" y="525" type="line"/>
    </contour>
  </outline>
</glyph>
<glyph name="odieresis" format="1">
  <advance width="628"/>
  <unicode hex="00F6"/>
  <outline>
    <contour>
      <point x="155" y="485" type="line"/>
      <point x="102" y="485"/>
      <point x="76" y="459"/>
      <point x="76" y="406" type="curve" smooth="yes"/>
      <point x="76" y="79" type="line" smooth="yes"/>
      <point x="76" y="26"/>
      <point x="102" y="0"/>
      <point x="155" y="0" type="curve" smooth="yes"/>
      <point x="473" y="0" type="line" smooth="yes"/>
      <point x="526" y="0"/>
      <point x="552" y="26"/>
      <point x="552" y="79" type="curve" smooth="yes"/>
      <point x="552" y="406" type="line" smooth="yes"/>
      <point x="552" y="459"/>
      <point x="526" y="485"/>
      <point x="473" y="485" type="curve" smooth="yes"/>
    </contour>
    <contour>
      <point x="446" y="395" type="curve" smooth="yes"/>
      <point x="446" y="90" type="line" smooth="yes"/>
      <point x="446" y="64"/>
      <point x="441" y="59"/>
      <point x="415" y="59" type="curve" smooth="yes"/>
      <point x="213" y="59" type="line" smooth="yes"/>
      <point x="187" y="59"/>
      <point x="182" y="64"/>
      <point x="182" y="90" type="curve" smooth="yes"/>
      <point x="182" y="395" type="line" smooth="yes"/>
      <point x="182" y="421"/>
      <point x="187" y="426"/>
      <point x="213" y="426" type="curve" smooth="yes"/>
      <point x="415" y="426" type="line" smooth="yes"/>
      <point x="441" y="426"/>
      <point x="446" y="421"/>
    </contour>
    <contour>
      <point x="114" y="623" type="line"/>
      <point x="114" y="532" type="line"/>
      <point x="253" y="532" type="line"/>
      <point x="253" y="623" type="line"/>
    </contour>
    <contour>
      <point x="382" y="623" type="line"/>
      <point x="382" y="532" type="line"/>
      <point x="521" y="532" type="line"/>
      <point x="521" y="623" type="line"/>
    </contour>
  </outline>
</glyph>
<glyph name="divide" format="1">
  <advance width="655"/>
  <unicode hex="00F7"/>
  <outline>
    <contour>
      <point x="56" y="272" type="line"/>
      <point x="595" y="272" type="line"/>
      <point x="595" y="350" type="line"/>
      <point x="56" y="350" type="line"/>
    </contour>
    <contour>
      <point x="271" y="506" type="line"/>
      <point x="271" y="422" type="line"/>
      <point x="381" y="422" type="line"/>
      <point x="381" y="506" type="line"/>
    </contour>
    <contour>
      <point x="271" y="200" type="line"/>
      <point x="271" y="115" type="line"/>
      <point x="381" y="115" type="line"/>
      <point x="381" y="200" type="line"/>
    </contour>
  </outline>
</glyph>
<glyph name="oslash" format="1">
  <advance width="645"/>
  <unicode hex="00F8"/>
  <outline>
    <contour>
      <point x="561" y="406" type="line"/>
      <point x="561" y="459"/>
      <point x="535" y="485"/>
      <point x="482" y="485" type="curve" smooth="yes"/>
      <point x="163" y="485" type="line" smooth="yes"/>
      <point x="110" y="485"/>
      <point x="84" y="459"/>
      <point x="84" y="406" type="curve" smooth="yes"/>
      <point x="84" y="79" type="line" smooth="yes"/>
      <point x="84" y="26"/>
      <point x="110" y="0"/>
      <point x="163" y="0" type="curve" smooth="yes"/>
      <point x="482" y="0" type="line" smooth="yes"/>
      <point x="535" y="0"/>
      <point x="561" y="26"/>
      <point x="561" y="79" type="curve" smooth="yes"/>
    </contour>
    <contour>
      <point x="459" y="87" type="line"/>
      <point x="459" y="60"/>
      <point x="454" y="55"/>
      <point x="427" y="55" type="curve" smooth="yes"/>
      <point x="219" y="55" type="line" smooth="yes"/>
      <point x="192" y="55"/>
      <point x="187" y="60"/>
      <point x="187" y="87" type="curve" smooth="yes"/>
      <point x="187" y="399" type="line" smooth="yes"/>
      <point x="187" y="425"/>
      <point x="192" y="430"/>
      <point x="219" y="430" type="curve" smooth="yes"/>
      <point x="427" y="430" type="line" smooth="yes"/>
      <point x="454" y="430"/>
      <point x="459" y="425"/>
      <point x="459" y="399" type="curve" smooth="yes"/>
    </contour>
    <contour>
      <point x="512" y="509" type="line"/>
      <point x="73" y="-24" type="line"/>
      <point x="142" y="-24" type="line"/>
      <point x="582" y="509" type="line"/>
    </contour>
  </outline>
</glyph>
<glyph name="thorn" format="1">
  <advance width="634"/>
  <unicode hex="00FE"/>
  <outline>
    <contour>
      <point x="558" y="235" type="line"/>
      <point x="558" y="415" type="line" smooth="yes"/>
      <point x="558" y="468"/>
      <point x="532" y="494"/>
      <point x="479" y="494" type="curve" smooth="yes"/>
      <point x="247" y="494" type="line" smooth="yes"/>
      <point x="206" y="494"/>
      <point x="187" y="474"/>
      <point x="187" y="426" type="curve" smooth="yes"/>
      <point x="187" y="368" type="line"/>
      <point x="192" y="368" type="line"/>
      <point x="192" y="401" type="line" smooth="yes"/>
      <point x="192" y="426"/>
      <point x="202" y="435"/>
      <point x="227" y="435" type="curve" smooth="yes"/>
      <point x="420" y="435" type="line" smooth="yes"/>
      <point x="446" y="435"/>
      <point x="451" y="430"/>
      <point x="451" y="404" type="curve" smooth="yes"/>
      <point x="451" y="235" type="line"/>
    </contour>
    <contour>
      <point x="192" y="-141" type="line"/>
      <point x="192" y="419" type="line"/>
      <point x="191" y="429" type="line"/>
      <point x="191" y="669" type="line"/>
      <point x="85" y="669" type="line"/>
      <point x="85" y="-141" type="line"/>
    </contour>
    <contour>
      <point x="451" y="269" type="line"/>
      <point x="451" y="100" type="line" smooth="yes"/>
      <point x="451" y="74"/>
      <point x="446" y="69"/>
      <point x="420" y="69" type="curve" smooth="yes"/>
      <point x="227" y="69" type="line" smooth="yes"/>
      <point x="202" y="69"/>
      <point x="192" y="78"/>
      <point x="192" y="103" type="curve" smooth="yes"/>
      <point x="192" y="127" type="line"/>
      <point x="187" y="127" type="line"/>
      <point x="187" y="78" type="line" smooth="yes"/>
      <point x="187" y="30"/>
      <point x="206" y="10"/>
      <point x="247" y="10" type="curve" smooth="yes"/>
      <point x="479" y="10" type="line" smooth="yes"/>
      <point x="532" y="10"/>
      <point x="558" y="36"/>
      <point x="558" y="89" type="curve" smooth="yes"/>
      <point x="558" y="269" type="line"/>
    </contour>
  </outline>
</glyph>
<glyph name="ydieresis" format="1">
  <advance width="594"/>
  <unicode hex="00FF"/>
  <outline>
    <contour>
      <point x="31" y="485" type="line"/>
      <point x="240" y="0" type="line"/>
      <point x="278" y="0" type="line"/>
      <point x="258" y="-43" type="line" smooth="yes"/>
      <point x="244" y="-72"/>
      <point x="222" y="-82"/>
      <point x="183" y="-82" type="curve" smooth="yes"/>
      <point x="117" y="-82" type="line"/>
      <point x="117" y="-141" type="line"/>
      <point x="219" y="-141" type="line" smooth="yes"/>
      <point x="300" y="-141"/>
      <point x="326" y="-105"/>
      <point x="351" y="-47" type="curve" smooth="yes"/>
      <point x="581" y="485" type="line"/>
      <point x="474" y="485" type="line"/>
      <point x="308" y="72" type="line"/>
      <point x="140" y="485" type="line"/>
    </contour>
    <contour>
      <point x="375" y="623" type="line"/>
      <point x="375" y="532" type="line"/>
      <point x="514" y="532" type="line"/>
      <point x="514" y="623" type="line"/>
    </contour>
    <contour>
      <point x="107" y="623" type="line"/>
      <point x="107" y="532" type="line"/>
      <point x="246" y="532" type="line"/>
      <point x="246" y="623" type="line"/>
    </contour>
  </outline>
</glyph>
<glyph name="dcaron" format="1">
  <advance width="641"/>
  <unicode hex="010F"/>
  <outline>
    <contour>
      <point x="441" y="454" type="line"/>
      <point x="432" y="476"/>
      <point x="414" y="485"/>
      <point x="386" y="485" type="curve" smooth="yes"/>
      <point x="154" y="485" type="line" smooth="yes"/>
      <point x="101" y="485"/>
      <point x="75" y="459"/>
      <point x="75" y="406" type="curve" smooth="yes"/>
      <point x="75" y="79" type="line" smooth="yes"/>
      <point x="75" y="26"/>
      <point x="101" y="0"/>
      <point x="154" y="0" type="curve" smooth="yes"/>
      <point x="386" y="0" type="line" smooth="yes"/>
      <point x="414" y="0"/>
      <point x="432" y="9"/>
      <point x="441" y="31" type="curve"/>
      <point x="441" y="0" type="line"/>
      <point x="548" y="0" type="line"/>
      <point x="548" y="669" type="line"/>
      <point x="441" y="669" type="line"/>
    </contour>
    <contour>
      <point x="638" y="669" type="line"/>
      <point x="638" y="495" type="line"/>
      <point x="673" y="495" type="line"/>
      <point x="743" y="621" type="line"/>
      <point x="743" y="669" type="line"/>
    </contour>
    <contour>
      <point x="213" y="59" type="line"/>
      <point x="187" y="59"/>
      <point x="182" y="64"/>
      <point x="182" y="90" type="curve" smooth="yes"/>
      <point x="182" y="395" type="line" smooth="yes"/>
      <point x="182" y="421"/>
      <point x="187" y="426"/>
      <point x="213" y="426" type="curve" smooth="yes"/>
      <point x="407" y="426" type="line" smooth="yes"/>
      <point x="431" y="426"/>
      <point x="441" y="417"/>
      <point x="441" y="392" type="curve" smooth="yes"/>
      <point x="441" y="93" type="line" smooth="yes"/>
      <point x="441" y="68"/>
      <point x="431" y="59"/>
      <point x="407" y="59" type="curve" smooth="yes"/>
    </contour>
  </outline>
</glyph>
<glyph name="Dcroat" format="1">
  <advance width="755"/>
  <unicode hex="0110"/>
  <outline>
    <contour>
      <point x="559" y="390" type="line"/>
      <point x="669" y="390" type="line"/>
      <point x="669" y="543" type="line" smooth="yes"/>
      <point x="669" y="596"/>
      <point x="643" y="622"/>
      <point x="590" y="622" type="curve" smooth="yes"/>
      <point x="199" y="622" type="line"/>
      <point x="199" y="563" type="line"/>
      <point x="528" y="563" type="line" smooth="yes"/>
      <point x="554" y="563"/>
      <point x="559" y="558"/>
      <point x="559" y="532" type="curve" smooth="yes"/>
    </contour>
    <contour>
      <point x="559" y="90" type="line"/>
      <point x="559" y="64"/>
      <point x="554" y="59"/>
      <point x="528" y="59" type="curve" smooth="yes"/>
      <point x="199" y="59" type="line"/>
      <point x="199" y="0" type="line"/>
      <point x="590" y="0" type="line" smooth="yes"/>
      <point x="643" y="0"/>
      <point x="669" y="26"/>
      <point x="669" y="79" type="curve" smooth="yes"/>
      <point x="669" y="411" type="line"/>
      <point x="559" y="411" type="line"/>
    </contour>
    <contour>
      <point x="150" y="622" type="line"/>
      <point x="150" y="0" type="line"/>
      <point x="260" y="0" type="line"/>
      <point x="260" y="622" type="line"/>
    </contour>
    <contour>
      <point x="448" y="344" type="line"/>
      <point x="94" y="344" type="line"/>
      <point x="94" y="283" type="line"/>
      <point x="448" y="283" type="line"/>
    </contour>
  </outline>
</glyph>
<glyph name="gcommaaccent" format="1">
  <advance width="625"/>
  <unicode hex="0123"/>
  <outline>
    <contour>
      <point x="363" y="710" type="line"/>
      <point x="285" y="581" type="line"/>
      <point x="285" y="531" type="line"/>
      <point x="400" y="531" type="line"/>
      <point x="400" y="710" type="line"/>
    </contour>
    <component base="g"/>
  </outline>
</glyph>
<glyph name="imacron" format="1">
  <advance width="295"/>
  <unicode hex="012B"/>
  <outline>
    <contour>
      <point x="201" y="0" type="line"/>
      <point x="201" y="485" type="line"/>
      <point x="94" y="485" type="line"/>
      <point x="94" y="0" type="line"/>
    </contour>
    <component base="macron" xOffset="-154" yOffset="-17"/>
  </outline>
</glyph>
<glyph name="Idotaccent" format="1">
  <advance width="296"/>
  <unicode hex="0130"/>
  <outline>
    <contour>
      <point x="94" y="503" type="line"/>
      <point x="94" y="0" type="line"/>
      <point x="204" y="0" type="line"/>
      <point x="204" y="503" type="line"/>
    </contour>
    <contour>
      <point x="86" y="648" type="line"/>
      <point x="86" y="550" type="line"/>
      <point x="211" y="550" type="line"/>
      <point x="211" y="648" type="line"/>
    </contour>
  </outline>
</glyph>
<glyph name="dotlessi" format="1">
  <advance width="295"/>
  <unicode hex="0131"/>
  <outline>
    <contour>
      <point x="94" y="485" type="line"/>
      <point x="94" y="0" type="line"/>
      <point x="201" y="0" type="line"/>
      <point x="201" y="485" type="line"/>
    </contour>
  </outline>
</glyph>
<glyph name="lcaron" format="1">
  <advance width="304"/>
  <unicode hex="013E"/>
  <outline>
    <contour>
      <point x="94" y="669" type="line"/>
      <point x="94" y="0" type="line"/>
      <point x="201" y="0" type="line"/>
      <point x="201" y="669" type="line"/>
    </contour>
    <contour>
      <point x="291" y="668" type="line"/>
      <point x="291" y="494" type="line"/>
      <point x="327" y="494" type="line"/>
      <point x="397" y="620" type="line"/>
      <point x="397" y="668" type="line"/>
    </contour>
  </outline>
</glyph>
<glyph name="Lslash" format="1">
  <advance width="549"/>
  <unicode hex="0141"/>
  <outline>
    <contour>
      <point x="372" y="401" type="line"/>
      <point x="-26" y="268" type="line"/>
      <point x="-26" y="206" type="line"/>
      <point x="372" y="339" type="line"/>
    </contour>
    <component base="L" xOffset="1"/>
  </outline>
</glyph>
<glyph name="lslash" format="1">
  <advance width="297"/>
  <unicode hex="0142"/>
  <outline>
    <contour>
      <point x="324" y="431" type="line"/>
      <point x="-22" y="316" type="line"/>
      <point x="-22" y="254" type="line"/>
      <point x="324" y="370" type="line"/>
    </contour>
    <component base="l"/>
  </outline>
</glyph>
<glyph name="Ohungarumlaut" format="1">
  <advance width="670"/>
  <unicode hex="0150"/>
  <outline>
    <contour>
      <point x="164" y="622" type="line"/>
      <point x="111" y="622"/>
      <point x="85" y="596"/>
      <point x="85" y="543" type="curve" smooth="yes"/>
      <point x="85" y="79" type="line" smooth="yes"/>
      <point x="85" y="26"/>
      <point x="111" y="0"/>
      <point x="164" y="0" type="curve" smooth="yes"/>
      <point x="510" y="0" type="line" smooth="yes"/>
      <point x="563" y="0"/>
      <point x="589" y="26"/>
      <point x="589" y="79" type="curve" smooth="yes"/>
      <point x="589" y="543" type="line" smooth="yes"/>
      <point x="589" y="596"/>
      <point x="563" y="622"/>
      <point x="510" y="622" type="curve" smooth="yes"/>
    </contour>
    <contour>
      <point x="480" y="532" type="curve" smooth="yes"/>
      <point x="480" y="90" type="line" smooth="yes"/>
      <point x="480" y="64"/>
      <point x="475" y="59"/>
      <point x="449" y="59" type="curve" smooth="yes"/>
      <point x="225" y="59" type="line" smooth="yes"/>
      <point x="199" y="59"/>
      <point x="194" y="64"/>
      <point x="194" y="90" type="curve" smooth="yes"/>
      <point x="194" y="532" type="line" smooth="yes"/>
      <point x="194" y="558"/>
      <point x="199" y="563"/>
      <point x="225" y="563" type="curve" smooth="yes"/>
      <point x="449" y="563" type="line" smooth="yes"/>
      <point x="475" y="563"/>
      <point x="480" y="558"/>
    </contour>
    <contour>
      <point x="345" y="831" type="line"/>
      <point x="197" y="669" type="line"/>
      <point x="287" y="669" type="line"/>
      <point x="460" y="831" type="line"/>
    </contour>
    <contour>
      <point x="563" y="831" type="line"/>
      <point x="413" y="669" type="line"/>
      <point x="503" y="669" type="line"/>
      <point x="677" y="831" type="line"/>
    </contour>
  </outline>
</glyph>
<glyph name="OE" format="1">
  <advance width="962"/>
  <unicode hex="0152"/>
  <outline>
    <contour>
      <point x="539" y="534" type="line"/>
      <point x="539" y="589"/>
      <point x="514" y="622"/>
      <point x="451" y="622" type="curve" smooth="yes"/>
      <point x="164" y="622" type="line" smooth="yes"/>
      <point x="111" y="622"/>
      <point x="85" y="596"/>
      <point x="85" y="543" type="curve" smooth="yes"/>
      <point x="85" y="79" type="line" smooth="yes"/>
      <point x="85" y="26"/>
      <point x="111" y="0"/>
      <point x="164" y="0" type="curve" smooth="yes"/>
      <point x="451" y="0" type="line" smooth="yes"/>
      <point x="515" y="0"/>
      <point x="539" y="33"/>
      <point x="539" y="88" type="curve" smooth="yes"/>
    </contour>
    <contour>
      <point x="483" y="90" type="line"/>
      <point x="483" y="64"/>
      <point x="478" y="59"/>
      <point x="452" y="59" type="curve" smooth="yes"/>
      <point x="226" y="59" type="line" smooth="yes"/>
      <point x="200" y="59"/>
      <point x="195" y="64"/>
      <point x="195" y="90" type="curve" smooth="yes"/>
      <point x="195" y="532" type="line" smooth="yes"/>
      <point x="195" y="558"/>
      <point x="200" y="563"/>
      <point x="226" y="563" type="curve" smooth="yes"/>
      <point x="452" y="563" type="line" smooth="yes"/>
      <point x="478" y="563"/>
      <point x="483" y="558"/>
      <point x="483" y="532" type="curve" smooth="yes"/>
    </contour>
    <contour>
      <point x="510" y="622" type="line"/>
      <point x="510" y="0" type="line"/>
      <point x="597" y="0" type="line"/>
      <point x="597" y="622" type="line"/>
    </contour>
    <contour>
      <point x="861" y="348" type="line"/>
      <point x="551" y="348" type="line"/>
      <point x="551" y="289" type="line"/>
      <point x="861" y="289" type="line"/>
    </contour>
    <contour>
      <point x="894" y="622" type="line"/>
      <point x="539" y="622" type="line"/>
      <point x="539" y="563" type="line"/>
      <point x="894" y="563" type="line"/>
    </contour>
    <contour>
      <point x="906" y="59" type="line"/>
      <point x="539" y="59" type="line"/>
      <point x="539" y="0" type="line"/>
      <point x="906" y="0" type="line"/>
    </contour>
  </outline>
</glyph>
<glyph name="oe" format="1">
  <advance width="965"/>
  <unicode hex="0153"/>
  <outline>
    <contour>
      <point x="76" y="79" type="line"/>
      <point x="76" y="26"/>
      <point x="102" y="0"/>
      <point x="155" y="0" type="curve" smooth="yes"/>
      <point x="411" y="0" type="line" smooth="yes"/>
      <point x="457" y="0"/>
      <point x="478" y="18"/>
      <point x="484" y="38" type="curve"/>
      <point x="490" y="18"/>
      <point x="509" y="0"/>
      <point x="552" y="0" type="curve" smooth="yes"/>
      <point x="818" y="0" type="line" smooth="yes"/>
      <point x="871" y="0"/>
      <point x="897" y="26"/>
      <point x="897" y="79" type="curve" smooth="yes"/>
      <point x="897" y="141" type="line"/>
      <point x="792" y="141" type="line"/>
      <point x="792" y="90" type="line" smooth="yes"/>
      <point x="792" y="64"/>
      <point x="787" y="59"/>
      <point x="761" y="59" type="curve" smooth="yes"/>
      <point x="572" y="59" type="line" smooth="yes"/>
      <point x="546" y="59"/>
      <point x="541" y="64"/>
      <point x="541" y="90" type="curve" smooth="yes"/>
      <point x="541" y="395" type="line" smooth="yes"/>
      <point x="541" y="421"/>
      <point x="546" y="426"/>
      <point x="572" y="426" type="curve" smooth="yes"/>
      <point x="763" y="426" type="line" smooth="yes"/>
      <point x="789" y="426"/>
      <point x="794" y="421"/>
      <point x="794" y="395" type="curve" smooth="yes"/>
      <point x="794" y="228" type="line"/>
      <point x="899" y="228" type="line"/>
      <point x="899" y="406" type="line" smooth="yes"/>
      <point x="899" y="459"/>
      <point x="873" y="485"/>
      <point x="820" y="485" type="curve" smooth="yes"/>
      <point x="553" y="485" type="line" smooth="yes"/>
      <point x="509" y="485"/>
      <point x="490" y="467"/>
      <point x="485" y="447" type="curve"/>
      <point x="478" y="467"/>
      <point x="458" y="485"/>
      <point x="411" y="485" type="curve" smooth="yes"/>
      <point x="155" y="485" type="line" smooth="yes"/>
      <point x="102" y="485"/>
      <point x="76" y="459"/>
      <point x="76" y="406" type="curve" smooth="yes"/>
    </contour>
    <contour>
      <point x="184" y="395" type="line"/>
      <point x="184" y="421"/>
      <point x="189" y="426"/>
      <point x="215" y="426" type="curve" smooth="yes"/>
      <point x="401" y="426" type="line" smooth="yes"/>
      <point x="424" y="426"/>
      <point x="434" y="418"/>
      <point x="434" y="396" type="curve" smooth="yes"/>
      <point x="434" y="89" type="line" smooth="yes"/>
      <point x="434" y="66"/>
      <point x="424" y="59"/>
      <point x="401" y="59" type="curve" smooth="yes"/>
      <point x="215" y="59" type="line" smooth="yes"/>
      <point x="189" y="59"/>
      <point x="184" y="64"/>
      <point x="184" y="90" type="curve" smooth="yes"/>
    </contour>
    <contour>
      <point x="899" y="278" type="line"/>
      <point x="484" y="278" type="line"/>
      <point x="484" y="219" type="line"/>
      <point x="899" y="219" type="line"/>
    </contour>
  </outline>
</glyph>
<glyph name="tcaron" format="1">
  <advance width="374"/>
  <unicode hex="0165"/>
  <outline>
    <contour>
      <point x="114" y="575" type="line"/>
      <point x="114" y="79" type="line" smooth="yes"/>
      <point x="114" y="26"/>
      <point x="140" y="0"/>
      <point x="193" y="0" type="curve" smooth="yes"/>
      <point x="337" y="0" type="line"/>
      <point x="337" y="63" type="line"/>
      <point x="251" y="63" type="line" smooth="yes"/>
      <point x="225" y="63"/>
      <point x="220" y="68"/>
      <point x="220" y="94" type="curve" smooth="yes"/>
      <point x="220" y="575" type="line"/>
    </contour>
    <contour>
      <point x="36" y="485" type="line"/>
      <point x="36" y="426" type="line"/>
      <point x="338" y="426" type="line"/>
      <point x="338" y="485" type="line"/>
    </contour>
    <contour>
      <point x="279" y="725" type="line"/>
      <point x="279" y="553" type="line"/>
      <point x="314" y="553" type="line"/>
      <point x="384" y="677" type="line"/>
      <point x="384" y="725" type="line"/>
    </contour>
  </outline>
</glyph>
<glyph name="Uhungarumlaut" format="1">
  <advance width="686"/>
  <unicode hex="0170"/>
  <outline>
    <contour>
      <point x="195" y="622" type="line"/>
      <point x="85" y="622" type="line"/>
      <point x="85" y="79" type="line" smooth="yes"/>
      <point x="85" y="26"/>
      <point x="111" y="0"/>
      <point x="164" y="0" type="curve" smooth="yes"/>
      <point x="526" y="0" type="line" smooth="yes"/>
      <point x="579" y="0"/>
      <point x="605" y="26"/>
      <point x="605" y="79" type="curve" smooth="yes"/>
      <point x="605" y="622" type="line"/>
      <point x="496" y="622" type="line"/>
      <point x="496" y="90" type="line" smooth="yes"/>
      <point x="496" y="64"/>
      <point x="491" y="59"/>
      <point x="465" y="59" type="curve" smooth="yes"/>
      <point x="226" y="59" type="line" smooth="yes"/>
      <point x="200" y="59"/>
      <point x="195" y="64"/>
      <point x="195" y="90" type="curve" smooth="yes"/>
    </contour>
    <contour>
      <point x="560" y="829" type="line"/>
      <point x="410" y="667" type="line"/>
      <point x="500" y="667" type="line"/>
      <point x="675" y="829" type="line"/>
    </contour>
    <contour>
      <point x="342" y="829" type="line"/>
      <point x="194" y="667" type="line"/>
      <point x="284" y="667" type="line"/>
      <point x="457" y="829" type="line"/>
    </contour>
  </outline>
</glyph>
<glyph name="uhungarumlaut" format="1">
  <advance width="634"/>
  <unicode hex="0171"/>
  <outline>
    <contour>
      <point x="76" y="485" type="line"/>
      <point x="76" y="79" type="line" smooth="yes"/>
      <point x="76" y="26"/>
      <point x="102" y="0"/>
      <point x="155" y="0" type="curve" smooth="yes"/>
      <point x="387" y="0" type="line" smooth="yes"/>
      <point x="428" y="0"/>
      <point x="448" y="20"/>
      <point x="448" y="68" type="curve" smooth="yes"/>
      <point x="448" y="126" type="line"/>
      <point x="442" y="126" type="line"/>
      <point x="442" y="93" type="line" smooth="yes"/>
      <point x="442" y="68"/>
      <point x="432" y="59"/>
      <point x="408" y="59" type="curve" smooth="yes"/>
      <point x="214" y="59" type="line" smooth="yes"/>
      <point x="188" y="59"/>
      <point x="183" y="64"/>
      <point x="183" y="90" type="curve" smooth="yes"/>
      <point x="183" y="485" type="line"/>
    </contour>
    <contour>
      <point x="442" y="485" type="line"/>
      <point x="442" y="0" type="line"/>
      <point x="549" y="0" type="line"/>
      <point x="549" y="485" type="line"/>
    </contour>
    <contour>
      <point x="527" y="695" type="line"/>
      <point x="377" y="533" type="line"/>
      <point x="467" y="533" type="line"/>
      <point x="641" y="695" type="line"/>
    </contour>
    <contour>
      <point x="309" y="695" type="line"/>
      <point x="161" y="533" type="line"/>
      <point x="251" y="533" type="line"/>
      <point x="423" y="695" type="line"/>
    </contour>
  </outline>
</glyph>
<glyph name="Ydieresis" format="1">
  <advance width="645"/>
  <unicode hex="0178"/>
  <outline>
    <contour>
      <point x="262" y="760" type="line"/>
      <point x="124" y="760" type="line"/>
      <point x="124" y="669" type="line"/>
      <point x="262" y="669" type="line"/>
    </contour>
    <contour>
      <point x="530" y="760" type="line"/>
      <point x="392" y="760" type="line"/>
      <point x="392" y="669" type="line"/>
      <point x="530" y="669" type="line"/>
    </contour>
    <contour>
      <point x="636" y="622" type="line"/>
      <point x="526" y="622" type="line"/>
      <point x="327" y="281" type="line"/>
      <point x="119" y="622" type="line"/>
      <point x="8" y="622" type="line"/>
      <point x="273" y="202" type="line"/>
      <point x="273" y="0" type="line"/>
      <point x="383" y="0" type="line"/>
      <point x="383" y="202" type="line"/>
    </contour>
  </outline>
</glyph>
<glyph name="florin" format="1">
  <advance width="471"/>
  <unicode hex="0192"/>
  <outline>
    <contour>
      <point x="334" y="567" type="line"/>
      <point x="338" y="595"/>
      <point x="344" y="601"/>
      <point x="371" y="601" type="curve" smooth="yes"/>
      <point x="442" y="601" type="line"/>
      <point x="442" y="664" type="line"/>
      <point x="332" y="664" type="line" smooth="yes"/>
      <point x="258" y="664"/>
      <point x="233" y="634"/>
      <point x="225" y="576" type="curve" smooth="yes"/>
      <point x="136" y="-44" type="line" smooth="yes"/>
      <point x="132" y="-72"/>
      <point x="127" y="-79"/>
      <point x="99" y="-79" type="curve" smooth="yes"/>
      <point x="27" y="-79" type="line"/>
      <point x="27" y="-141" type="line"/>
      <point x="138" y="-141" type="line" smooth="yes"/>
      <point x="212" y="-141"/>
      <point x="236" y="-110"/>
      <point x="244" y="-53" type="curve" smooth="yes"/>
    </contour>
    <contour>
      <point x="437" y="485" type="line"/>
      <point x="107" y="485" type="line"/>
      <point x="107" y="426" type="line"/>
      <point x="437" y="426" type="line"/>
    </contour>
  </outline>
</glyph>
<glyph name="apostrophemod" format="1">
  <advance width="229"/>
  <unicode hex="02BC"/>
  <outline>
    <contour>
      <point x="59" y="639" type="line"/>
      <point x="179" y="639" type="line"/>
      <point x="179" y="573" type="line"/>
      <point x="99" y="377" type="line"/>
      <point x="59" y="377" type="line"/>
    </contour>
  </outline>
</glyph>
<glyph name="circumflex" format="1">
  <advance width="614"/>
  <unicode hex="02C6"/>
  <outline>
    <contour>
      <point x="80" y="506" type="line"/>
      <point x="198" y="506" type="line"/>
      <point x="307" y="605" type="line"/>
      <point x="417" y="506" type="line"/>
      <point x="534" y="506" type="line"/>
      <point x="365" y="652" type="line"/>
      <point x="249" y="652" type="line"/>
    </contour>
  </outline>
</glyph>
<glyph name="caron" format="1">
  <advance width="614"/>
  <unicode hex="02C7"/>
  <outline>
    <contour>
      <point x="249" y="505" type="line"/>
      <point x="365" y="505" type="line"/>
      <point x="534" y="650" type="line"/>
      <point x="417" y="650" type="line"/>
      <point x="307" y="552" type="line"/>
      <point x="198" y="650" type="line"/>
      <point x="80" y="650" type="line"/>
    </contour>
  </outline>
</glyph>
<glyph name="macronmod" format="1">
  <advance width="468"/>
  <unicode hex="02C9"/>
  <outline>
    <contour>
      <point x="81" y="550" type="line"/>
      <point x="386" y="550" type="line"/>
      <point x="386" y="608" type="line"/>
      <point x="81" y="608" type="line"/>
    </contour>
  </outline>
</glyph>
<glyph name="breve" format="1">
  <advance width="614"/>
  <unicode hex="02D8"/>
  <outline>
    <contour>
      <point x="418" y="646" type="line"/>
      <point x="418" y="595" type="line" smooth="yes"/>
      <point x="418" y="569"/>
      <point x="413" y="564"/>
      <point x="387" y="564" type="curve" smooth="yes"/>
      <point x="254" y="564" type="line"/>
      <point x="254" y="507" type="line"/>
      <point x="436" y="507" type="line" smooth="yes"/>
      <point x="489" y="507"/>
      <point x="515" y="533"/>
      <point x="515" y="586" type="curve" smooth="yes"/>
      <point x="515" y="646" type="line"/>
    </contour>
    <contour>
      <point x="98" y="646" type="line"/>
      <point x="98" y="586" type="line" smooth="yes"/>
      <point x="98" y="533"/>
      <point x="124" y="507"/>
      <point x="177" y="507" type="curve" smooth="yes"/>
      <point x="268" y="507" type="line"/>
      <point x="268" y="564" type="line"/>
      <point x="226" y="564" type="line" smooth="yes"/>
      <point x="200" y="564"/>
      <point x="195" y="569"/>
      <point x="195" y="595" type="curve" smooth="yes"/>
      <point x="195" y="646" type="line"/>
    </contour>
  </outline>
</glyph>
<glyph name="dotaccent" format="1">
  <advance width="614"/>
  <unicode hex="02D9"/>
  <outline>
    <contour>
      <point x="245" y="531" type="line"/>
      <point x="370" y="531" type="line"/>
      <point x="370" y="629" type="line"/>
      <point x="245" y="629" type="line"/>
    </contour>
  </outline>
</glyph>
<glyph name="ring" format="1">
  <advance width="614"/>
  <unicode hex="02DA"/>
  <outline>
    <contour>
      <point x="468" y="610" type="line"/>
      <point x="468" y="656"/>
      <point x="445" y="678"/>
      <point x="400" y="678" type="curve" smooth="yes"/>
      <point x="213" y="678" type="line" smooth="yes"/>
      <point x="168" y="678"/>
      <point x="145" y="656"/>
      <point x="145" y="610" type="curve" smooth="yes"/>
      <point x="145" y="572" type="line" smooth="yes"/>
      <point x="145" y="525"/>
      <point x="168" y="504"/>
      <point x="213" y="504" type="curve" smooth="yes"/>
      <point x="400" y="504" type="line" smooth="yes"/>
      <point x="445" y="504"/>
      <point x="468" y="525"/>
      <point x="468" y="572" type="curve" smooth="yes"/>
    </contour>
    <contour>
      <point x="395" y="581" type="line"/>
      <point x="395" y="558"/>
      <point x="392" y="553"/>
      <point x="366" y="553" type="curve" smooth="yes"/>
      <point x="247" y="553" type="line" smooth="yes"/>
      <point x="222" y="553"/>
      <point x="218" y="558"/>
      <point x="218" y="581" type="curve" smooth="yes"/>
      <point x="218" y="601" type="line" smooth="yes"/>
      <point x="218" y="624"/>
      <point x="222" y="629"/>
      <point x="247" y="629" type="curve" smooth="yes"/>
      <point x="366" y="629" type="line" smooth="yes"/>
      <point x="392" y="629"/>
      <point x="395" y="624"/>
      <point x="395" y="601" type="curve" smooth="yes"/>
    </contour>
  </outline>
</glyph>
<glyph name="ogonek" format="1">
  <advance width="614"/>
  <unicode hex="02DB"/>
  <outline>
    <contour>
      <point x="245" y="-35" type="line"/>
      <point x="192" y="-35"/>
      <point x="166" y="-61"/>
      <point x="166" y="-114" type="curve" smooth="yes"/>
      <point x="166" y="-153" type="line" smooth="yes"/>
      <point x="166" y="-206"/>
      <point x="192" y="-232"/>
      <point x="245" y="-232" type="curve" smooth="yes"/>
      <point x="447" y="-232" type="line"/>
      <point x="447" y="-178" type="line"/>
      <point x="283" y="-178" type="line" smooth="yes"/>
      <point x="257" y="-178"/>
      <point x="251" y="-173"/>
      <point x="251" y="-147" type="curve" smooth="yes"/>
      <point x="251" y="-119" type="line" smooth="yes"/>
      <point x="251" y="-93"/>
      <point x="257" y="-89"/>
      <point x="283" y="-89" type="curve" smooth="yes"/>
      <point x="426" y="-89" type="line"/>
      <point x="426" y="-35" type="line"/>
    </contour>
    <contour>
      <point x="426" y="-39" type="line"/>
      <point x="426" y="12" type="line"/>
      <point x="322" y="12" type="line"/>
      <point x="322" y="-39" type="line"/>
    </contour>
  </outline>
</glyph>
<glyph name="tilde" format="1">
  <advance width="614"/>
  <unicode hex="02DC"/>
  <outline>
    <contour>
      <point x="199" y="598" type="curve" smooth="yes"/>
      <point x="244" y="598"/>
      <point x="361" y="519"/>
      <point x="424" y="519" type="curve" smooth="yes"/>
      <point x="451" y="519" type="line" smooth="yes"/>
      <point x="506" y="519"/>
      <point x="523" y="549"/>
      <point x="523" y="597" type="curve" smooth="yes"/>
      <point x="523" y="657" type="line"/>
      <point x="434" y="657" type="line"/>
      <point x="434" y="602" type="line" smooth="yes"/>
      <point x="434" y="583"/>
      <point x="429" y="578"/>
      <point x="415" y="578" type="curve"/>
      <point x="370" y="578"/>
      <point x="250" y="657"/>
      <point x="188" y="657" type="curve" smooth="yes"/>
      <point x="164" y="657" type="line" smooth="yes"/>
      <point x="110" y="657"/>
      <point x="91" y="628"/>
      <point x="91" y="579" type="curve" smooth="yes"/>
      <point x="91" y="519" type="line"/>
      <point x="181" y="519" type="line"/>
      <point x="181" y="575" type="line" smooth="yes"/>
      <point x="181" y="590"/>
      <point x="186" y="598"/>
    </contour>
  </outline>
</glyph>
<glyph name="hungarumlaut" format="1">
  <advance width="614"/>
  <unicode hex="02DD"/>
  <outline>
    <contour>
      <point x="464" y="668" type="line"/>
      <point x="314" y="506" type="line"/>
      <point x="404" y="506" type="line"/>
      <point x="578" y="668" type="line"/>
    </contour>
    <contour>
      <point x="246" y="668" type="line"/>
      <point x="98" y="506" type="line"/>
      <point x="188" y="506" type="line"/>
      <point x="361" y="668" type="line"/>
    </contour>
  </outline>
</glyph>
